<?xml version="1.0" encoding="utf-8"?>
<svg id="master-artboard" viewBox="0 0 700 490" version="1.1" xmlns="http://www.w3.org/2000/svg" x="0px" y="0px" width="700px" height="490px" enable-background="new 0 0 700 490">
<path d="M 0 0 H 700 V 490 H 0 V 0 Z" fill="#00949E" transform="matrix(1, 0, 0, 1, 0, 0)"/><path fill="#3CA5A0" d="M700,417H0V145c0,0,19-63,169,59c39.8,32.4,159.6-89,214.3-89c115.7,0,128.8,75.1,193.8,83.1&#10;&#9;&#9;&#9;C654,207.6,700,145,700,145V417z" transform="matrix(1, 0, 0, 1, 0, 0)"/><path fill="#58BFB8" d="M0,417V145c0,0,14.1-46.8,114,18.3c16,10.5,95.3,221.6,133.5,253.7H0z" transform="matrix(1, 0, 0, 1, 0, 0)"/><path fill="#58BFB8" d="M700,417c0,0-371.4-302-316.7-302c115.7,0,128.8,75.1,193.8,83.1C654,207.6,700,145,700,145V417z" transform="matrix(1, 0, 0, 1, 0, 0)"/><path d="M 700 113 L 642.9000244140625 248 L 611.9000244140625 145 L 579.9000244140625 251.10000610351562 L 538.2000122070312 113 L 461 369 L 538.2000122070312 369 L 544.2999877929688 369 L 534.7000122070312 401 L 611.9000244140625 401 L 689.0999755859375 401 L 681 374 L 700 374 Z" fill="#64DDDA" transform="matrix(1, 0, 0, 1, 0, 0)"/><path d="M 154.10000610351562 161 L 128 267.1000061035156 L 94 129 L 59.400001525878906 269.79998779296875 L 0 109 L 0 310 L 0 369 L 34.900001525878906 369 L 31 385 L 94 385 L 99 385 L 91.0999984741211 417 L 154.10000610351562 417 L 217.10000610351562 417 Z" fill="#64DDDA" transform="matrix(1, 0, 0, 1, 0, 0)"/><path d="M 642.9000244140625 248 L 611.9000244140625 145 L 611.9000244140625 401 L 689.0999755859375 401 L 681 374 Z" fill="#60C6C1" transform="matrix(1, 0, 0, 1, 0, 0)"/><path d="M 93.69999694824219 130.1999969482422 L 98.5999984741211 401 L 21.399999618530273 401 Z" fill="#60C6C1" transform="matrix(1, 0, 0, 1, 0, 0)"/><path d="M 538.2000122070312 113 L 511.8999938964844 200.10000610351562 L 538.2000122070312 369 L 544.2999877929688 369 L 597.5 369 Z" fill="#60C6C1" transform="matrix(1, 0, 0, 1, 0, 0)"/><path d="M 413.79998779296875 136.60000610351562 L 395.29998779296875 194.10000610351562 L 348.5 48.900001525878906 L 309.79998779296875 169.1999969482422 L 287.20001220703125 98.80000305175781 L 196.89999389648438 379.1000061035156 L 287.20001220703125 379.1000061035156 L 335.70001220703125 379.1000061035156 L 323.5 417 L 413.79998779296875 417 L 504 417 Z" fill="#64DDDA" transform="matrix(1, 0, 0, 1, 0, 0)"/><path d="M 283.29998779296875 109 L 283.29998779296875 365 L 196.89999389648438 365 Z" fill="#60C6C1" transform="matrix(1, 0, 0, 1, 0, 0)"/><path d="M 367.20001220703125 106.80000305175781 L 395.29998779296875 194.10000610351562 L 367.29998779296875 365 L 361.20001220703125 365 L 296.29998779296875 365 Z" fill="#60C6C1" transform="matrix(1, 0, 0, 1, 0, 0)"/><path d="M 287.20001220703125 98.80000305175781 L 286.70001220703125 100.30000305175781 L 274.79998779296875 137.10000610351562 L 283.20001220703125 126.5 L 287.20001220703125 147.5 L 290.1000061035156 131.5 L 293.6000061035156 136.5 L 297.70001220703125 131.39999389648438 Z" fill="#9BF9F4" transform="matrix(1, 0, 0, 1, 0, 0)"/><path d="M 94.19999694824219 128.60000610351562 L 93.69999694824219 130.1999969482422 L 84.4000015258789 168.10000610351562 L 90.19999694824219 156.39999389648438 L 94.19999694824219 177.39999389648438 L 97.0999984741211 161.39999389648438 L 100.5999984741211 166.39999389648438 L 102.5999984741211 163.89999389648438 Z" fill="#9BF9F4" transform="matrix(1, 0, 0, 1, 0, 0)"/><path d="M 154.1999969482422 160.8000030517578 L 153.6999969482422 162.3000030517578 L 144.39999389648438 200.1999969482422 L 150.1999969482422 188.5 L 154.1999969482422 209.5 L 157.10000610351562 193.5 L 160.60000610351562 198.5 L 162.60000610351562 196 Z" fill="#9BF9F4" transform="matrix(1, 0, 0, 1, 0, 0)"/><path d="M 413.5 136.39999389648438 L 413 137.89999389648438 L 401.20001220703125 174.8000030517578 L 409.6000061035156 164.1999969482422 L 413.5 185.1999969482422 L 416.5 169.1999969482422 L 420 174.1999969482422 L 424 169.10000610351562 Z" fill="#9BF9F4" transform="matrix(1, 0, 0, 1, 0, 0)"/><path d="M 348.6000061035156 48.79999923706055 L 348.1000061035156 50.29999923706055 L 336.20001220703125 87.19999694824219 L 344.3999938964844 76.5 L 348.6000061035156 97.5 L 351.79998779296875 81.5 L 355.6000061035156 86.5 L 359.20001220703125 82.19999694824219 Z" fill="#9BF9F4" transform="matrix(1, 0, 0, 1, 0, 0)"/><path d="M 538.2999877929688 113 L 537.7999877929688 114.5 L 526.5999755859375 151.5 L 534 140.6999969482422 L 538.2999877929688 161.6999969482422 L 541.5 145.6999969482422 L 545.2000122070312 150.6999969482422 L 548.5 146.89999389648438 Z" fill="#9BF9F4" transform="matrix(1, 0, 0, 1, 0, 0)"/><path d="M 611.5999755859375 145.10000610351562 L 611.0999755859375 146.60000610351562 L 600.2000122070312 183.8000030517578 L 607.4000244140625 172.8000030517578 L 611.5999755859375 193.8000030517578 L 614.7999877929688 177.8000030517578 L 618.5999755859375 182.8000030517578 L 622.2000122070312 179.39999389648438 Z" fill="#9BF9F4" transform="matrix(1, 0, 0, 1, 0, 0)"/><path fill="#333333" d="M695.5,328.8c0-0.6,0-1.2,0-1.8c0-0.5-0.8-0.7-1-0.2c0-2.2-0.1-4.3-0.6-6.4c-0.1-0.5-0.9-0.5-1,0&#10;&#9;&#9;c-0.7,2.8-1.2,5.5-2.2,8.1c0,0-0.1,0-0.1,0c0.3-3.3,0.9-6.6,1.3-9.9c0,0,0,0,0,0h0c0,0,0-0.1,0-0.1c0.1-0.6-0.8-0.7-1-0.1&#10;&#9;&#9;c-0.4,1.5-0.7,3-1,4.5v-7c0-0.6,0-1.2,0-1.8c0-0.6-1-0.6-1,0v2.3c0,2.8-0.1,5.7-1,8.4v-0.3c0.1-1.3,0.3-2.5,0.5-3.8&#10;&#9;&#9;c0-0.3-0.2-0.6-0.5-0.6v-3.5c0.2-1.8,0.4-3.7,0.5-5.5c0-0.3-0.2-0.5-0.5-0.5v-2c0-0.2,0-0.3,0-0.5c0.2,0,0.5-0.2,0.5-0.5V302&#10;&#9;&#9;c0-0.3-0.2-0.5-0.5-0.5V291c0-0.6-1-0.6-1,0v17.5c-0.1,0.9-0.1,1.8-0.1,2.7c-0.2-0.2-0.7-0.2-0.9,0.2c-1.5,4.6-1.3,9.5-2.1,14.2&#10;&#9;&#9;c-0.8-14.5,1-29.1-0.9-43.6c0,0,0,0,0,0c0,0,0,0,0,0c0,0,0-0.1,0-0.1c-0.1-0.6-0.9-0.4-1,0.1c-1.3,11.9-0.4,23.8,0.3,35.7&#10;&#9;&#9;c-0.8-4.9-1.6-9.7-2.3-14.6c-0.4-2.9-0.7-5.9-1.6-8.8c-0.4-1.2-1.4-2.1-1.9-0.4c-0.2,0.6,0.6,0.8,0.9,0.4c0.1,0.4,0.2,0.7,0.3,1.1&#10;&#9;&#9;c0.3,1.2,0.5,2.4,0.7,3.6c0.4,2.5,0.8,5,1,7.6c0,0.1,0,0.3,0,0.4c-0.2-0.4-0.4-0.9-0.6-1.3c-0.2-0.3-0.7-0.3-0.9,0&#10;&#9;&#9;c-0.5,1.2-0.9,2.5-1.1,3.7c-0.5-1.6-1-3.1-1.6-4.7c-0.1-0.5-0.3-1-0.4-1.4c0-0.1-0.1-0.2-0.2-0.3c-0.3-0.7-0.5-1.5-0.8-2.2&#10;&#9;&#9;c-0.2-0.6-1.2-0.3-1,0.3c0.5,1.3,0.9,2.6,1.4,3.9c0.8,2.8,1.5,5.6,2.1,8.5c0,2.3,0.2,4.7,0.5,7c0.1,0.7,0.1,1.5,0.2,2.2&#10;&#9;&#9;c0.1,1.6,0.1,3.3,0.1,4.9c-1.7-4.3-3-8.8-5-12.9c-0.2-0.4-1-0.2-0.9,0.3c0.4,3.4,1.1,6.8,1.6,10.2c-0.6-2-1.3-3.9-2.1-5.9&#10;&#9;&#9;c-0.2-0.5-1-0.5-1,0.1c0.1,3.5,0.7,6.9,0.6,10.3c-1.9-3.4-3.5-6.9-5.7-10.1c-0.4-0.5-1.2,0-0.9,0.5c2.2,3.1,3.7,6.6,5.6,9.9&#10;&#9;&#9;c-0.9,0.2-1.8,0.4-2.7,0.6c-1-3.7-2.3-7.3-3.5-10.9c-0.2-0.5-1-0.4-1,0.1v2c0,0,0,0,0,0c-0.2,0-0.4,0.1-0.5,0.3l-2.7,10.7&#10;&#9;&#9;c0,0-0.1,0-0.1,0c0.4-2.9,1-5.7,1.3-8.6c0.1-0.6-0.8-0.7-1-0.1c-0.4,1.3-0.7,2.6-1,3.9c0-1.6,0-3.2,0-4.8c0-0.5-0.9-0.7-1-0.1&#10;&#9;&#9;c0,0,0,0.1,0,0.1h0v0c-0.5,3.5-0.5,7.1-0.7,10.6c-1.2,0.5-2.3,1.1-3.4,1.7c0.2-3.9,0.6-7.9,1.1-11.8c0.1-0.6-0.9-0.6-1,0&#10;&#9;&#9;c-0.5,4.1-0.9,8.1-1.2,12.2c0.4-8.1,0.6-16.3,2.2-24.2c0,0.6,1,0.6,1,0v-4.5c0-0.6-0.8-0.7-1-0.1c-2.2,8.6-2.7,17.4-3.1,26.2&#10;&#9;&#9;c-0.4-2.4-0.4-4.9-0.4-7.1c0-0.6-1-0.6-1,0c0,3.3,0.2,7.1,1.1,10.6c-0.6,0.4-1.2,0.8-1.8,1.2c-0.5-8.2-3-16.4-4.9-24.4&#10;&#9;&#9;c-0.1-0.6-1-0.4-1,0.1c0,1.7,1.5,9,2.6,16c-1.7-4.5-3.7-8.8-5.7-13.2c-0.3-0.6-1.1-0.1-0.9,0.5c2.6,5.9,5.4,11.7,7.2,17.8&#10;&#9;&#9;c0.2,1.4,0.3,2.7,0.3,3.8c-1.3-3.3-2.3-6.6-3.1-10c-0.2-0.6-1.1-0.4-1,0.3c0.1,0.4,0.2,0.9,0.2,1.3c-2-4.3-4.2-8.5-5.3-13.1&#10;&#9;&#9;c-0.1-0.6-1.1-0.4-1,0.3c1,4,2.8,7.8,4.6,11.5c-0.1,0.1-0.1,0.2-0.1,0.3c0,0.2,0.1,0.4,0.2,0.6c0.1,0.1,0.3,0.3,0.3,0.4&#10;&#9;&#9;c0,0.3,0.2,0.4,0.5,0.5c0.5,1.1,1.1,2.3,1.5,3.4c0.3,1.7,0.7,3.4,1.1,5.1c-0.2-0.1-0.4,0-0.5,0.2c-0.4,1-1.2,1.8-1.9,2.6&#10;&#9;&#9;c-0.1-0.5,0-1.1-0.3-1.6c-0.1-0.2-0.4-0.3-0.6-0.2c-0.8,0.2-1.3,0.9-2,1.3c-0.1-0.8-0.1-1.6-0.4-2.4c-0.1-0.4-0.7-0.5-0.9-0.1&#10;&#9;&#9;c-0.5,0.8-1.1,1.5-1.7,2.2c0-0.4,0.1-0.8,0.1-1c0.1-0.5-0.7-0.6-0.9-0.3c-0.2,0.2-0.3,0.5-0.4,0.7c0-0.3,0-0.7-0.2-1.1&#10;&#9;&#9;c-0.1-0.3-0.6-0.5-0.8-0.2c-0.4,0.5-0.7,1.1-1.1,1.7v-1.8c0-0.5-0.7-0.7-0.9-0.3c-0.2,0.5-0.4,0.9-0.6,1.4v-0.1c0-0.7-0.9-0.6-1,0&#10;&#9;&#9;c0,0.4-0.1,0.7-0.2,1c-0.2,0-0.4,0-0.5,0c-0.1-0.5-0.1-1.1-0.1-1.6c0.6-2,1.1-4.1,1.4-6.3c0-0.2-0.1-0.4-0.2-0.5&#10;&#9;&#9;c1.1-2.8,2.4-5.6,3.7-8.3c0.3-0.6-0.5-1.1-0.9-0.5c-1.4,2.6-2.7,5.3-3.8,8c0.2-3.8,0.5-7.5,1-11.3c0.2-0.6,0.4-1.3,0.7-1.9&#10;&#9;&#9;c0.1-0.3-0.1-0.5-0.3-0.6c0.1-0.6,0.2-1.3,0.3-1.9c0.1-0.6-0.7-0.9-1-0.3c-1.7,4.4-2.6,9.1-3.6,13.7c-0.6,2.3-1.3,4.6-1.9,6.8&#10;&#9;&#9;c-0.6,1.6-1.2,3.2-2,4.7c-0.1,0-0.2,0-0.4,0c-0.2-0.9-0.3-1.9-0.4-2.8c0.3-8.5,1.6-17,3.7-25.2c0.2-0.6-0.7-0.9-1-0.3&#10;&#9;&#9;c-1.7,4.7-2.7,9.6-3.5,14.5c-0.1-1.2-0.3-2.3-0.6-3.5c-0.1-0.4-0.7-0.5-0.9-0.1c-2.9,5.5-1.8,11.6-1.4,17.6c-0.2,0-0.4,0-0.5,0.1&#10;&#9;&#9;c-0.3-2.5-0.4-5-0.5-7.5c-0.1-2.1-0.1-4.3,0-6.4c0.1-2.3,0.4-4.5,0.8-6.7c-0.3,1.7-0.4,3.5-0.5,5.2c0,0.6,1,0.6,1,0&#10;&#9;&#9;c0.1-4.4,1-8.6,2-12.9c0.1-0.5-0.6-0.9-0.9-0.4c-0.7,1.4-1.2,2.8-1.7,4.2c0.2-1.4,0.4-2.9,0.6-4.3c0.1-0.6-0.8-0.9-1-0.3&#10;&#9;&#9;c-2.3,8.6-2.6,17.4-2.6,26.3c-2.4-5.1-5.8-9.8-8.9-14.7c-0.8-1.4-1.6-2.8-2.6-4.2c-0.4-0.5-1.2-0.1-0.9,0.5&#10;&#9;&#9;c0.8,1.4,1.6,2.7,2.5,4.1c1.6,2.9,2.8,5.9,4,9.1c0,0.1,0,0.2,0,0.2c0.2,1,0.4,2.1,0.7,3.1c-0.8-1-1.8-1.9-2.9-2.6&#10;&#9;&#9;c-0.3-0.2-0.8,0.1-0.8,0.4c0.2,2.1,0.7,4,1.3,6c-1.3-2.5-2.7-5-4.4-7.2c-0.2-0.3-0.8-0.3-0.9,0.1c-0.5,1.8-0.4,3.5,0,5.3&#10;&#9;&#9;c0.1,0.6,1.1,0.4,1-0.3c-0.3-1.3-0.4-2.4-0.2-3.6c1.6,2.3,3,4.8,4.3,7.4c0,0.1,0,0.1-0.1,0.2c-0.3-0.7-0.7-1.4-1-2&#10;&#9;&#9;c-0.2-0.3-0.7-0.3-0.9,0c-0.3,0.7-0.7,1.5-0.9,2.3c-0.3-0.4-0.5-0.8-0.9-1c-0.3-0.2-0.7,0-0.8,0.4c0,0.6-0.1,1.2-0.2,1.8&#10;&#9;&#9;c-0.3-0.5-0.6-0.9-1.1-1.2c-0.2-0.1-0.4-0.1-0.6,0.1c-0.7,0.7-0.5,1.3-0.8,2.1c-0.3-0.3-0.7-0.8-1-1.1c-0.3-0.3-0.7-0.1-0.8,0.2&#10;&#9;&#9;c-0.3,0.7-0.4,1.5-0.5,2.2c-0.2-0.3-0.4-0.7-0.7-0.9c-0.3-0.2-0.6-0.2-0.8,0.1c-0.4,0.6-0.4,1.1-0.4,1.6c-0.1,0.1-0.3,0.1-0.4,0.2&#10;&#9;&#9;c-0.3-0.4-0.6-0.7-1-1c-0.3-0.2-0.8,0.1-0.8,0.4c0,0.4,0.1,0.9,0.1,1.4c-0.1,0.1-0.2,0.1-0.3,0.2c-0.2-0.2-0.3-0.4-0.5-0.5&#10;&#9;&#9;c-0.5-0.2-0.9,0.2-0.7,0.7c0.1,0.1,0.1,0.2,0.2,0.3c-0.1,0.1-0.2,0.1-0.3,0.2c-0.6-0.3-1.2-0.5-1.8-0.8c-0.6-0.2-0.9,0.7-0.3,1&#10;&#9;&#9;c0.4,0.2,0.7,0.3,1,0.4c-0.8,0.5-1.5,1-2.1,1.5c0.4-1.5,0.8-3,1-4.6c0.4-2.7,0-5.5-0.2-8.3c-0.2-3-0.3-6-0.4-9c-0.1-3-0.1-6-0.1-9&#10;&#9;&#9;c0-1.4,0-2.9,0.2-4.3c0.1-1.5,0.4-3,0.6-4.5c0.2-1.7,0.3-3.6-1.1-4.9c-0.1-0.1-0.2-0.2-0.3-0.3c0-0.1,0-0.2-0.1-0.2&#10;&#9;&#9;c-0.2-0.1-0.3-0.2-0.5-0.3c-0.1-0.1-0.2-0.1-0.2,0c-0.2-0.1-0.4-0.3-0.6-0.4c-1-0.6-1.8-1.4-2.5-2.3c-1.5-1.8-2.6-4.1-3.5-6.2&#10;&#9;&#9;c-0.8-2-1.7-4.2-2.2-6.3c-0.6-2.6-0.1-5.1,0.7-7.6c0.8-2.5,1.8-5.1,2.7-7.6c1.7-4.8,2.6-9.7,1.1-14.7c-0.7-2.2-1.8-4.1-3.2-5.8&#10;&#9;&#9;c0.7-0.2,1.4-0.3,2.1-0.4c0.2,0,0.3-0.2,0.1-0.3c-0.1-0.1-0.3-0.2-0.4-0.3c0.5-0.1,1.1-0.3,1.6-0.3c0,0,0.1,0,0.1,0&#10;&#9;&#9;c0.3,0,0.5,0,0.8,0c0.2,0,0.2-0.3,0-0.4c-0.2-0.1-0.4-0.1-0.6-0.2h3.1c0.2,0,0.2-0.4,0-0.4c-1,0-1.8-0.3-2.5-0.9&#10;&#9;&#9;c1.2,0,2.4,0.1,3.5-0.2c0.2,0,0.2-0.3,0-0.3c-0.3-0.2-0.5-0.4-0.8-0.6c1.2,0.2,2.4,0.4,3.7,0.6c0.2,0,0.3-0.3,0.1-0.3l-2.8-1.4&#10;&#9;&#9;c0.9-0.1,1.8-0.1,2.7-0.1c0.2,0,0.3-0.3,0-0.4c-2.9-0.5-5.8-0.8-8.7-0.6c-2.3,0.2-5.2,0.8-6.2,3c-3.3-2.2-7.2-3.6-11-4.2&#10;&#9;&#9;c-2.5-0.4-5.1-0.9-7.6-1.2c-1.6-0.2-3.8-0.3-5.3,0.5c-1.3,0.2-2.6,0.4-3.9,0.7c-2.7,0.6-5.4,1.2-8.1,1.4c-2.9,0.3-5.8,0.4-8.7,0.5&#10;&#9;&#9;c-1.4,0-2.8,0.1-4.2,0.2c-1.3,0.2-2.6,0.5-3.9,0.8c-1.4,0.3-2.7,0.6-4.1,0.8c-1.5,0.2-2.9,0.1-4.4-0.1c-3-0.3-6-1-9-1.7&#10;&#9;&#9;c-5-1.2-10.3-3-15.4-1.5c-3,0.9-5.4,3.1-8.5,3.9c-0.1,0-0.3,0-0.4,0c-0.4-1-1.5-1.8-1.8-2.9c-0.7-2.2,1.9-3.4,3.3-4.5&#10;&#9;&#9;c1.5-1.1,2.7-2.5,3.4-4.2c0.7-1.7,0.7-3.6,0.3-5.4c0-0.1-0.1-0.1-0.2-0.1c-2.5-0.3-4.7,1-6.8,2.4c2.7-3.1,6.6-4.6,10.5-5.7&#10;&#9;&#9;c4.2-1.2,8.5-2.1,12.3-4.4c4-2.4,7.2-6,9.5-10c2.6-4.5,3.8-9.5,4.8-14.5c0.9-4.3,1.6-8.7,2.1-13.1c0.5-4.5,0.8-9.1,0.8-13.7&#10;&#9;&#9;c-0.1-3.9-0.9-7.7-3.3-10.9c-2.2-2.9-5.2-5.1-8-7.4c-0.1-0.1-0.3,0-0.3,0.1c0.2,1.5,0.5,3,1,4.4c-0.6-0.1-1.1,0-1.8,0.1&#10;&#9;&#9;c-0.1,0-0.2,0.2-0.2,0.3c0.9,1.6,2.3,2.8,3.5,4.1c1.3,1.4,2.7,3.1,2.7,5.1c-3.2-0.1-6.4-0.9-9.6-0.4c-0.2,0-0.2,0.2-0.1,0.3&#10;&#9;&#9;c0.3,0.4,0.5,0.8,0.7,1.2c-0.9,0.1-2.8,0.4-2.5,1.6c0.2,1,2.2,1.4,3,1.6c3,0.6,8.6-0.8,9.7,3.1c0.5,1.9-0.5,4.4-1.3,6.1&#10;&#9;&#9;c-0.7,1.5-1.5,2.9-2.8,4.1c-0.9,0.8-2.6,1.9-2.7,3.2c-0.1,1.5,1.5,1.3,2.4,1c0.6-0.2,1.2-0.5,1.8-0.8c0.1,2.2-0.5,4.4-1.1,6.6&#10;&#9;&#9;c-0.6,2-1.2,3.9-1.6,5.9c-0.3,1.4-0.7,2.7-1.2,4c-0.4,1-1.2,2.6-2.5,2.6c-0.8,0-1.4-0.8-1.8-1.4c-0.6-0.7-0.7-1.6-0.9-2.5&#10;&#9;&#9;c-0.4-2-0.9-3.8-1.9-5.6c-2.3-4.4-5.5-8.6-7-13.3c-0.1-0.2-0.4-0.2-0.4,0c0,2.6,0.1,5.3,0.8,7.8c-0.4-0.2-0.9-0.4-1.2-0.7&#10;&#9;&#9;c-0.2-0.1-0.4,0-0.3,0.2c0.4,0.8,0.9,1.6,1.4,2.3c-0.8-0.4-1.6-0.7-2.6-0.7c-0.1,0-0.2,0.2-0.2,0.3c1.5,2.3,3.7,3.7,5.6,5.6&#10;&#9;&#9;c2.3,2.4,3.2,6,3.9,9.1c0.5,2.5,1.2,5.6,0,8c-0.5,1.1-1.5,1.9-2.5,2.5c-1.1,0.7-2.7,1.6-4.1,1.6c0.1-1.6,0.6-3.1,1.1-4.6&#10;&#9;&#9;c0.4-1.5,0.7-2.9,0.7-4.5c0-2.9-1.2-5.6-2.7-8c-0.1-0.1-0.3-0.1-0.3,0c-0.4,1.9-0.4,3.9-1.2,5.7c-2.8-2.3-5.2-5-7.2-8&#10;&#9;&#9;c-0.1-0.2-0.4-0.1-0.3,0.1c0.3,1.5,0.2,3.1,0.4,4.6c-0.5,0-0.9,0.1-1.4,0c-0.2-0.1-0.3,0.2-0.1,0.3c2.5,1.8,4.9,4,6.4,6.7&#10;&#9;&#9;c0.7,1.3,1.2,2.9,1,4.4c-0.3,1.8-1.6,3.1-3,4.1c-1.7,1.2-3.4,2.4-5.2,3.5c-1.5,1-2.9,2-4.5,2.7c-2,1-4.5,2-4.9,4.5&#10;&#9;&#9;c-0.9-0.2-1.9,0-2.9,0.1c-0.6,0.1-1.2,0.2-1.8,0.3c-0.4,0.1-1.2,0.3-1.6,0c-0.1-0.1-0.3,0-0.3,0.1c-0.8-0.8-1.9-1.4-2.9-1.8&#10;&#9;&#9;c-2.1-1-4.4-1.7-6.5-2.9c-2.1-1.1-3.7-2.7-4.7-4.8c-1-2.1-1.5-4.4-2.3-6.6c-0.1-0.2-0.4-0.2-0.4,0v0.5c-0.4-0.5-0.9-0.9-1.3-1.4&#10;&#9;&#9;c-0.1-0.1-0.3-0.1-0.3,0c-0.6,3.1,1.4,5.9,2,8.9c-2-1.7-4.7-2.5-6.3-4.8c-0.8-1.2-1.1-2.9-1.4-4.3c-0.3-1.6-0.5-3.1-0.9-4.7&#10;&#9;&#9;c-0.6-2.8-1.7-5.3-1.5-8.2c0.1-2.9,1.6-5.5,3.1-7.8c0.1-0.1,0-0.3-0.2-0.3c-2-0.1-0.9-1.8-0.1-2.7c0.2-0.2,0-0.4-0.2-0.3&#10;&#9;&#9;c-0.7,0.4-1.4,0.8-2,1.3c0.3-1.1,0.7-2.1,0.6-3.2c0-0.2-0.2-0.2-0.3-0.1c-0.9,0.8-1.3,1.9-1.6,3c-0.4,1.1-0.6,2.9-1.6,3.7&#10;&#9;&#9;c-1.7,1.3-2.1-4.3-2.1-5.2c0-0.2-0.3-0.3-0.4,0c0,0,0,0,0,0c0,0,0,0,0,0c-0.3,2.1,0.1,4.2,0,6.3c-0.2-0.3-0.5-0.6-0.8-1&#10;&#9;&#9;c-0.1-0.1-0.3-0.1-0.3,0c-1.1,2.9-0.7,6.2-0.1,9.2c0.3,1.8,0.8,3.5,1.3,5.2c0.4,1.2,0.7,2.5,1.2,3.7c0.9,2.1,1.8,4.3,2.8,6.4&#10;&#9;&#9;c0.5,1.1,1,2.1,1.5,3.1c0.1,0.3,0.4,0.8,0.7,1c0,0,0,0.1,0,0.1c-2.8-0.8-5.1-2.4-6.7-4.8c-1.6-2.3-2.4-5.1-3.2-7.7&#10;&#9;&#9;c-0.5-1.7-1.1-3.4-1.7-5.1c-0.8-1.9-1.6-3.8-2.1-5.9c-0.5-1.7-0.4-3.4,0.2-5.1c0.5-1.5,1.3-2.9,1.7-4.4c0-0.1-0.1-0.3-0.2-0.2&#10;&#9;&#9;c-1.3,0.2-2.2,1.1-3.1,1.9c-2.7-3.8-0.4-8.5,0-12.6c0-0.2-0.3-0.2-0.3-0.1c-0.7,1.2-1.3,2.6-2.5,3.4c-0.5-1.9-1-3.9-1.1-5.9&#10;&#9;&#9;c0-0.2-0.3-0.3-0.3-0.1c-1.7,3.3-2.1,6.7-1.5,10.3c0.7,3.8,2.4,7.3,3.6,11c1.4,4.1,2.9,8.2,4.1,12.3c0.5,1.7,0.9,3.3,1.5,4.9&#10;&#9;&#9;c0.5,1.6,1.1,3.2,1.2,4.9c-1.8-1.3-3.1-3.1-4-5.2c-1-2.5-1.9-5.2-2.8-7.8c-1.8-5.1-3.6-10.3-4.8-15.7c-0.3-1.1-0.5-2.3-0.9-3.4&#10;&#9;&#9;c-0.4-1.1-0.9-2.2-1.3-3.3c-0.9-2.3-1.6-4.8-0.9-7.3c0.6-2.2,2.2-4.2,3.7-6c1.4-1.7,2.9-3.3,4.4-5.1c0.1-0.1,0-0.3-0.1-0.3&#10;&#9;&#9;c-2.8,0.3-4.9,2.6-7.7,3v-6.7c0-0.1-0.2-0.2-0.3-0.2c-3,2-3.6,6.5-4.2,9.8c-0.3,2.1-0.8,4.1-0.8,6.2c-0.1,2.7,0.4,5.4,1,8&#10;&#9;&#9;c1.3,5.9,4,11.2,6,16.8c0.9,2.5,1.5,5.1,2.4,7.6c0.8,2.3,1.9,4.3,3.1,6.4c1.9,3.4,4.1,6.9,7.1,9.5c3.1,2.6,7.4,3.4,11.3,3.9&#10;&#9;&#9;c2.1,0.3,4.3,0.5,6.4,0.7c2.3,0.2,4.7,0.3,7,0.8c1,0.2,3.4,0.9,4.4,2.1c-0.1,0-0.1,0-0.2,0c-0.2,0-0.1,0.4,0.1,0.4&#10;&#9;&#9;c0.1,0,0.2,0,0.3-0.1c0.2,0.4,0.3,0.8,0.1,1.3c-0.1,0.2-0.4,0.4-0.6,0.7c-2.4-2.9-6.1-5.3-9.7-3.1c-0.1,0-0.1,0.2-0.1,0.3&#10;&#9;&#9;c1,1.4,1.2,3,2,4.5c0.8,1.4,2.5,2.4,3.9,3.3c1.3,0.8,2.7,1.5,4,2.4c0.6,0.4,1.1,0.9,1.5,1.5c0.4,3.3,1.3,6.4,2.4,9.5c0,0,0,0,0,0.1&#10;&#9;&#9;c0,0.1,0,0.2,0.1,0.2c0.4,1.2,0.8,2.3,1.2,3.4c0.8,2.2,1.5,4.5,2,6.8c0.6,2.5,0.6,5.1,0.9,7.6c0.2,2.3,0.5,4.6,1,6.8&#10;&#9;&#9;c0.6,2.3,1.6,4.5,2.7,6.6c1,1.9,2.3,3.7,4,5.1c0.9,0.7,1.8,1.3,2.6,2c0.7,0.6,1.5,1.3,1.8,2.2c0.1,2.2,0.7,4.4,1.3,6.5&#10;&#9;&#9;c0.7,2.6,1.3,5.2,1.8,7.8c0.5,3,1,6.1,1,9.1c0.1,3,0.1,5.9,0.3,8.9c0.1,3,0.3,5.9,0.2,8.9c0,1.4-0.1,2.8-0.2,4.3&#10;&#9;&#9;c-0.1,1.1-0.1,2.4-0.4,3.5c-0.3,0.9-0.6,1.8-1,2.7h-3.6c-0.2-0.6-0.9-1.1-1.3-1.5c-0.2-0.2-0.5-0.2-0.7,0c-0.2-0.2-0.4-0.3-0.6-0.5&#10;&#9;&#9;c-0.3-2.4-0.5-4.8-0.5-7.2c0-0.6-1-0.6-1,0c0,2-0.2,3.9-0.7,5.7c-0.1-0.1-0.3-0.2-0.4-0.2c0-2.3,0.3-4.6,0.6-6.9&#10;&#9;&#9;c0.1-0.5-0.6-0.9-0.9-0.4c-0.2,0.3-0.3,0.7-0.5,1c-0.3,0.6-0.7,1.3-1,1.9c0.5-1.5,0.9-3,1.4-4.5c0.1-0.5-0.5-0.9-0.8-0.5&#10;&#9;&#9;c-0.6,0.8-1.1,1.7-1.5,2.5c0-0.4-0.1-0.8-0.1-1.2c0-0.6-0.8-0.7-1-0.1c-0.1,0.5-0.3,1-0.6,1.5c0-0.8,0.1-1.6,0.1-2.4&#10;&#9;&#9;c0-0.3-0.2-0.4-0.3-0.5c0-0.1,0-0.1,0.1-0.2c1.1-2.1,2.7-4.2,4.9-4.8c0.6-0.2,0.4-1.1-0.3-1c-2.1,0.6-3.5,2.2-4.7,4&#10;&#9;&#9;c-0.2-0.1-0.5,0-0.6,0.2c-0.7,1.2-1.2,2.4-1.7,3.7c0-0.8,0-1.5,0.2-2.3c0.1-0.6-0.8-0.9-1-0.3c0,0,0,0.1-0.1,0.1c0-0.2,0-0.3,0-0.5&#10;&#9;&#9;c0-0.6-0.9-0.7-1-0.1c-0.3,2-0.7,3.9-1,5.9c-0.1,0.2-0.1,0.5-0.2,0.7c-0.1,0-0.2,0-0.2-0.1c-0.1-0.7-0.1-1.4-0.1-1.9&#10;&#9;&#9;c-0.1-1.2-0.2-2.5-0.4-3.7c-0.1-0.5-0.9-0.5-1,0c-0.1,0.2-0.1,0.4-0.2,0.7c0,0,0,0,0,0c0.1-0.3,0.1-0.6,0.2-0.9&#10;&#9;&#9;c0-0.3-0.1-0.5-0.4-0.6c0-0.5-0.1-1-0.2-1.4c0.3-0.6,0.6-1.2,1-1.8c0.3-0.6-0.5-1-0.9-0.5c-0.2,0.2-0.3,0.5-0.5,0.8&#10;&#9;&#9;c-0.2-0.6-0.4-1.2-0.7-1.8c-0.2-0.3-0.7-0.3-0.9,0c-0.4,0.8-0.7,1.5-0.9,2.3c-1-2.2-2.1-4.3-3.2-6.5c-0.8-1.8-1.6-3.6-2.5-5.3&#10;&#9;&#9;c-0.2-0.5-1.1-0.1-0.9,0.4c0,0,0,0.1,0.1,0.1l0,0c0.7,1.6,1.5,3.3,2.3,4.9c0.4,0.8,0.7,1.6,1.1,2.4c-0.6-0.9-1.3-1.9-2-2.8&#10;&#9;&#9;c-0.3-0.4-1.1-0.2-0.9,0.4c0.9,2.3,1.8,4.7,2.4,7.1c-3.7-2.5-9.7-4.2-16.5-4.4c0.4-0.7,0.7-1.4,1-2.1c0.2-0.5-0.3-0.9-0.7-0.7&#10;&#9;&#9;c0.2-0.6,0.5-1.3,0.7-1.9c0.2-0.5-0.7-0.9-0.9-0.4c-0.8,1.4-1.6,2.8-2.5,4.2c0.1-0.9,0.2-1.9,0.4-2.8c0-0.1,0-0.2,0-0.2&#10;&#9;&#9;c0.1-0.4,0.3-0.8,0.5-1.1c0.3-0.6-0.6-1.1-0.9-0.5c-0.3,0.5-0.5,1.1-0.7,1.7c-0.3,0.4-0.6,0.8-1,1.1c0.2-1.6,0.5-3.3,1-4.9&#10;&#9;&#9;c0.2-0.6-0.8-0.9-1-0.3c-0.8,2.7-1.7,5.5-3.2,8c0,0,0,0,0,0c0.2-1.7,0.4-3.4,0.7-5.2c0.1-0.6-0.7-0.9-1-0.3&#10;&#9;&#9;c-0.1,0.4-0.3,0.8-0.4,1.2c-0.2-0.1-0.5,0-0.6,0.3c-0.3,0.9-0.8,1.8-1.3,2.6c-0.8-3-1.5-6-2.2-9.1c-0.1-0.6-1.1-0.4-1,0.3&#10;&#9;&#9;c0.8,3.4,1.6,6.7,2.5,10.1c0,0.1-0.1,0.2-0.1,0.3c-1-1.3-2-2.5-2.4-4.1c-0.1-0.2-0.2-0.3-0.4-0.3c-0.3-1.3-0.5-2.6-0.8-3.8&#10;&#9;&#9;c-0.3-2.1-0.8-4.2-1.3-6.3c-0.2-0.6-1.1-0.4-1,0.3c0.5,2,0.9,4.1,1.3,6.1c0.4,2.4,0.6,4.9,0.6,7.3c-0.3-0.6-0.7-1.2-1-1.8&#10;&#9;&#9;c-0.3-0.5-1-0.1-0.9,0.4c0.3,1.6,0,3.1-0.3,4.7c-0.4-1.1-0.9-2.3-1.3-3.4c-0.2-0.6-1.1-0.4-1,0.3c0.3,1.5,0.5,3,0.7,4.5&#10;&#9;&#9;c-0.2,0.1-0.4,0.3-0.6,0.4c-0.8-1.4-1.6-2.8-2.1-4.4c-0.1-0.6-0.3-1.2-0.5-1.8c-0.2-0.6-1.1-0.4-1,0.3c0.1,0.6,0.3,1.2,0.5,1.8&#10;&#9;&#9;c0.1,0.7,0.2,1.3,0.3,2c-0.4-0.7-0.9-1.4-1.4-2.1c-0.4-0.5-1.2-0.1-0.9,0.5c0.8,1.5,1.6,2.9,2.3,4.4c0,0.3,0,0.6-0.1,1&#10;&#9;&#9;c-0.2-0.2-0.5-0.1-0.7,0c-0.2-0.6-0.5-1.2-0.6-1.8c-0.2-0.6-1.1-0.4-1,0.3c0.3,1.5,0.7,3.1,1,4.6c0,0,0,0.1,0,0.1&#10;&#9;&#9;c-1.4,0.1-2.7,0.3-4,0.4c-0.1-0.4-0.1-0.8-0.2-1.3c0.2-2,0.2-3.9,0-5.9c0.2-1.2,0.4-2.4,0.7-3.5c0.1-0.6-0.8-0.9-1-0.3&#10;&#9;&#9;c-0.2,0.5-0.3,1.1-0.5,1.6c-0.2,0-0.4,0.1-0.5,0.2c-0.3,0.4-0.5,0.8-0.8,1.2c0.1-1.2,0.2-2.3,0.2-3.5c0-0.6-1-0.6-1,0&#10;&#9;&#9;c0,1.9-0.2,3.7-0.3,5.6c-0.1,0.1-0.2,0.3-0.2,0.4c0-0.2,0-0.3,0-0.5c0.3-3,0.4-6,0.6-9c0-0.7-0.9-0.6-1,0c-0.4,3-0.5,6-0.6,9&#10;&#9;&#9;c-0.2,0-0.4,0.2-0.4,0.5c-0.1,1.7-1.3,2.9-2.2,4.2c0-0.1-0.1-0.1-0.1-0.2c0.1-3-0.1-6-0.2-8.9c0-0.3,0.1-0.5,0.1-0.8v0.7&#10;&#9;&#9;c0,0.6,1,0.6,1,0v-6c0-0.6-0.9-0.7-1-0.1c-0.1,0.6-0.2,1.1-0.4,1.7c-0.1-1.7-0.1-3.4-0.2-5.1c0-0.6-1-0.6-1,0c0,4.3-0.3,8.7-0.3,13&#10;&#9;&#9;c-0.2-0.9-0.4-1.8-0.7-2.7c-0.2-0.5-1-0.4-1,0.1c0,1.6,0.1,3.2,0.2,4.8c-0.3,0.7-0.5,1.4-0.8,2.1c-0.6-3.5-1.1-7.1-2.4-10.5&#10;&#9;&#9;c-0.2-0.5-1-0.5-1,0.1c-0.1,2.7,0.3,5.3,1,7.8c-0.3-0.2-0.5-0.5-0.8-0.7c-1.5-3.7-3.5-7.1-6.3-10c-0.4-0.4-1,0-0.8,0.5&#10;&#9;&#9;c0.7,2.7,1.6,5.3,2.5,7.9c0,0,0,0.1,0,0.1c0.3,0.9,0.5,1.8,0.7,2.7c-1.4-2-3.1-3.9-4.9-5.7c-0.5-0.4-1.2,0.3-0.7,0.7&#10;&#9;&#9;c2.6,2.4,4.7,5.2,6.5,8.2c0.3,1.2,0.6,2.3,0.9,3.5c0,0.4,0,0.9,0,1.3c-0.1,0-0.2,0.1-0.3,0.1c-1.1-1.1-2.3-2-3.3-3.2&#10;&#9;&#9;c-0.3-0.4-1.1-0.2-0.9,0.4c0.3,0.9,0.7,1.7,1.2,2.5c0,0,0,0,0,0c0,0-0.1,0.1-0.1,0.1c-1.4-0.8-2.8-1.5-4.3-2.2&#10;&#9;&#9;c-0.2-0.1-0.5,0-0.6,0.1c-1.8-1.4-3.8-2.6-5.9-3.6c-0.6-0.3-1.1,0.6-0.5,0.9c2.5,1.2,4.8,2.7,6.8,4.4c0.5,1,1.1,1.9,1.8,2.8&#10;&#9;&#9;c0,0,0,0,0,0c-0.2-0.1-0.3-0.3-0.6-0.3c-0.8,0-1.2,0.6-1.6,1.3c-0.1,0.1-0.2,0.1-0.4,0.2c-0.2-0.5-0.3-0.9-0.4-1.4&#10;&#9;&#9;c-0.1-0.6-0.8-0.7-1-0.1c-0.2,0.6-0.4,1.1-0.6,1.7c-0.7,0-1.4,0-2,0.1c-0.6-0.2-1.2-0.5-1.8-0.7c-0.2-0.1-0.4,0-0.5,0.1&#10;&#9;&#9;c-0.2,0.2-0.4,0.5-0.6,0.8c-0.3,0-0.6,0.1-0.9,0.1c-0.1-0.2-0.1-0.4-0.2-0.8c-0.1-0.5-0.9-0.5-1,0c-0.1,0.3-0.1,0.7-0.2,1&#10;&#9;&#9;c-0.2,0-0.3,0.1-0.5,0.1c-0.5-0.5-1-0.9-1.5-1.3c-0.4-0.4-0.9,0-0.8,0.5c0.1,0.3,0.1,0.6,0.1,0.9c-0.3-0.2-0.6-0.4-1-0.5&#10;&#9;&#9;c-0.5-0.1-0.9,0.5-0.5,0.8c0,0-0.1,0.1-0.2,0.3l-1.1-1.1c-0.4-0.4-0.9,0.1-0.8,0.5c-0.2,0-0.4,0.2-0.4,0.5v1.5&#10;&#9;&#9;c-0.2,0.1-0.3,0.2-0.5,0.2c-0.1-0.1-0.2-0.1-0.3-0.2c-0.4-0.2-0.8,0.2-0.8,0.6h-4.9c0.1-0.1,0.1-0.2,0.2-0.3&#10;&#9;&#9;c0.8-1.4,1.8-3.2,0.5-4.6c-2.7-2.9-3.4-6.9-4.2-10.7c-0.4-2-1.1-3.8-1.7-5.7c-0.6-2-1-4.1-1.3-6.1c-0.7-3.9-1-7.9-1.5-11.9&#10;&#9;&#9;c-0.2-1.9-0.5-3.8-0.8-5.6c-0.3-2-0.3-4-0.4-6c-0.1-2.7-0.3-5.6-2.1-7.7c-1.4-1.5-3.3-2.5-5-3.5c-2.1-1.2-4-2.4-5.6-4.2&#10;&#9;&#9;c-3.3-3.8-4.8-9-6.8-13.6c-1-2.3-2.3-4.5-3.9-6.4c-1.8-2.2-2.8-4.9-2.9-7.8c-0.1-2.7,0.3-5.5,0.6-8.1c0.2-2.7,0.5-5.5,1.4-8&#10;&#9;&#9;c0.1,0.2,0.3,0.4,0.4,0.6c0,0,0.1,0.1,0.1,0.1c0,0,0-0.1,0-0.1c0.5,0.7,1.1,1.3,1.7,1.8c0.1,0.1,0.3,0,0.3-0.2c0,0,0-0.1,0-0.1&#10;&#9;&#9;c0.4,0.6,0.7,1.2,1.2,1.7c0.1,0.2,0.4,0,0.3-0.2c-0.1-0.2-0.2-0.4-0.2-0.6c0.2,0.2,0.4,0.4,0.6,0.6c0.1,0.1,0.3,0,0.3-0.2&#10;&#9;&#9;c-0.2-0.8-0.7-1.6-1.1-2.3c0.2,0.3,0.4,0.6,0.8,0.9c0.1,0.1,0.3,0,0.3-0.2c-0.3-1-0.9-1.9-1-3c0.4,0.6,0.9,1.2,1.6,1.4&#10;&#9;&#9;c0.1,0,0.3-0.1,0.2-0.2c-0.2-0.6-0.4-1.2-0.6-1.9c0.3,0.4,0.7,0.7,1.1,1c0.1,0.1,0.3,0,0.3-0.2c-0.2-0.7-0.5-1.3-0.7-1.9&#10;&#9;&#9;c0.4,0.3,0.9,0.6,1.4,0.7c0.2,0.1,0.3-0.1,0.2-0.3c-0.2-0.4-0.3-0.9-0.5-1.3c0.2,0.1,0.4,0.3,0.6,0.4c0.2,0.1,0.4-0.1,0.2-0.3&#10;&#9;&#9;c0,0,0,0,0,0l0,0c0,0,0,0,0,0c-0.2-0.2-0.5-0.4-0.7-0.5c-0.2-0.2-0.4-0.4-0.6-0.5c0.4,0.1,0.7,0.2,1.1,0.3c0.2,0.1,0.3-0.2,0.2-0.3&#10;&#9;&#9;c-0.2-0.1-0.4-0.3-0.6-0.5c1.1,0.5,2.1,1,3.3,1.1c0.2,0,0.2-0.1,0.2-0.3c-2.6-6.9-11.8-6.4-17.7-6c-2,0.2-4,0.4-6.1,0.2&#10;&#9;&#9;c-2.8-0.3-5.5-1.1-8.4-1.4c-3-0.3-6-0.3-9-0.4l-9.2-0.4c-4.8-0.2-9.6-0.6-14.4-0.4c-4.5,0.2-9,1.2-13.5,2c-2.2,0.4-4.5,0.7-6.7,0.9&#10;&#9;&#9;c-2.4,0.2-4.8,0-7.1,0.2c-2.4,0.2-4.7,0.4-7-0.1c-1.8-0.3-3.6-0.6-5.5-0.6c-5.3-0.6-9.9-3.9-15.1-4.7c-5-0.8-9.8,1.8-13.9,4.2&#10;&#9;&#9;c-4.6,2.7-10.2,3.1-15.3,2.2c-5.2-0.9-10.4-2.9-14.8-5.7c-0.4-0.2-0.7-0.5-1.1-0.8c0.8-1.5,1.4-3.2,1.3-4.9&#10;&#9;&#9;c-0.1-2.1-1.6-3.5-3.7-3.3c-2.2,0.2-4.5,1.6-6.2,3.1c-0.7-0.5-1.8-0.6-2.5-0.8c-0.1,0-0.3-0.1-0.4-0.1c1.1-2,3.7-3.2,5.8-3.9&#10;&#9;&#9;c3-1.1,6.2-1.7,9.3-2.6c3.2-0.9,6.7-0.9,9.9-1.4c2.5-0.4,6.9-1.3,7.6-4.3c0,0,0-0.1,0-0.1c0.4-0.9,0.8-1.9,1.8-2.1&#10;&#9;&#9;c0.2-0.1,0.2-0.3,0.1-0.3c1.4-0.9,3.2-1.1,4.7-1.4c2.4-0.5,4.8-0.4,7.1-1c2.2-0.6,4.4-1.5,6.4-2.4c1.9-0.9,3.8-1.7,5.5-3&#10;&#9;&#9;c2.7-2.1,4.6-4.9,5.1-8.2c0.3-1.8,0.8-5.5-1.3-6.5c-0.1-0.1-0.3,0.1-0.2,0.2c0.1,0.3,0,0.5,0,0.9c-0.1,0.6-0.1,1.3-0.1,1.9&#10;&#9;&#9;c0,0.7,0,1.3-0.1,2c-0.2,1-0.8,1.9-1.3,2.7c-1.8,2.9-4,5.1-7,6.6c-3.1,1.6-6.3,3-9.7,4c-2.9,0.9-5.9,0.7-8.8,1.5&#10;&#9;&#9;c0.2-3.1-0.1-6.8,2.4-9c1.3-1.2,3-1.8,4.3-3c1.4-1.3,2.8-2.6,4.1-4.1c1.2-1.4,2.3-3,3.4-4.5c1.2-1.5,2.5-2.8,4-4&#10;&#9;&#9;c2.6-2,5.4-3.7,6.9-6.7c0.1-0.1-0.1-0.2-0.2-0.2c-2.9-0.5-5.5,2.1-8,3.1c0.4-2.6,1.3-5.2,1.4-7.8c0-0.1-0.1-0.2-0.3-0.2&#10;&#9;&#9;c-1.2,0.6-1.8,2.2-2.2,3.4c-0.6,1.7-0.9,3.6-1.6,5.3c-1.4,3.5-4.7,6-6.6,9.1c-1.3,2.2-2.6,4.6-4.6,6.2c-1.1,0.8-2.5,1.2-3.5,0.1&#10;&#9;&#9;c-0.8-0.9-1.3-2.3-1.7-3.5c1.2-3.7,5.5-5.9,8.5-8.1c1.7-1.3,3.5-2.7,4.5-4.6c1.1-2,0.9-4.3,0.2-6.3c-0.1-0.2-0.4-0.1-0.4,0.1&#10;&#9;&#9;c0.1,4.1-3.1,6.5-6.1,8.6c-2.9,2-6.2,3.9-7.6,7.2c0-3.7-0.4-7.3,0.5-10.9c0.8-3.2,2.8-5.9,3.4-9.2c0-0.1-0.2-0.2-0.3-0.2&#10;&#9;&#9;c-0.7,0.4-1.3,0.9-2,1.4c0-0.6,0-1.1-0.1-1.7c0-0.2-0.3-0.2-0.4,0c-0.9,3.1-3,5.8-4.5,8.6c-1.1-1.4-1.8-3.2-1.5-5&#10;&#9;&#9;c0.2-1.1,0.4-2.3-0.6-3c-0.1-0.1-0.3,0-0.3,0.2c0.1,1.3-0.3,4.3-1.9,4.7c0.1-3.9,0.7-7.7,2-11.4c0-0.1-0.1-0.3-0.3-0.2&#10;&#9;&#9;c-1.8,1-2.3,2.8-2.9,4.6c-0.9,2.2-1.6,4.5-2.1,6.8c-0.5,2.1-0.8,4.3-0.6,6.5c0.2,2.5,1.3,4.8,2.3,7.1c1.2,2.7,2.1,5.4,2.8,8.2&#10;&#9;&#9;c0.7,2.5,1.6,5,1.6,7.7c0.1,4.6-2.8,8.5-6.8,10.6c-2.7,1.4-5.8,2.1-8.8,2.8c-1.3,0.3-2.5,0.6-3.7,1c-1.5,0.5-3.1,1.1-4.7,1&#10;&#9;&#9;c-0.2,0-0.2,0.1-0.2,0.3c-1.1-0.4-2.2-0.9-3.2-1.7c-1.2-1-2.2-2.2-3.2-3.5c-2-2.7-3.6-6-4.2-9.3c-0.6-3.5,1-7.3,2.7-10.3&#10;&#9;&#9;c2-3.4,4.9-6.4,8.5-8.2c0.2-0.1,0.1-0.3-0.1-0.4c-1.6-0.1-3,0.5-4.4,1.2c1.2-1.3,2.3-2.7,3.3-4.2c0.1-0.1,0-0.3-0.2-0.3&#10;&#9;&#9;c-3.4,0.7-5.8,3.8-7.7,6.5c-2,2.8-4.8,5.6-5.4,9.1c-0.5,1-0.9,2.1-1.6,3c-2.1-1.1-4.8-2.5-5.1-5c0.2-0.5,0.3-1,0.5-1.5&#10;&#9;&#9;c0.8-1.9,2.2-4.2,3.8-5.4c1.4-1.1,3.2-1.1,4.2-2.7c0.1-0.1,0-0.3-0.2-0.3c-1.1,0.1-2.4,0.3-3.4,0.8c0.6-0.7,1.2-1.6,1.5-2.4&#10;&#9;&#9;c0.1-0.1-0.1-0.3-0.2-0.2c-0.9,0.2-1.8,0.3-2.6,0.8c-0.9,0.5-1.7,1.4-2.3,2.2c-1.8,2.2-3,4.8-4.1,7.3c-1,2.3-1.9,4.8-1.7,7.4&#10;&#9;&#9;c0.3,3.6,2.1,6.7,3.1,10.1c-0.1,0-0.2-0.1-0.3-0.1c-0.9-0.2-1.7-0.3-2.5-0.6c-1.9-0.7-3.4-1.9-4.1-3.8c-0.8-2.1-0.8-4.4,0-6.5&#10;&#9;&#9;c0.8-2,2.4-3.6,4-5.1c0.2-0.2-0.1-0.4-0.2-0.3c-1.4,1.2-2.9,2.5-4.6,3.4c1.2-1.8,2.5-3.4,3.5-5.3c0.1-0.2-0.1-0.4-0.2-0.3&#10;&#9;&#9;c-2.7,1.4-4.7,4.2-6.2,6.7c-0.7,1.2-1.3,2.6-1.2,4c0.1,1.4,0.8,2.7,1.7,3.8c1.1,1.5,2.2,2.9,3.6,4.1c1.4,1.3,3,2.4,4.5,3.5&#10;&#9;&#9;c1.5,1.1,2.8,2.2,4.5,3c1.4,0.7,2.9,1.4,4.1,2.5c-2.3-0.4-4.5-1.1-6.6-1.8c-2.1-0.7-4.5-1.4-6.4-2.6c-3.5-2.1-6-6.5-5.6-10.6&#10;&#9;&#9;c0-0.2-0.2-0.3-0.3-0.1c-0.8,1.1-1.1,2.2-0.7,3.5c0.4,1.4,1.2,2.6,1.4,4c0.5,3.8-4.3,2.4-6.4,2c-0.1,0-0.3,0.1-0.2,0.2&#10;&#9;&#9;c0.3,2.5,4.2,2.8,6,3.2c3.8,0.7,7.1,2.9,11,3.6c2.5,0.5,4.9,1,7.3,1.7c1.3,0.4,2.7,0.8,3.9,1.4c0.5,0.2,1.3,0.6,1.8,1.2&#10;&#9;&#9;c-4.9,2.4-9.8,4.7-14.9,6.7c-5,1.9-10.2,3.7-15.3,5.2c-3.1,0.9-7,2.4-6.6,6.2c0.2,1.9,1.2,3.6,2.2,5.1c0.9,1.4,1.9,2.6,2.9,3.9&#10;&#9;&#9;c0,0,0,0.1,0.1,0.1c0,0,0,0,0,0c0,0.1,0.1,0.1,0.1,0.2c0.1,0.1,0.1,0.1,0.2,0c3.7,2.4,8.6,1.4,12.8,1.9c5.1,0.7,10.5,1,15.3,3&#10;&#9;&#9;c9.2,4,10,15.3,17,21.5c2.1,1.8,4.5,3.2,6.8,4.8c2.5,1.8,5,3.7,7.5,5.4c1.3,0.9,2.5,1.7,3.8,2.5c1.1,0.7,2.1,1.6,3.2,2.3&#10;&#9;&#9;c1.5,1.1,3.2,1.9,5,1.9c0,0.1,0.1,0.1,0.2,0.1c0.8-0.1,1.5-0.2,2.2-0.3c0.1,0.6,0.1,1.1,0.2,1.7c0.4,4.1,0.2,8.2,0.1,12.3&#10;&#9;&#9;c-0.2,3.8-0.2,7.6,0.2,11.4c0.2,1.8,0.7,3.5,1.1,5.3c0.4,1.9,0.5,3.8,0.5,5.8c0,3.8-0.7,7.5-1.7,11.2c-0.7,2.8-1.5,5.8-3.2,8.2&#10;&#9;&#9;c-0.6,0.9-2.5,3-2.2,4.3h-0.1V352c0-0.4-0.4-0.6-0.7-0.4c-0.2-0.7-0.3-1.3-0.3-2.1c0-0.7-0.9-0.6-1,0c0,0.4-0.1,0.8-0.2,1.1&#10;&#9;&#9;c-0.2-0.2-0.6-0.2-0.8,0.1l-0.2,0.4c-0.1-0.1-0.1-0.1-0.2-0.1c-0.1,0-0.2-0.1-0.3-0.1c0,0,0,0-0.1,0c-0.2-0.6-0.4-1.2-0.9-1.8&#10;&#9;&#9;c-0.2-0.3-0.7-0.1-0.8,0.2c-0.2,0.7-0.6,1.4-1,2.1c-0.2-0.1-0.3-0.2-0.5-0.2c-0.2-0.4-0.5-0.9-0.6-1.3c-0.1-0.6-0.9-0.4-1,0.1&#10;&#9;&#9;c0,0.5-0.1,0.9-0.2,1.4c-0.3-0.8-0.6-1.7-0.8-2.5c-0.2-0.5-1-0.4-1,0.1v2.2c-0.2-0.4-0.4-0.9-0.5-1.3c-0.2-0.5-0.9-0.4-1,0.1&#10;&#9;&#9;c0,0.1,0,0.2,0,0.3c-0.3-2.1-0.4-4.2-0.5-6.3c0-0.6-1-0.6-1,0v6.4l-2.1-3.1c-0.2-0.3-0.5-0.3-0.8-0.1c-0.8,0.7-1.6,0.1-2.3-0.1&#10;&#9;&#9;c-0.1-0.7-0.2-1.5-0.4-2.2c-0.1-0.4-0.7-0.5-0.9-0.1c-0.2,0.3-0.3,0.6-0.5,0.8c0-0.4-0.1-0.7-0.1-1.1c0-0.4-0.4-0.5-0.7-0.4&#10;&#9;&#9;c0-0.5,0.1-0.9,0.2-1.4c0.1-0.5-0.6-0.9-0.9-0.4c-0.2,0.4-0.4,0.7-0.7,1c0.1-0.7,0.1-1.5,0.1-2.3c0-0.6-0.8-0.6-1-0.1&#10;&#9;&#9;c-0.4,1.1-1,2.1-1.7,3c0.2-1.6,0.3-3.2,0.6-4.8c0.1-0.6-0.8-0.9-1-0.3c-0.1,0.2-0.1,0.4-0.2,0.6c0.1-2,0.2-4,0.2-6&#10;&#9;&#9;c0-0.6-0.8-0.7-1-0.1c-0.2,0.7-0.3,1.4-0.5,2.1c-0.2-2-0.4-4-0.6-6c-0.1-0.6-1-0.7-1,0v4.5c-0.3,0-0.6,0.2-0.5,0.6&#10;&#9;&#9;c0.4,1.1,0.2,2.7,0.2,3.9c0,0.1,0,0.1,0,0.2c-0.2-1.1-0.4-2.1-0.5-3.2c0.3-3.2,0.6-6.4,0.9-9.5c0-0.5-0.7-0.7-0.9-0.3&#10;&#9;&#9;c-0.3,0.5-0.5,0.9-0.7,1.4c-0.3-0.2-0.7-0.2-0.8,0.2c-0.2,1.2-0.4,2.5-0.6,3.7c-0.6,2.5-0.9,5-1.1,7.5c-0.3-1-0.6-2-0.9-3v-5.2&#10;&#9;&#9;c0-0.5-0.9-0.7-1-0.1c0,0,0,0.1,0,0.1h0v0c-0.1,0.6-0.2,1.1-0.2,1.7c-0.4-1-0.8-2-1.4-3c-0.2-0.4-0.8-0.3-0.9,0.1&#10;&#9;&#9;c-0.2,1-0.3,2.1-0.3,3.2c-0.3-0.1-0.7,0.1-0.7,0.5c0,0.5-0.1,0.9-0.4,1.2c-0.1,0.1-0.1,0.2-0.1,0.3c-1.5-2.9-3.3-5.7-4.6-8.8&#10;&#9;&#9;c-0.2-0.5-1.1-0.1-0.9,0.4c0.9,2.6,1.8,5.1,2.5,7.7c-0.1,0.2-0.1,0.4,0.1,0.5c0.2,0.7,0.3,1.4,0.5,2.2c-0.2-0.6-0.5-1.1-0.7-1.7&#10;&#9;&#9;c-0.1-0.3-0.4-0.4-0.7-0.3c-0.6-1.3-1.2-2.7-1.6-4.1c-0.2-0.9-0.4-1.7-0.7-2.6c-0.2-0.6-1.1-0.4-1,0.3c0.2,0.9,0.4,1.8,0.7,2.7&#10;&#9;&#9;c0.3,1.2,0.6,2.4,0.8,3.5c0,0,0-0.1-0.1-0.1c-0.2-0.3-0.9-0.3-0.9,0.1c-0.1,1.1-0.8,1.9-1.5,2.7c-0.1,0-0.2,0-0.3-0.1&#10;&#9;&#9;c-0.3-0.3-0.6-0.7-0.9-1c0-0.4-0.1-0.8-0.1-1.2c0.1-0.4,0.2-0.9,0.2-1.3c0-0.2-0.2-0.4-0.4-0.5c0-0.3-0.1-0.7-0.1-1&#10;&#9;&#9;c0-0.6-0.8-0.7-1-0.1c-0.4,0.9-0.9,1.8-1.2,2.8c-0.2-0.4-0.3-0.8-0.3-1.3c-0.1-0.4-0.7-0.5-0.9-0.1c-0.2,0.3-0.3,0.6-0.6,0.8V333&#10;&#9;&#9;c0-0.6-0.8-0.6-1-0.1c-0.2,0.5-0.5,1-0.8,1.4c-0.1-0.2-0.2-0.5-0.2-0.8c1.5-2.6,3.2-5,5.3-7.2c0.4-0.5-0.3-1.2-0.7-0.7&#10;&#9;&#9;c-2.9,2.9-5,6.4-7,10c-0.2-0.5-0.4-0.9-0.7-1.4c-0.2-0.2-0.4-0.3-0.6-0.2c1.4-3.3,3.5-6.3,5.6-9.3c0.4-0.5-0.5-1-0.9-0.5&#10;&#9;&#9;c-2.1,3.1-4.2,6.1-5.7,9.5c-0.3-0.4-0.9-0.2-0.9,0.3v0.8c-0.7-1.1-1.4-2.1-2.2-3.1c0.2-2.7,0.6-5.4,1.2-8.1c0.1-0.6-0.8-0.9-1-0.3&#10;&#9;&#9;c-0.5,2.4-0.9,4.9-1.2,7.3c-0.6-0.7-1.3-1.4-2-2c-0.5-0.4-1.2,0.3-0.7,0.7c0.9,0.9,1.8,1.8,2.6,2.7c0,0.4-0.1,0.7-0.1,1.1&#10;&#9;&#9;c-0.1,0.1-0.2,0.2-0.2,0.4c0,0.4,0,1,0,1.6c-0.2,0.2-0.4,0.3-0.6,0.5c-0.1,0-0.3,0-0.4,0c-0.1-0.7-0.3-1.5-0.5-2.2&#10;&#9;&#9;c-0.2-0.5-0.9-0.4-1,0l0,0c-0.1-0.3-0.3-0.4-0.5-0.3c-0.2-0.3-0.4-0.5-0.5-0.8c-0.2-0.3-0.7-0.3-0.9,0c-0.2,0.3-0.4,1.2-0.7,1.6&#10;&#9;&#9;c-1.9-7.1-5.1-13.7-11.1-18.3c-0.5-0.4-1,0.5-0.5,0.9c2,1.5,3.6,3.2,5,5.2c-0.4-0.3-1,0.2-0.7,0.7c2,3.3,4,6.8,5.6,10.3&#10;&#9;&#9;c-0.3-0.1-0.7,0.1-0.7,0.5c0-0.7-0.9-0.6-1,0v-0.5c0-0.5-0.7-0.7-0.9-0.3c-0.5,0.9-1.1,1.8-1.7,2.6c-1.7-2.6-3.9-4.9-6.6-6.8&#10;&#9;&#9;c-0.5-0.4-1,0.5-0.5,0.9c1.9,1.3,3.5,2.9,4.9,4.7c0,0-0.1,0.1-0.1,0.1c-0.5,0.9-0.9,1.7-1.4,2.6c-0.1-0.4-0.2-0.9-0.2-1.3&#10;&#9;&#9;c0-0.5-0.8-0.7-1-0.1c-0.3,0.9-0.6,1.8-1,2.7c-0.1,0-0.3,0.1-0.4,0.1c-0.1-0.4-0.1-0.7-0.1-1.1c0-0.5-0.9-0.7-1-0.1&#10;&#9;&#9;c-0.1,0.6-0.3,1.1-0.5,1.6c-0.3,0.1-0.6,0.2-1,0.2c-0.7-0.8-1.3-1.8-1.6-2.9c-0.1-0.3-0.4-0.4-0.6-0.3c0,0,0,0,0,0c0,0-0.1,0-0.1,0&#10;&#9;&#9;c0,0-0.1,0-0.1,0.1c0,0,0,0,0,0c0,0-0.1,0.1-0.1,0.1c0,0,0,0,0,0c0,0,0,0.1,0,0.2c0,0,0,0,0,0v2c-0.4-0.7-0.7-1.4-1-2.2&#10;&#9;&#9;c-0.2-0.5-1-0.5-1,0.1c0,0.9-0.1,1.7-0.2,2.6c-0.5-0.2-0.9-0.4-1.4-0.6c-0.2-0.6-0.3-1.2-0.4-1.9c0-0.6-1-0.6-1,0&#10;&#9;&#9;c0,0.5-0.1,1-0.1,1.4c-0.6-0.2-1.2-0.4-1.8-0.6c0-0.3-0.1-0.6-0.1-0.9c0-0.6-1-0.6-1,0c0,0.2,0,0.4,0,0.5c-0.5-0.1-1.1-0.2-1.6-0.4&#10;&#9;&#9;c0.2-1,0.4-2.1,0.6-3c0.1-0.6-0.7-0.9-1-0.3c-0.3,0.9-0.7,1.7-1,2.6c0-0.1,0-0.3,0-0.4c0-0.6-0.8-0.7-1-0.1c-0.5,1.5-0.9,3-1.5,4.4&#10;&#9;&#9;c0.5-2.7,1.1-5.5,1.5-8.2c0.1-0.5-0.7-0.7-0.9-0.3c-1.4,2.6-2.5,5.3-3.4,8.1c-0.1-0.2-0.2-0.5-0.3-0.7c0.1-1.2,0.2-2.3,0.3-3.5&#10;&#9;&#9;c0.2-1.4,0.3-2.8,0.4-4.2c0.1-0.6-0.9-0.6-1,0c-0.1,1.3-0.3,2.7-0.4,4c-0.1,0.8-0.2,1.7-0.3,2.5c-0.2,0.1-0.3,0.2-0.3,0.4&#10;&#9;&#9;c0,0.7-0.2,1.3-0.3,2c-0.1-0.6-0.2-1.1-0.3-1.7c0.2-2.1,0.4-4.2,0.6-6.2c0.1-0.6-0.9-0.6-1,0c-0.1,0.6-0.1,1.1-0.2,1.7&#10;&#9;&#9;c-0.2-2-0.3-4.1-0.3-6.2c0-0.6-1-0.6-1,0V338c-0.3,0-0.5,0.2-0.5,0.5c0,0.4,0.1,0.8,0.2,1.3c0.1,1.1,0.1,2.1,0.1,3.2&#10;&#9;&#9;c-0.1,0-0.2,0-0.2,0c0-0.4,0-0.9-0.1-1.3c-0.1-2.4-0.1-4.7-0.1-7.1c0-4.4,0.1-8.7,0.1-13.1c0-0.5-0.7-0.7-0.9-0.3&#10;&#9;&#9;c-1.9,4.3-2.3,8.8-2.5,13.3c-0.8-2-1.7-3.9-2.6-5.8c-0.2-0.4-0.8-0.3-0.9,0.1c0-0.1-0.1-0.2-0.1-0.2c0-3.2,0.1-6.4,0.1-9.6&#10;&#9;&#9;c0-0.6-1-0.6-1,0c0,2.4-0.1,5-0.2,7.6c-1.2-2.1-2.3-4.2-3.4-6.3c0-0.1-0.1-0.1-0.1-0.2c-0.1-0.6-0.1-1.2-0.1-1.8&#10;&#9;&#9;c1.8-4.1,3.7-8.1,5.8-12.1c0.3-0.6-0.6-1.1-0.9-0.5c-1.8,3.4-3.5,7-5.1,10.5c-0.2-0.4-1-0.4-0.9,0.2c0,0.6,0.1,1.1,0.1,1.7&#10;&#9;&#9;c-2.1,5-3.9,10.1-4.9,15.3c-0.3-0.1-0.7,0.2-0.7,0.6c0.1,0.4,0.2,0.8,0.3,1.3c-0.3,1.5-0.5,3-0.6,4.6c-0.2-0.2-0.3-0.5-0.5-0.7&#10;&#9;&#9;c-0.2-12.1,1.7-24.8,8.2-35c0.3-0.5-0.5-1-0.9-0.5c-6.4,10-8.4,22.3-8.4,34.2c-0.4-0.6-0.8-1.1-1.3-1.7c-0.4-0.5-1.2-0.1-0.9,0.5&#10;&#9;&#9;c0.7,1.1,1.3,2.2,1.8,3.3c0,0.2-0.1,0.3-0.1,0.5c-0.7-1-1.4-2.1-2.2-3c0,0,0,0,0,0c0.6-0.2,0.3-1.2-0.3-1c0,0,0,0-0.1,0&#10;&#9;&#9;c-0.1-0.6-0.2-1.1-0.3-1.7c0-0.2-0.2-0.3-0.4-0.4c-0.2-3.3-0.2-6.6,0.1-9.9c0.2-0.7,0.3-1.3,0.5-2c2.2-7.8,5.4-15.9,11.1-21.7&#10;&#9;&#9;c0.5-0.5-0.3-1.2-0.7-0.7c-4.8,4.9-7.8,11.3-10,17.8c0.9-4.6,2.5-9.1,4.8-13.2c0.3-0.6-0.5-1.1-0.9-0.5c-0.3,0.6-0.7,1.2-1,1.8&#10;&#9;&#9;c-0.2,0-0.5,0.1-0.6,0.3c-3.4,8.7-5.5,17.7-6.6,26.8c-0.1-0.1-0.3-0.2-0.4-0.4c0.1-7.8,0.7-15.5,1-23.3c0-0.6-1-0.6-1,0&#10;&#9;&#9;c-0.3,7.8-0.9,15.6-0.9,23.3c0,0.1-0.1,0.1-0.1,0.2c0,0.5,0,1,0,1.4c0,1.2,0,2.3,0.1,3.5c-0.1,0.2-0.2,0.5-0.3,0.7&#10;&#9;&#9;c-0.2,0.1-0.3,0.2-0.3,0.4c0,0,0,0,0,0c-0.3,0-0.5,0.3-0.5,0.6c-0.1,0.1-0.2,0.2-0.3,0.3c-0.1-1-0.2-1.9-0.2-2.9&#10;&#9;&#9;c0-0.4-0.4-0.6-0.7-0.4c-0.4-2.2-1-4.5-1.7-6.7c-0.9-9.6-0.5-19.3,3.3-28.2c0.3-0.6-0.6-1.1-0.9-0.5c-3.4,7.9-4.2,16.4-3.7,25&#10;&#9;&#9;c-3.9-10.6-10.5-20.4-18-28.6c-0.4-0.5-1.1,0.2-0.7,0.7c8.3,8.9,15.4,19.9,19,31.8c0.2,2.1,0.5,4.1,0.7,6.2&#10;&#9;&#9;c-2.7-9.3-6.8-18-13.5-25.2c-0.4-0.5-1.1,0.2-0.7,0.7c2.9,3.1,5.3,6.5,7.3,10.1c-0.3,0-0.6,0.4-0.4,0.8c1.3,2.7,2.5,5.4,3.4,8.3&#10;&#9;&#9;c-0.2,0-0.4,0.2-0.4,0.5v5.3c-0.6,0.5-1.4,1.2-2.2,1.8c0-0.8,0-1.6,0.2-2.4c0.1-0.5-0.6-0.9-0.9-0.4c-0.2,0.4-0.4,0.8-0.6,1.1&#10;&#9;&#9;c0-0.6,0-1.3,0-1.9c0-0.3-0.3-0.5-0.6-0.5c0-0.1,0-0.3,0.1-0.4c0.1-0.6-0.6-0.9-0.9-0.4c-0.4,0.6-0.8,1.2-1.2,1.8&#10;&#9;&#9;c0.1-0.9,0.1-1.7,0.1-2.6c0-0.5-0.7-0.7-0.9-0.3c-0.3,0.7-0.8,1.3-1.2,1.9c-0.2-0.6-0.3-1.1-0.3-1.3c0-0.1-0.1-0.2-0.2-0.2&#10;&#9;&#9;c0,0,0-0.1,0-0.1c0.3-0.8,0.5-1.6,0.6-2.4c0.1-0.6-0.7-0.9-1-0.3c-0.3,0.8-0.5,1.6-0.6,2.4c-0.2,0.6-0.4,1.1-0.7,1.7&#10;&#9;&#9;c-0.1,0-0.1-0.1-0.2-0.1c0.4-1.4,0.7-2.8,1-4.2c0.1-0.5-0.6-0.9-0.9-0.4c-0.6,1.1-1.3,2.1-2.1,3c-0.2-0.1-0.3-0.3-0.5-0.4v-0.2&#10;&#9;&#9;c0.5-0.8,0.8-1.6,0.9-2.4c0-0.2-0.2-0.4-0.4-0.5c-0.4-0.1-0.6,0.2-0.9,0.4c-0.2,0.2-0.2,0.5,0,0.7c0,0-0.1,0.1-0.1,0.2&#10;&#9;&#9;c-0.2,0-0.4,0-0.5,0.2c-0.1,0.2-0.2,0.4-0.2,0.6c-0.2-0.2-0.4-0.4-0.6-0.6c0.2-4.2,0.1-8.5-0.2-12.7c0-0.5-0.9-0.7-1-0.1&#10;&#9;&#9;c-0.5,2.4-0.6,4.9-0.8,7.3c0,0.6-0.1,1.3-0.1,2c-0.2-4.9-0.1-9.8-0.1-14.7c0-0.7-1-0.6-1,0c-0.3,4.8-0.4,9.7-0.3,14.5&#10;&#9;&#9;c-0.6-0.7-1.1-1.3-1.6-2c-0.3-1.4-0.6-2.8-0.9-4.2c0.1-0.5,0.2-1,0.3-1.5c0.1-0.6,0.4-1.4,0.1-1.9c-0.3-0.6-0.9-0.1-1.1,0.2&#10;&#9;&#9;c-0.4-2.1-0.7-4.2-1.1-6.3c0-0.1,0-0.1-0.1-0.2c0.3-3.5,0.8-7,1.6-10.5c0.1-0.6-0.8-0.9-1-0.3c-1.4,6-1.9,12.2-2,18.3&#10;&#9;&#9;c-1-6-3.1-11.6-4.9-17.4c-0.2-2-0.4-4-0.7-5.9c-0.1-0.6-1.1-0.4-1,0.3c0,0.3,0.1,0.6,0.1,0.9c-0.3-0.1-0.7,0.2-0.6,0.6&#10;&#9;&#9;c0.3,1.5,0.7,2.9,1.2,4.3c0.2,2.5,0.3,5,0.3,7.5c-0.7-1.3-1.3-2.6-2-3.9c-0.9-5-1.1-10-1.5-15c0-0.2-0.2-0.4-0.4-0.5&#10;&#9;&#9;c1.9-7.5,6-14.3,12.6-18.6c0.5-0.4,0-1.2-0.5-0.9c-4.6,3-8,7.3-10.4,12.1c-0.2-0.2-0.7-0.1-0.8,0.2c-1.6,4.1-2.8,8.3-3.5,12.6&#10;&#9;&#9;c0-1.3,0-2.6-0.1-3.9c1.3-4,3.1-8,5-11.6c2.7-5.3,7.4-13.4,14.1-13.9c0.6,0,0.6-1,0-1c-6.6,0.5-11.1,7.7-14.1,12.8&#10;&#9;&#9;c-1.6,2.8-3.1,5.8-4.4,8.9c2.5-8.2,6.9-15.8,12.3-22.4c0.4-0.5-0.3-1.2-0.7-0.7c-5.5,6.6-9.9,14.4-12.4,22.6c0-0.8-0.1-1.7-0.2-2.5&#10;&#9;&#9;c0.1-1,0.3-2.1,0.5-3.1c0.1-0.6-0.8-0.9-1-0.3c-0.2,0.9-0.3,1.9-0.4,2.8c-0.1,0.1-0.1,0.2-0.1,0.3c0,0.1,0,0.2,0,0.2&#10;&#9;&#9;c-0.4,3.1-0.5,6.2-0.5,9.3c-0.2-0.5-0.3-1-0.5-1.4c0-3.6,0.1-7.2,0.5-10.8c0.8-3.6,1.6-7.1,2.5-10.7c0.1-0.3-0.1-0.5-0.3-0.6&#10;&#9;&#9;c2.6-7.8,7.9-13.8,15.5-17.1c0.6-0.3,0.1-1.1-0.5-0.9c-7.9,3.4-13.2,9.5-15.9,17.6c-0.2,0.6-0.4,1.2-0.6,1.8&#10;&#9;&#9;c-1.9,3.1-3.1,6.4-3.7,9.8c-0.6,1.2-1.2,2.5-1.8,3.8c1.2-5.3,3.2-10.5,4.8-14.9c0.2-0.5-0.5-0.8-0.8-0.5c-3.4,3.2-5.2,7.5-6.4,11.9&#10;&#9;&#9;c-0.1,0-0.2,0-0.3,0c0.7-7.6,5-14.1,9.5-20.3c0.4-0.5-0.5-1-0.9-0.5c-4.2,5.7-8.2,11.8-9.4,18.6c-0.1-0.5-0.2-1.1-0.3-1.6&#10;&#9;&#9;c1.3-5.5,3-10.9,5.2-16.1c0.2-0.6-0.7-0.9-1-0.3c-1.9,4.6-3.5,9.4-4.7,14.2c-0.3-1.1-0.5-2.1-0.8-3.2c-0.2-0.6-1.1-0.4-1,0.3&#10;&#9;&#9;c0.5,1.7,0.9,3.4,1.3,5.1c-0.2,0.7-0.3,1.4-0.5,2.1c-0.3-2-0.7-4-1.1-6c0.4-3,1.2-6,2.7-8.6c0.3-0.6-0.5-1.1-0.9-0.5&#10;&#9;&#9;c-1.3,2.3-2,4.7-2.5,7.3c-0.3,0-0.6,0.2-0.6,0.6c0.1,0.4,0.2,0.9,0.3,1.3c-0.1,0.9-0.2,1.7-0.3,2.6V253c0-0.6-1-0.6-1,0v34&#10;&#9;&#9;c-0.2,0-0.3,0-0.5,0v66.1v52.1V490h700V369.2v-16.1v-23.9C698.5,329.1,697.1,328.9,695.5,328.8z M161.7,218.8&#10;&#9;&#9;c-1.6-0.3-3-1.2-4.2-2.2c-1.6-1.2-3-2.5-4.3-4c-2.7-3-4.5-6.4-5.4-10.3c-0.4-1.7-0.6-3.5-0.6-5.3c0.8,1.8,1.5,3.6,2.3,5.5&#10;&#9;&#9;c1,2.3,2.4,4.3,3.9,6.3c1.5,1.9,3.2,3.9,5,5.4C159.7,215.2,162,216.9,161.7,218.8z M121.1,322c1,1.4,1.9,2.9,2.6,4.5&#10;&#9;&#9;C122.8,324.9,122,323.4,121.1,322z M693.4,323.1c0.2,1.8,0.2,3.7,0.1,5.5c-0.5,0-1.1-0.1-1.7-0.1&#10;&#9;&#9;C692.5,326.8,692.9,325,693.4,323.1z M689,324.9v3.6c-0.3,0-0.7,0-1,0v-1.2C688.4,326.5,688.7,325.7,689,324.9z M686.2,325.7&#10;&#9;&#9;c0.1,0.8,0.2,1.6,0.3,2.4c0,0.1,0,0.2,0,0.4c-0.4,0-0.9,0-1.3,0C685.6,327.6,685.9,326.7,686.2,325.7z M679.9,328.8&#10;&#9;&#9;c-0.3-3.4-0.7-6.8-1.3-10.2c0.6,2.2,1.7,6.6,2.3,10.1C680.6,328.7,680.2,328.7,679.9,328.8z M685.9,316.5c0,2.1-0.1,4.1,0,6.2&#10;&#9;&#9;c-0.3,1.5-0.8,3-1.3,4.5C685.4,323.6,685.4,320,685.9,316.5z M682.6,287.4c0.6,7.4,0.4,14.8,0.3,22.3&#10;&#9;&#9;C682.4,302.2,682.1,294.8,682.6,287.4z M678.5,307.3c2.8,6.7,2.3,14.3,4.2,21.3c-0.2,0-0.4,0-0.5,0c-0.5-3.3-1.7-6.9-1.8-7.6&#10;&#9;&#9;c-0.8-3.2-1.8-6.3-2.7-9.4C677.8,310.2,678,308.7,678.5,307.3z M673,318.5c1.4,3.5,2.6,7.1,4,10.6c-0.8,0.1-1.7,0.2-2.5,0.3&#10;&#9;&#9;C674.3,325.7,673.6,322.1,673,318.5z M671.2,322.7c0.8,2.3,1.5,4.6,2.2,6.9c-0.6,0.1-1.2,0.2-1.7,0.3&#10;&#9;&#9;C671.6,327.4,671.4,325,671.2,322.7z M663,322.6c0-0.1,0-0.1,0-0.2c0.1,0,0.2,0,0.3-0.1c0.9,2.9,1.9,5.7,2.7,8.6&#10;&#9;&#9;c-1.9,0.5-3.8,1-5.5,1.6L663,322.6z M646.1,324.7c1,4,1.8,8,2.2,12.1c-0.2-0.6-0.4-1.3-0.5-1.9c-0.1-0.6-0.2-1.2-0.2-1.5&#10;&#9;&#9;C647.1,330.4,646.6,327.6,646.1,324.7z M644.1,342.8c-0.2,0-0.3,0-0.5-0.1c0.2-0.3,0.5-0.6,0.7-0.9&#10;&#9;&#9;C644.3,342.2,644.2,342.5,644.1,342.8z M641.8,342.5c-0.3,0-0.6-0.1-0.9-0.1c0.1-0.1,0.2-0.1,0.2-0.2&#10;&#9;&#9;C641.5,341.7,641.7,342,641.8,342.5z M638.7,340.7c0.1,0.5,0.1,0.9,0.2,1.4c-0.4,0-0.7-0.1-1.1-0.1&#10;&#9;&#9;C638.1,341.6,638.4,341.1,638.7,340.7z M628.5,341.5c0.2-0.8,0.4-1.6,0.7-2.4c0,0.2,0,0.3,0,0.5&#10;&#9;&#9;C628.9,340.3,628.7,340.9,628.5,341.5C628.5,341.5,628.5,341.5,628.5,341.5z M629.7,325.9c-0.3,2.9-0.4,5.8-0.5,8.7&#10;&#9;&#9;c0,0.2,0,0.4,0,0.6c-0.2,0.4-0.3,0.8-0.5,1.2c-0.7,1.4-1.4,2.8-2.1,4.2C627.4,335.7,628.4,330.7,629.7,325.9z M625.7,340.6&#10;&#9;&#9;c0,0.3-0.1,0.6-0.1,0.9c0,0-0.1,0-0.1,0C625.5,341.2,625.6,340.9,625.7,340.6z M621.7,337.7c0,0.3,0,0.6,0.1,0.9c0,1-0.1,2-0.1,3&#10;&#9;&#9;c-0.2,0-0.4,0-0.6,0C621.4,340.4,621.5,339.1,621.7,337.7z M523,353.1c-0.1-0.5-0.2-1.1-0.3-1.6c0.3-0.4,0.5-0.9,0.8-1.3&#10;&#9;&#9;c-0.2,0.7-0.4,1.4-0.5,2.2c-0.1,0.3,0.1,0.5,0.3,0.6c0,0.1,0,0.1-0.1,0.2H523z M503.6,353.1c-0.3-1.5-0.6-3-0.9-4.5&#10;&#9;&#9;c0.6,1.5,1.2,3,1.8,4.5H503.6z M499.6,353.1h-0.2c0.1-0.3,0.2-0.6,0.3-1C499.6,352.5,499.6,352.8,499.6,353.1z M506,347.9&#10;&#9;&#9;c-0.7-1.3-1.3-2.5-2-3.8c0.2,0.2,0.5,0.4,0.7,0.5c0.5,0.8,1.1,1.6,1.7,2.4c-0.2,0.1-0.4,0.2-0.4,0.5C506,347.6,506,347.8,506,347.9&#10;&#9;&#9;z M506.2,353.1C506.2,353.1,506.2,353.1,506.2,353.1C506.2,353.1,506.2,353.1,506.2,353.1L506.2,353.1z M507,347.8&#10;&#9;&#9;c0.2,0.2,0.3,0.4,0.5,0.6c0,0,0,0.1,0,0.1c0,0.6-0.1,1.3-0.2,1.9c-0.1-0.2-0.2-0.3-0.3-0.5C507,349.2,507,348.5,507,347.8z&#10;&#9;&#9; M508.1,351.8c0.1-0.3,0.1-0.6,0.2-0.9c0.3,0.8,0.6,1.5,0.8,2.3h-0.2C508.6,352.7,508.3,352.2,508.1,351.8z M512.4,353&#10;&#9;&#9;c0.1,0.1,0.1,0.1,0.2,0.2h-0.2C512.4,353.1,512.4,353,512.4,353z M510.1,353.1c-0.4-1.1-0.8-2.2-1.2-3.3c0.6,0.6,1.1,1.1,1.7,1.6&#10;&#9;&#9;c0.3,0.5,0.5,1.1,0.7,1.7H510.1z M520.4,351.2c0.4-0.6,0.8-1.1,1.1-1.8c0.1,0.6,0.1,1.3,0.2,1.9l-0.8,1.3&#10;&#9;&#9;C520.8,352.1,520.6,351.6,520.4,351.2z M519.9,350.1C519.9,350,519.9,350,519.9,350.1c0.3-1.3,0.8-2.5,1.3-3.7&#10;&#9;&#9;c0,0.4,0.1,0.7,0.1,1.1C520.9,348.4,520.5,349.3,519.9,350.1z M521.8,353.1c0-0.1,0.1-0.2,0.1-0.2c0,0.1,0,0.2,0,0.2H521.8z&#10;&#9;&#9; M524.2,347.3l-1.6,2.7c0-0.1,0-0.3,0-0.4c0.2,0,0.5-0.2,0.5-0.5c0-1.1,0.2-2.1,0.3-3.2C523.6,346.3,523.9,346.8,524.2,347.3z&#10;&#9;&#9; M523.5,344L523.5,344c0.1,0,0.2-0.1,0.3-0.2l1.2,2c-0.1,0.2-0.2,0.3-0.3,0.5C524.3,345.6,523.9,344.8,523.5,344z M525.4,349.4&#10;&#9;&#9;c0.7,1.2,1.4,2.5,2,3.7h-3.1C524.7,351.9,525.1,350.6,525.4,349.4z M525.7,348.1c0.1-0.2,0.1-0.5,0.2-0.7c0.7,1.1,1.3,2.2,2,3.3&#10;&#9;&#9;c0.2,0.5,0.4,1,0.6,1.5c0,0.1,0.1,0.1,0.1,0.2c0.1,0.3,0.2,0.5,0.3,0.8h-0.4C527.7,351.4,526.7,349.7,525.7,348.1z M538.7,349.9&#10;&#9;&#9;c0.1-0.6,0.3-1.2,0.3-0.4c0,0.1,0,0.2,0.1,0.3C538.9,349.8,538.8,349.8,538.7,349.9z M540.2,349.4c0.5-0.6,0.8-1.3,1.2-2&#10;&#9;&#9;c0.3,0.5,0.6,1,0.9,1.4C541.6,349.1,540.9,349.2,540.2,349.4z M543.8,348.6c0.3-0.5,0.5-1,0.8-1.5c0.2,0.4,0.4,0.9,0.6,1.3&#10;&#9;&#9;C544.6,348.5,544.2,348.5,543.8,348.6z M546.9,348.2c0-0.1,0-0.1,0-0.2c0,0.1,0.1,0.1,0.1,0.2C546.9,348.2,546.9,348.2,546.9,348.2&#10;&#9;&#9;z M557.8,348.4c0-0.1,0.1-0.3,0.1-0.4c0.1,0.2,0.3,0.3,0.4,0.5C558.1,348.5,558,348.5,557.8,348.4z M560.3,348.9&#10;&#9;&#9;c0.4-0.3,0.8-0.3,1.2-0.2c0,0,0,0,0,0c0.1,0.3,0.3,0.3,0.5,0.2c0.1,0,0.1,0.1,0.2,0.1c0,0.1,0.1,0.2,0.1,0.3&#10;&#9;&#9;C561.7,349.2,561,349,560.3,348.9z M567.5,351.3c0.2-0.1,0.5-0.2,0.8-0.2c-0.1,0.2-0.1,0.4-0.2,0.6c-0.2-0.1-0.3-0.2-0.5-0.3&#10;&#9;&#9;C567.6,351.4,567.6,351.3,567.5,351.3z M611.7,342.9c0.1-0.1,0.1-0.1,0.2-0.2c0,0,0.1,0.1,0.1,0.1&#10;&#9;&#9;C611.9,342.9,611.8,342.9,611.7,342.9z M620.8,326.1c0.4,2,0.5,4.1,0.6,6.1c-0.4,3.2-0.8,6.4-1.3,9.5c0,0,0,0,0,0&#10;&#9;&#9;C619.7,336.5,618.8,331,620.8,326.1z M617.1,329.5c0,0.7,0,1.3-0.1,2c-0.1,3.5,0.1,7.1,0.4,10.6c-0.1,0-0.2,0-0.4,0&#10;&#9;&#9;c-0.1-0.2-0.1-0.4-0.2-0.6C616.9,337.5,616.9,333.5,617.1,329.5z M615.7,342.3c-0.1,0-0.1,0-0.2,0c-0.1-0.5-0.3-1-0.4-1.4&#10;&#9;&#9;C615.3,341.3,615.5,341.8,615.7,342.3z M609.9,330.7c0.9,1.4,1.8,2.8,2.6,4.2c0,0.1,0,0.1,0,0.2c0.5,2.5,1.3,4.9,2,7.3&#10;&#9;&#9;c-0.2,0-0.5,0.1-0.7,0.1C612.7,338.6,611.5,334.6,609.9,330.7z M608.2,336.1c1.4,1.1,2.4,2.4,3.3,3.9c0.2,0.5,0.3,1,0.5,1.5&#10;&#9;&#9;c-0.1,0-0.2,0-0.3,0.1c-0.5,0.4-0.9,0.7-1.3,1.1c-0.4-0.4-0.6-1.1-0.9-1.5C608.9,339.6,608.4,337.9,608.2,336.1z M606.5,342.2&#10;&#9;&#9;l0.8,1.6c-0.5,0.1-0.9,0.2-1.4,0.3c0,0,0,0,0,0C606.1,343.5,606.3,342.8,606.5,342.2z M605.2,344.4c-0.3,0.1-0.6,0.2-0.9,0.2&#10;&#9;&#9;c0.1-0.3,0.1-0.7,0.2-1C604.6,343.9,604.9,344.2,605.2,344.4z M602,344.8c0-0.8,0.4-0.3,0.7,0.3c-0.3,0.1-0.5,0.2-0.8,0.3&#10;&#9;&#9;C602,345.2,602,345,602,344.8z M600.1,346c-0.2,0.1-0.3,0.1-0.5,0.2c0-0.2,0-0.4,0.1-0.6C599.8,345.7,600,345.9,600.1,346z&#10;&#9;&#9; M597.6,346.9C597.6,346.9,597.7,346.9,597.6,346.9C597.7,346.9,597.6,346.9,597.6,346.9C597.6,346.9,597.6,346.9,597.6,346.9z&#10;&#9;&#9; M583.7,317.9c0.1,0.1,0.3,0,0.3-0.1c0-0.2,0.1-0.5,0.1-0.7c2.5,4.6,2.7,10.1,2.3,15.2c-0.5,5.1-1.8,10.4-4.1,15c0,0,0,0,0,0&#10;&#9;&#9;C582.2,337.5,582.6,327.7,583.7,317.9z M514.9,303.4c0.1,0,0.2-0.1,0.3-0.1c1-0.1,2,0.2,3.1,0.5c-1.2-0.1-2.4-0.2-3.5-0.3&#10;&#9;&#9;C514.8,303.4,514.8,303.4,514.9,303.4z M514.1,303.7c0.7,0.1,1.4,0.2,2.2,0.2c1.1,0.1,2.2,0.2,3.3,0.5c2.3,0.5,4.5,1,6.8,1.4&#10;&#9;&#9;c2.2,0.4,4.5,0.5,6.7,0.5c2.2-0.1,4.5-0.5,6.7-0.9c2.3-0.4,4.6-0.7,7-0.9c1.6-0.2,3.2-0.4,4.7-1c1.4-0.5,2.7-1.2,3.8-2.1&#10;&#9;&#9;c0.7-0.5,1.3-1.1,1.9-1.8c0.2-0.2,0.4-0.4,0.6-0.7c0,0.1,0,0.1,0.1,0.2c0,0,0,0,0,0c2.2,1.4,4.3,2.9,6.1,4.9&#10;&#9;&#9;c1.6,1.7,3.5,3.1,5.3,4.7c1.8,1.5,3.6,3.2,4.8,5.2c1.2,2,1.8,4.3,2.3,6.5c1.1,4.9,1.2,9.9,1.1,14.9c0,2.3-0.1,4.6-0.1,6.8&#10;&#9;&#9;c-0.1,2.4-0.6,4.8-1.9,6.8c-1,1.5-2.4,2.2-3.8,3.2c-0.2-0.4-0.4-0.7-0.7-1V345c0-0.5-0.9-0.7-1-0.1c0,0,0,0.1,0,0.1c0,0,0,0,0,0v0&#10;&#9;&#9;c0,0.1,0,0.2,0,0.4c-0.2-0.5-1-0.5-1,0.1c0,1.2-0.1,2.3-0.2,3.4c-0.6-1.7-1.2-3.4-1.8-5.1c-0.2-0.6-1.2-0.3-1,0.3&#10;&#9;&#9;c0.7,2,1.4,3.9,2.1,5.9c-0.3,0-0.6,0.1-0.9,0.3c-0.8-2.4-1.7-4.9-2.2-7.4c-0.1-0.6-1.1-0.4-1,0.3c0.6,2.6,1.4,5.1,2.3,7.6&#10;&#9;&#9;c0,0,0,0,0,0c-0.4-0.2-0.8-0.4-1.3-0.5c0,0,0,0,0-0.1c-0.5-1.5-0.7-3.2-1-4.8c-0.1-0.6-1-0.4-1,0.1c0,1,0.1,2.1,0.2,3.1&#10;&#9;&#9;c0,0,0,0,0,0c-0.9-2.4-1.8-4.8-2.7-7.2c-0.2-0.6-1.2-0.3-1,0.3c0.4,1.1,0.9,2.3,1.3,3.4c-0.2,0.1-0.4,0.4-0.2,0.7&#10;&#9;&#9;c0.3,0.6,0.4,1.2,0.6,1.9c-0.8-0.2-1.2,0-1.7,0.7c-0.6-0.5-1-1.2-1.7-1.7c-0.3-0.2-0.7,0.1-0.8,0.4c0,0.3,0,0.6-0.1,1&#10;&#9;&#9;c-0.1-0.2-0.3-0.5-0.5-0.7c-0.2-0.2-0.4-0.3-0.7-0.2c-0.4,0.2-0.5,0.4-0.7,0.8c-0.1,0.3-1.6-1.2-1.8-1.3c-0.4-0.3-0.8,0.2-0.7,0.6&#10;&#9;&#9;c0,0.3,0.1,0.6,0.2,0.9c-0.1,0-0.1,0-0.2,0c-0.4-0.4-0.8-0.9-1.2-1.3c-0.3-0.3-0.9-0.1-0.9,0.4v0.4c-0.2-0.3-0.5-0.6-0.6-0.8&#10;&#9;&#9;c-0.3-0.3-0.7-0.1-0.8,0.2c-0.2,0.4-0.3,0.8-0.3,1.2c-0.2,0-0.4,0-0.6,0c-0.2-0.4-0.4-0.9-0.6-1.3c-0.1-0.2-0.5-0.3-0.7-0.2&#10;&#9;&#9;c-0.5,0.3-0.5,1-0.7,1.5c-0.4-0.8-0.6-1.6-1.1-2.4c-0.2-0.3-0.7-0.4-0.9,0l-1.1,2.3c-0.4-0.6-0.7-1.2-1-1.8&#10;&#9;&#9;c-0.1-0.3-0.6-0.4-0.8-0.1c-0.5,0.7-0.9,1.4-1.3,2.1c-0.1-0.2-0.3-0.5-0.6-0.6c-0.2-0.1-0.4-0.1-0.6,0.1c-0.8,0.6-0.8,1.4-1,2.2&#10;&#9;&#9;c-0.5-0.3-0.9-0.7-1.5-0.8c-0.2,0-0.4,0-0.5,0.2c-0.1-1-0.2-2.1-0.3-3.1c0-2.4-0.1-4.7-0.4-7c0,0,0,0,0,0c0,0,0,0,0,0&#10;&#9;&#9;c0,0,0-0.1,0-0.1c-0.1-0.6-1-0.4-1,0.1c0,2.5,0.2,5,0.4,7.5c0,0.2,0,0.5,0,0.7c-0.1-0.1-0.3-0.2-0.5-0.2c-0.3-1.7-0.6-3.4-1-5.2&#10;&#9;&#9;c-0.1-0.5-1-0.4-1,0.1c0.4,3.5,1,7,1.3,10.5c-0.1,0.1-0.2,0.2-0.4,0.3c-0.5-1-0.9-1.9-1.2-2.9c-0.1-0.8-0.3-1.6-0.4-2.5&#10;&#9;&#9;c0.1-0.1,0.2-0.2,0.2-0.4c-0.1-1.3-0.4-2.6-0.5-4c0-0.6-1-0.6-1,0c0,0.7,0,1.3,0.1,2c-0.3,0-0.6,0.2-0.6,0.6&#10;&#9;&#9;c0.2,1.5,0.6,2.9,1.1,4.2c0.2,0.8,0.3,1.5,0.5,2.3c-0.3-0.6-0.6-1.2-0.9-1.8c-0.4-1.7-1.2-3.2-2.2-4.7c-0.1-0.1-0.2-0.2-0.3-0.2&#10;&#9;&#9;c-0.3-0.5-0.6-1-0.9-1.5c0.1-0.5,0.2-0.9,0.3-1.4c0.1-0.6-0.8-0.9-1-0.3c0,0.1-0.1,0.3-0.1,0.4c-0.3-0.5-1-0.2-0.9,0.4&#10;&#9;&#9;c0.1,0.3,0.2,0.6,0.2,0.9c0,0-0.1,0-0.1,0.1c-0.6-1-1.2-1.9-1.7-2.9c-0.3-0.6-1.2,0-0.9,0.5c0,0,0,0.1,0,0.1&#10;&#9;&#9;c-0.1-0.1-0.2-0.2-0.4-0.3c-0.3-0.2-0.9,0.2-0.7,0.6c0.3,0.7,0.6,1.3,0.9,2c-0.1,0.4-0.2,0.8-0.3,1.2c0-0.3-0.1-0.5-0.1-0.8&#10;&#9;&#9;c-0.1-0.4-0.7-0.8-0.9-0.3c-0.2,0.4-0.4,0.8-0.6,1.3c0-0.5-0.7-0.8-0.9-0.3c0,0,0,0.1,0,0.1c0,0,0,0,0,0c0,0,0,0,0,0&#10;&#9;&#9;c-0.3,0.7-0.5,1.4-0.7,2.1c-0.1-0.3-0.2-0.6-0.3-0.8c-1.1-2.8-2-5.6-2.3-8.6c-0.3-2.9-0.3-5.9-0.2-8.9c0-8.5-0.6-17.1-2-25.5&#10;&#9;&#9;C514,303.7,514,303.7,514.1,303.7z M490.6,346.5c0-2.4,0-4.7,0.1-7.1c0.1-2.6,0.1-5.2,0.4-7.8c0.3-2.4,0.9-4.8,1.3-7.2&#10;&#9;&#9;c0.4-2.5,0.5-5,0.6-7.5c0.1-2.5,0.3-5,0.7-7.5c0.3-1.9,1.1-3.8,0.6-5.7c3-0.1,5.9,0.3,8.8,0.5c-1.4,3.8,1.6,7.6,3.3,10.7&#10;&#9;&#9;c1.3,2.5,1.6,5.1,1.6,7.9c0.1,2.8,0.3,5.4,1,8.1c1.3,5.2,3.5,10.2,4.6,15.5c0.3,1.4,0.5,2.8,0.5,4.2c-1.4-1.3-2.8-2.6-4.3-3.8&#10;&#9;&#9;c-0.1-0.1-0.2-0.2-0.3-0.4c-0.1-0.1-0.2-0.1-0.3-0.1c-1.4-1.1-2.8-2.3-4.2-3.4c-0.2-0.2-0.4-0.1-0.6,0c-0.5-0.4-1-0.7-1.5-1&#10;&#9;&#9;c-0.4-0.3-0.9,0.3-0.7,0.7c1.2,2.3,2.5,4.6,3.7,6.9c-0.1,1-0.2,2-0.5,2.9c-1.2-3.3-2.7-6.5-3.8-9.7c-0.2-0.6-1.2-0.3-1,0.3&#10;&#9;&#9;c0.5,1.5,1.1,3,1.7,4.5c-0.3-0.2-0.7-0.1-0.7,0.3c-0.3,1.8-0.5,3.5-0.8,5.3h-0.1c0.1-2.2,0.2-4.4,0.4-6.6c0.1-0.6-0.8-0.7-1-0.1&#10;&#9;&#9;c-0.6,2.3-1.1,4.5-1.7,6.8h-0.7c0.2-2.2,0.6-4.3,0.9-6.5c0.1-0.6-0.6-0.8-0.9-0.4c-1,1.3-1.7,2.6-2.3,4c0.2-4.3,0.2-8.5,1.7-12.6&#10;&#9;&#9;c0.2-0.6-0.7-0.9-1-0.3c-0.7,1.9-1.5,3.9-2.1,5.8c-0.3-0.3-0.9-0.2-0.9,0.3c0,1-0.1,2-0.2,3c-0.7,2.2-1.2,4.4-1.6,6.6h-0.3&#10;&#9;&#9;C490.7,350.9,490.6,348.7,490.6,346.5z M502.6,353.1h-0.9c0.2-0.8,0.3-1.7,0.4-2.5C502.3,351.4,502.4,352.3,502.6,353.1z&#10;&#9;&#9; M493.9,353.1c-0.1-2.4,0-4.8,0-7.1c0.2-0.7,0.5-1.4,0.7-2.1c-0.3,3.1-0.3,6.1-0.5,9.2H493.9z M496.6,353.1h-1.3&#10;&#9;&#9;c0.5-1.5,1.1-3,1.9-4.4C496.9,350.2,496.7,351.7,496.6,353.1z M469.7,347c-0.1,0-0.1-0.1-0.2-0.1c0.1-0.1,0.2-0.3,0.2-0.4&#10;&#9;&#9;C469.7,346.6,469.7,346.8,469.7,347z M476.8,349.7c0,0.3,0.1,0.5,0.1,0.8c-0.1-0.1-0.2-0.1-0.3-0.2&#10;&#9;&#9;C476.7,350.1,476.8,349.9,476.8,349.7z M473.2,348.4c0,0-0.1,0-0.1-0.1c0.1-0.2,0.2-0.4,0.3-0.6C473.3,348,473.3,348.2,473.2,348.4&#10;&#9;&#9;z M471.7,343.5l0.1,0.9c-0.4,1-0.7,2-1,3c-0.1,0-0.1-0.1-0.2-0.1c0-0.8,0.1-1.6,0.1-2.4C471.1,344.4,471.4,344,471.7,343.5z&#10;&#9;&#9; M469.9,342.8c0,0.6-0.1,1.2-0.1,1.8c-0.4,0.5-0.7,1-1.1,1.5c0-0.1,0-0.2-0.1-0.3C469.2,345.1,469.6,343.9,469.9,342.8z&#10;&#9;&#9; M467.4,342.9c0,0.4,0.1,0.8,0.1,1.1c-0.1,0.3-0.2,0.6-0.4,0.9c-0.3,0-0.7,0.3-0.5,0.8c0,0.1,0.1,0.1,0.1,0.2&#10;&#9;&#9;c-0.1,0-0.2-0.1-0.3-0.1C466.7,344.9,467,343.9,467.4,342.9z M460.9,344.3c0.1-0.4,0.2-0.9,0.3-1.3c0.1,0.3,0.2,0.6,0.4,0.9&#10;&#9;&#9;c0,0.2-0.1,0.4-0.2,0.6C461.3,344.4,461.1,344.4,460.9,344.3z M461.5,335.8c0.1,0.4,0.3,0.8,0.4,1.2c-0.1,0-0.2,0.1-0.3,0.2&#10;&#9;&#9;l-0.3,0.4c-0.1-0.1-0.2-0.3-0.3-0.4C461.1,336.8,461.3,336.3,461.5,335.8z M459.5,338.9c-0.1,0.4-0.2,0.7-0.2,1.1&#10;&#9;&#9;c-0.1-0.1-0.1-0.2-0.2-0.3c0-0.5,0-1-0.1-1.6C459.2,338.4,459.3,338.7,459.5,338.9z M434.9,333c-0.2,0-0.5,0-0.7,0.1&#10;&#9;&#9;c0.2-0.2,0.4-0.4,0.6-0.6C434.9,332.6,434.9,332.8,434.9,333z M431.2,331.6c-0.2,0.6-0.3,1.3-0.4,1.9c0,0,0,0,0,0&#10;&#9;&#9;c-0.1-0.2-0.1-0.5-0.2-0.7C430.8,332.4,431,332,431.2,331.6z M428.8,333.9c-0.3,0.1-0.7,0.2-1,0.3c-0.2-0.8-0.3-1.5-0.5-2.3&#10;&#9;&#9;C427.8,332.6,428.3,333.2,428.8,333.9z M426.5,334c0-0.3,0-0.6,0.1-0.9c0.1,0.5,0.2,0.9,0.3,1.4c-0.2,0-0.3,0.1-0.5,0.1&#10;&#9;&#9;c0-0.1,0-0.3,0-0.4C426.5,334.1,426.5,334.1,426.5,334z M424.6,332.5c0.3,0.5,0.6,1,0.9,1.5c0,0.3,0,0.6,0,0.9&#10;&#9;&#9;c-0.4,0.1-0.8,0.3-1.2,0.5C424.4,334.4,424.5,333.5,424.6,332.5z M420.3,337.6c-0.1,0.1-0.2,0.2-0.4,0.3c-0.2-0.3-0.3-0.7-0.5-1&#10;&#9;&#9;c0-0.3,0-0.5,0-0.8C419.7,336.5,420,337,420.3,337.6z M410.6,336.9c0.3-0.6,0.6-1.1,1-1.7c-0.3,1.4-0.5,2.9-0.8,4.3&#10;&#9;&#9;c-0.1,0.2-0.3,0.3-0.4,0.5C410.5,338.9,410.5,337.9,410.6,336.9z M405.6,343c0.1,0,0.1,0,0.2-0.1c0.2,0.1,0.4,0.1,0.6-0.1&#10;&#9;&#9;c0.5-0.5,1-1,1.4-1.5c-0.1,0.6-0.2,1.2-0.4,1.9c-0.2,0-0.3,0.1-0.5,0.1c-0.2-0.4-0.8-0.3-0.9,0.2c-0.1,0-0.2,0-0.4,0.1&#10;&#9;&#9;c0-0.1-0.1-0.2-0.1-0.3C405.6,343.1,405.6,343,405.6,343z M403.8,339.7c0.1,1.4,0.2,2.7,0.3,4.1c-0.2,0-0.4,0.1-0.6,0.1&#10;&#9;&#9;c0-1.7-0.1-3.5-0.2-5.2C403.4,339.1,403.6,339.4,403.8,339.7z M402.3,340.2c0,0.6,0.1,1.2,0.1,1.8c-0.1-0.3-0.3-0.6-0.5-0.9&#10;&#9;&#9;C402.1,340.9,402.2,340.5,402.3,340.2z M401,343.7c0.1,0.2,0.2,0.5,0.2,0.7c0,0-0.1,0-0.1,0c-0.1-0.2-0.1-0.4-0.2-0.7&#10;&#9;&#9;C401,343.8,401,343.7,401,343.7z M399.3,343.6c-0.5-0.4-0.9-0.7-1.4-1.1c-0.3-1.1-0.5-2.2-0.5-3.3&#10;&#9;&#9;C398,340.7,398.6,342.2,399.3,343.6z M396.1,340.7c-0.1-0.4-0.2-0.8-0.3-1.2c0.2-0.1,0.4-0.3,0.3-0.6c-1.2-3.3-2.4-6.5-3.4-9.9&#10;&#9;&#9;c0.9,1.2,1.8,2.4,2.5,3.7c-0.1,0.1-0.2,0.3-0.1,0.5c0.4,1.3,0.9,2.6,1.4,3.9c-0.2,1.5-0.1,3,0.2,4.5c-0.1-0.1-0.2-0.2-0.3-0.3&#10;&#9;&#9;c0,0,0,0-0.1,0C396.2,341,396.1,340.8,396.1,340.7z M398.1,345c0.3-0.1,0.5-0.3,0.4-0.6c0-0.1,0-0.1-0.1-0.2&#10;&#9;&#9;c0.3,0.2,0.6,0.5,0.8,0.7c-0.3,0.1-0.7,0.2-1,0.3C398.2,345.1,398.2,345,398.1,345z M391.9,346.5c-0.2,0.2-0.3,0.4-0.5,0.6&#10;&#9;&#9;c-0.6-0.6-1.2-1.2-1.8-1.8C390.4,345.7,391.2,346.1,391.9,346.5z M393.7,345.4c0.3,0.3,0.7,0.6,1,0.9c-0.1,0-0.2,0.1-0.3,0.1&#10;&#9;&#9;C394.1,346.1,393.9,345.7,393.7,345.4z M376.7,350.7C376.7,350.7,376.7,350.7,376.7,350.7C376.7,350.7,376.7,350.7,376.7,350.7&#10;&#9;&#9;L376.7,350.7z M311.4,317.3c1.9-3.6,3.9-7.1,5.8-10.7c1.3-2.4,2.3-4.8,2.1-7.5c-0.3-4.9-4.8-8.4-7.4-11.9c-0.3-0.4-0.6-0.8-0.9-1.3&#10;&#9;&#9;c3.9,2.5,8.1,4.5,12.2,6.5c3.4,1.7,6.6,3.5,9.8,5.6c2.8,1.9,5.8,3.7,8.5,5.8c3,2.4,4.6,5.8,6.2,9.4c1.6,3.7,3,7.5,4.1,11.4&#10;&#9;&#9;c1,3.6,1.8,7.3,2.4,11c0.7,3.8,1.2,7.6,1.2,11.4c0,2-0.2,4.1-0.7,6h-1.2c0.1-0.3,0.2-0.6,0.3-0.9c0.2-0.5-0.3-1-0.8-0.6&#10;&#9;&#9;c0,0,0,0-0.1,0c0-0.1-0.1-0.3-0.2-0.4c-0.1-0.2-0.5-0.3-0.7-0.2c-0.6,0.4-1.2,2.1-1.2,0.4c0-0.5-0.7-0.7-0.9-0.3&#10;&#9;&#9;c-0.2,0.4-0.4,0.8-0.5,1.1c-0.1-0.8-0.1-1.6-0.1-2.4c0-0.6-0.8-0.7-1-0.1c-0.2,0.6-0.3,1.2-0.5,1.8V351c0-0.6-1-0.6-1,0&#10;&#9;&#9;c0,0.5-0.1,1-0.2,1.5c-0.1-0.2-0.2-0.4-0.3-0.7c-0.1-0.3-0.4-0.5-0.7-0.3c-0.1,0-0.1,0.1-0.1,0.1c0-0.1-0.1-0.2-0.1-0.3&#10;&#9;&#9;c0,0,0,0,0,0c0,0,0,0,0,0c0,0,0-0.1,0-0.1c-0.2-0.5-1-0.1-0.9,0.4c0.1,0.3,0.1,0.5,0.1,0.8c0,0-0.1,0.1-0.1,0.1v0&#10;&#9;&#9;c0-0.4-0.4-0.6-0.8-0.4c-0.2,0.1-0.3,0.2-0.4,0.3c-0.3-0.4-0.6-0.7-0.9-1.1c-0.1-0.1-0.1-0.1-0.2-0.2c-0.1-0.2-0.1-0.5-0.2-0.7&#10;&#9;&#9;c-0.2-0.6-1.1-0.4-1,0.3c0,0.1,0.1,0.3,0.1,0.4c-0.1,0-0.3-0.1-0.4,0c0,0,0,0-0.1,0.1c-0.1-0.2-0.2-0.3-0.3-0.5&#10;&#9;&#9;c-0.3-0.4-1,0-0.8,0.5c0.1,0.3,0.2,0.6,0.4,0.9c-0.2,0.3-0.4,0.6-0.6,0.8c-0.2,0-0.4-0.1-0.6-0.1c-0.1-0.6-0.2-1.2-0.2-1.7&#10;&#9;&#9;c0-0.5-0.6-0.6-0.9-0.3c-0.4,0.6-0.9,1.1-1.4,1.6c-0.2,0-0.4,0-0.6-0.1v-0.8c0-0.5-0.5-0.6-0.9-0.4c-0.3,0.3-0.6,0.5-0.9,0.7&#10;&#9;&#9;c-0.3,0-0.6,0-0.9,0c0.1-0.3,0.1-0.6,0.2-0.9c0.1-0.5-0.7-0.6-0.9-0.3c-0.3,0.5-0.7,0.9-1,1.3c-0.3,0-0.6,0-0.9,0&#10;&#9;&#9;c0.1-0.5,0.2-0.9,0.3-1.4c0.2-0.6-0.6-0.8-0.9-0.4c-0.5,0.7-1,1.2-1.6,1.7c-0.3,0-0.6,0-1,0c0-0.1,0-0.3,0-0.4&#10;&#9;&#9;c0-0.3-0.2-0.5-0.5-0.5c0,0,0-0.1,0-0.1c-0.1-0.4-0.6-0.5-0.8-0.2c-0.2,0.2-0.5,0.4-0.7,0.5c-0.2-0.4-0.4-0.7-0.5-0.9&#10;&#9;&#9;c-0.1-0.1-0.2-0.2-0.3-0.2c0.1-1.2,0.2-2.3,0.4-3.4c0.1-0.6-0.9-0.9-1-0.3c-0.2,1.6-0.5,3.4-0.4,5.1c0,0.1,0,0.1-0.1,0.2&#10;&#9;&#9;c-0.1,0.2-0.1,0.3-0.2,0.4c-0.2,0-0.3,0-0.5,0c-0.2-0.8-0.4-1.7-0.6-2.5c0.8-1.8,1.4-3.6,1.8-5.4c0.1-0.6-0.8-0.9-1-0.3&#10;&#9;&#9;c-0.3,1.4-0.7,2.8-1.3,4.2c-0.6-2.2-1.3-4.4-1.8-6.7c-0.1-0.5-1-0.4-1,0.1c0.1,1.1,0.3,2.3,0.5,3.4c0,0,0,0,0,0&#10;&#9;&#9;c-1.8-3.5-3.9-6.8-6.1-10.2c-0.3-0.5-1.2,0-0.9,0.5c2.5,3.9,5.1,7.8,7,12c0.1,1.2,0.2,2.5,0.4,3.7c-0.1,0.1-0.2,0.2-0.3,0.3&#10;&#9;&#9;c-1.6-1.4-3.5-2.4-5.7-2.7l-0.5-0.8c-0.3-0.6-1.2,0-0.9,0.5l0.5,0.8c0,0.1,0.1,0.3,0.2,0.4l2,3.3c-0.1,0-0.3,0-0.4,0&#10;&#9;&#9;c-0.8-0.8-1.7-1.5-2.4-2.5c-0.2-0.3-0.8-0.3-0.9,0.1c0,0.1-0.1,0.3-0.1,0.4c-0.2-0.3-0.6-0.3-0.8-0.1c-0.2,0.2-0.5,0.5-0.7,0.7&#10;&#9;&#9;c-0.7-0.4-1.5-0.8-2.2-1.3c-0.5-0.3-0.9,0.3-0.7,0.7c0.2,0.4,0.4,0.9,0.5,1.3c-0.2-0.1-0.5-0.1-0.7-0.1c-0.6,0.2-0.8,0.6-1,1&#10;&#9;&#9;c-0.9-0.7-2-1.1-3.1-1.9c-0.5-0.4-1,0.5-0.5,0.9c0.5,0.3,0.9,0.6,1.3,0.8c0,0,0,0,0,0l-0.6,0.3c-0.1,0-0.2,0.1-0.3,0.1h-3.1&#10;&#9;&#9;c0.3-0.1,0.5-0.2,0.8-0.4c0,0,0.1-0.1,0.1-0.1c0,0,0-0.1,0.1-0.1c0.3-2.3-2.2-3.2-3.1-4.8c-0.7-1.3,0.8-2.9,1.5-3.9&#10;&#9;&#9;c1-1.4,1.8-2.8,2.6-4.3c1.8-3.5,3.2-7.2,4.8-10.8C307.5,324.7,309.4,321,311.4,317.3z M324.2,353.1c0,0,0-0.1,0-0.1&#10;&#9;&#9;c0.2,0,0.4,0,0.7,0c0.1,0,0.2,0,0.2,0c0,0,0.1,0.1,0.1,0.2H324.2z M308,351.7c0.3,0.1,0.5,0.3,0.8,0.4c-0.1,0.2-0.3,0.4-0.4,0.5&#10;&#9;&#9;C308.2,352.3,308.1,352,308,351.7z M309.2,353.1c0.1-0.2,0.3-0.3,0.4-0.5c0.2,0.1,0.4,0.3,0.6,0.5c-0.3,0-0.6,0-0.9,0H309.2z&#10;&#9;&#9; M311.7,352c0-0.1,0-0.3,0.1-0.4c0.4,0.5,0.9,0.9,1.3,1.3c-0.2,0-0.4,0-0.6,0.1C312.2,352.6,311.9,352.3,311.7,352z M315.4,351.8&#10;&#9;&#9;l-1.3-2.1c1.6,0.4,3,1.2,4.2,2.2c-0.4,0.2-0.7,0.3-0.9,0.1c-0.4-0.5-0.7-0.8-1.3-1c-0.2-0.1-0.6,0.1-0.6,0.3&#10;&#9;&#9;C315.5,351.5,315.4,351.7,315.4,351.8z M276.5,353.1c0.1-0.5,0.2-1,0.3-1.5c0.1,0.3,0.2,0.7,0.3,1c0.1,0.4,0.7,0.5,0.9,0.1&#10;&#9;&#9;c0-0.1,0.1-0.2,0.1-0.3c0.1,0.2,0.2,0.4,0.3,0.6H276.5z M54.6,341c0-0.1,0-0.2,0-0.4c0-0.2,0-0.3,0.1-0.5c0.1,0.1,0.2,0.3,0.3,0.4&#10;&#9;&#9;c0.1,0.2,0.3,0.5,0.4,0.7C55.2,341.2,54.9,341.1,54.6,341z M72,342.4c0.1-0.8,0.3-1.5,0.3-2.3c0.1,0.3,0.2,0.5,0.3,0.8&#10;&#9;&#9;c0.1,0.4,0.3,0.8,0.4,1.1c-0.2,0-0.3,0-0.5-0.1C72.2,342,72,342.2,72,342.4C72,342.4,72,342.4,72,342.4z M72.9,343.7&#10;&#9;&#9;c0.2,0,0.5,0.1,0.7,0.1c0,0,0.1,0.1,0.1,0.1c-0.2,0-0.5,0-0.7,0C73,343.8,72.9,343.8,72.9,343.7z M74.8,339.6&#10;&#9;&#9;c0-0.4,0.1-0.7,0.1-1.1c0.1,0.1,0.1,0.2,0.2,0.3c0.2,0.7,0.3,1.4,0.5,2.1c-0.2-0.4-0.4-0.8-0.7-1.2&#10;&#9;&#9;C74.9,339.7,74.9,339.6,74.8,339.6z M81,343.6L81,343.6C81,343.7,81,343.7,81,343.6C81,343.7,81,343.7,81,343.6&#10;&#9;&#9;C81,343.7,81,343.7,81,343.6z M80.6,342.6c-0.5-1.5-1.1-3-1.8-4.5c-0.1-1.6-0.2-3.3-0.4-4.9C79.2,336.4,80,339.5,80.6,342.6&#10;&#9;&#9;C80.7,342.6,80.7,342.6,80.6,342.6z M79.5,343.6c0.1,0,0.3,0,0.4,0c0,0.1,0,0.1,0,0.2c-0.1,0-0.3,0-0.5,0&#10;&#9;&#9;C79.5,343.7,79.5,343.7,79.5,343.6z M240.8,341.1c-0.5-1.9-1-3.7-1.7-5.5c1.2,1.6,2.4,3.2,3.6,4.8c0,0.1,0.1,0.2,0.1,0.2&#10;&#9;&#9;c-0.5,0.6-0.9,1.1-1.5,1.6C241.3,341.8,241.1,341.4,240.8,341.1z M242,342.9c0.4-0.4,0.8-0.8,1.1-1.2c0.1,0.3,0.2,0.6,0.4,0.9&#10;&#9;&#9;c0,0.1,0,0.3,0,0.4c0,0,0,0.1,0,0.1c-0.5,0-1,0-1.5,0C242,343.1,242,343,242,342.9z M248.9,341.7c0,0,0-0.1,0.1-0.1&#10;&#9;&#9;c0.2-0.4-0.3-0.7-0.6-0.6c-0.1-0.2-0.3-0.5-0.4-0.7c-0.1-0.2-0.2-0.4-0.4-0.6c0.1-1.3,0.2-2.5,0.5-3.8c0.6,2.3,1,4.6,1.3,6.9&#10;&#9;&#9;c-0.2-0.3-0.4-0.7-0.6-1C248.9,341.9,248.9,341.8,248.9,341.7C248.9,341.8,248.9,341.8,248.9,341.7L248.9,341.7z M267.3,348.9&#10;&#9;&#9;c0,0.1,0.1,0.1,0.1,0.2c0,0,0,0-0.1,0C267.3,349,267.3,349,267.3,348.9z M264.1,342.5c-0.2,0-0.5,0-0.6,0.3&#10;&#9;&#9;c-0.3,0.8-0.6,1.5-0.9,2.3c-0.2-0.3-0.4-0.5-0.6-0.8c1.2-2.8,2.2-5.8,3.7-8.5C265.3,338.1,264.7,340.3,264.1,342.5z M266.5,337.4&#10;&#9;&#9;c0,0.2,0.1,0.4,0.1,0.7c-1,2.9-1.8,6-2.2,9c0-0.1-0.1-0.1-0.1-0.2C264.7,343.6,265.7,340.5,266.5,337.4z M265.3,347.8&#10;&#9;&#9;c0.2-0.4,0.4-0.8,0.6-1.3c-0.1,0.5-0.3,1-0.4,1.5c-0.1,0-0.1-0.1-0.2-0.1C265.3,347.9,265.3,347.9,265.3,347.8z M246.5,342.8&#10;&#9;&#9;C246.4,342.8,246.4,342.8,246.5,342.8c-0.1-0.3-0.4-0.3-0.6-0.3c-0.3,0-0.5,0-0.7,0c-0.2-0.4-0.5-0.8-0.7-1.1&#10;&#9;&#9;c-0.8-1.8-1.4-3.6-1.4-5.6c1.4,0.8,2.6,2.3,3.6,3.9C246.5,340.7,246.5,341.8,246.5,342.8z M238,343.5c-0.1,0-0.1,0-0.2,0&#10;&#9;&#9;c0.1-0.1,0.1-0.2,0.2-0.3C238,343.2,238,343.3,238,343.5z M236.5,343.6c0,0-0.1,0-0.1,0c0-0.1,0.1-0.1,0.1-0.2V343.6z M218.7,350.2&#10;&#9;&#9;c0-0.4,0-0.8,0.1-1.2c0.2,0.2,0.4,0.4,0.7,0.7C219.2,349.8,219,350,218.7,350.2z M222.4,347.9c0,0,0-0.1,0-0.1&#10;&#9;&#9;c0.1-0.5,0.7-0.5,1.3-0.5C223.3,347.5,222.8,347.7,222.4,347.9z M225.5,346.5c0.3-0.3,0.6-0.7,0.8-1.1c0.1,0.3,0.1,0.5,0.2,0.8&#10;&#9;&#9;C226.2,346.2,225.9,346.3,225.5,346.5z M227.6,345.7c0.2-0.6,0.5-1.2,0.8-1.7c0.2,0.4,0.4,0.9,0.5,1.3&#10;&#9;&#9;C228.5,345.4,228,345.6,227.6,345.7z M280.6,352.1l0.2,0c0,0,0,0,0,0.1C280.7,352.2,280.7,352.1,280.6,352.1z M212.8,348.7&#10;&#9;&#9;c-0.2-2.9-0.8-5.7-0.9-8.6c-0.4-8.6,1-17.1,3-25.4c1.6-6.7,3.6-13.8,3.3-20.8c-0.1-1.6-0.3-3.2-0.8-4.7c0.9,0.2,1.7,0.6,2.6,0.8&#10;&#9;&#9;c1.9,0.4,3.9,0.6,5.8,0.9c3.8,0.5,7.7,1.1,11.5,1.7c4,0.6,7.9,0.9,11.9,1.8c3.1,0.7,6.1,1.1,9.3,0.8c5.6-0.5,11.1-1.9,16.4-4.1&#10;&#9;&#9;c4.7-1.9,9.5-4.6,13-8.5c0.9,1.4,1.9,2.8,3,4.1c2.3,2.7,4.7,5.2,7,8c1.9,2.4,3.9,4.8,5.3,7.7c1.6,3.5,0.8,6.9-0.1,10.5&#10;&#9;&#9;c-2,7.8-5.6,14.8-9.4,21.7c-2,3.6-4.2,7-6.7,10.2c-1.9,2.5-4.4,4.4-5.9,7.2c0,0,0,0,0,0c-0.2-0.3-0.7-0.4-0.9,0&#10;&#9;&#9;c-0.1,0.1-0.1,0.2-0.2,0.3c-0.2,0-0.3,0.2-0.4,0.4c0,0,0,0,0,0v-0.9c0-0.5-0.5-0.6-0.9-0.4c0,0,0,0.1-0.1,0.1&#10;&#9;&#9;c-0.2-0.5-0.4-1-0.6-1.5c-0.1-0.2-0.4-0.3-0.6-0.2c-0.1-0.4-0.2-0.8-0.3-1.2c-0.2-0.5-1-0.4-1,0.1c0,1.2-0.2,2.5-0.4,3.7&#10;&#9;&#9;c-0.2-0.9-0.4-1.9-0.7-2.8c-0.1-0.6-1-0.4-1,0.1v3.6c-0.2-0.4-0.4-0.9-0.6-1.3c-0.2-0.5-1-0.2-0.9,0.3c0,0.3,0.1,0.7,0.1,1&#10;&#9;&#9;c-0.1-0.1-0.1-0.2-0.2-0.3c-0.2-0.2-0.5-0.3-0.7-0.1c-0.1-0.1-0.1-0.1-0.2-0.2c-0.7-1.4-1.2-2.9-1.5-4.5c-0.1-0.6-1.1-0.4-1,0.3&#10;&#9;&#9;c0.1,0.8,0.2,1.5,0.2,2.3c-0.1-0.1-0.2-0.2-0.4-0.3c-0.7-1.4-1.2-2.9-1.8-4.4c0.3-1.5,0.5-2.9,0.6-4.4c0.6-2.3,1-4.6,1.3-6.9&#10;&#9;&#9;c0.1-0.5-0.7-0.7-0.9-0.3c-0.3,0.7-0.6,1.4-0.8,2c-0.1-0.3-0.2-0.6-0.3-0.9c0-0.1,0-0.2,0.1-0.3c0.1-0.3-0.2-0.6-0.4-0.6&#10;&#9;&#9;c0-0.1-0.1-0.2-0.1-0.3c-0.2-0.4-0.7-0.3-0.9,0c-1.9,2.9-2.9,6.2-4.3,9.4c0,0,0,0-0.1-0.1c0.4-2.1,1-4.1,1.7-6.1&#10;&#9;&#9;c1.1-2.9,2.1-5.9,3.1-8.8c0.2-0.6-0.8-0.9-1-0.3c-1,2.9-2.1,5.8-3,8.7c-0.5,1.3-1,2.5-1.5,3.7c0.2-0.7,0.3-1.4,0.5-2.1&#10;&#9;&#9;c0.4-1.2,0.7-2.4,1-3.6c0.2-0.6-0.7-0.9-1-0.3c-0.1,0.4-0.3,1.1-0.5,2c-0.3,1.1-0.7,2.3-1.1,3.4c-0.2-0.3-0.7-0.3-0.8,0&#10;&#9;&#9;c-0.5,0.9-1,1.9-1.4,2.9c-0.1-0.1-0.2-0.2-0.3-0.4c-0.3-0.5-0.9-0.2-0.9,0.3c0,0,0,0,0,0c-0.2,0-0.3,0.1-0.4,0.2&#10;&#9;&#9;c-0.2,0.4-0.4,0.7-0.6,1c0.2-2,0.4-3.9,0.7-5.9c0.3,0.2,0.8,0.1,0.8-0.4v-5c0-0.5-0.9-0.7-1-0.1c-0.6,3.5-1.1,7-1.4,10.5&#10;&#9;&#9;c0-0.5,0-1,0-1.4c0.7-3.6,0.9-7.4,1-11c0-0.6-0.8-0.7-1-0.1c-1.2,3.4-1.2,7.4-1,11c-0.1,0.5-0.2,1-0.3,1.5&#10;&#9;&#9;c-0.3-0.1-0.5-0.3-0.7-0.4c0.4-3,0.5-6,1-8.9c0.1-0.6-0.8-0.9-1-0.3c-0.5,2.6-0.6,5.4-0.9,8.2c-0.2,0-0.4,0-0.5,0.1&#10;&#9;&#9;c-0.1,0.1-0.2,0.2-0.3,0.2c-0.4-2.9-0.9-5.7-1.9-8.5c-0.2-0.4-0.8-0.5-1,0c-0.4,1.5-0.6,3-0.8,4.5c-1.1-1.6-2.4-3.2-4.1-3.8&#10;&#9;&#9;c-0.3-0.1-0.6,0.2-0.6,0.5c0,0.5,0,1,0,1.5c-0.7-1.6-1.4-3.1-2.1-4.7c-0.3-0.6-1.1-0.1-0.9,0.5c0.7,1.4,1.3,2.8,1.9,4.3&#10;&#9;&#9;c-1.5-2-3-4-4.4-6.2c-0.2-0.4-0.4-0.7-0.7-1.1c-0.3-0.5-1.2-0.1-0.9,0.5c2.4,3.7,3.8,7.8,4.8,12c-0.1,0.5-0.3,1-0.4,1.6&#10;&#9;&#9;c-0.2,0-0.3,0-0.5,0V341c0-0.5-0.7-0.7-0.9-0.3l-0.6,1.1V341c0-0.6-0.8-0.7-1-0.1c-0.3,1.1-0.8,2.1-1.4,3c-0.4,0.1-0.8,0.1-1.2,0.2&#10;&#9;&#9;c-0.1-0.3-0.3-0.5-0.5-0.8c-0.2-0.3-0.6-0.3-0.9,0c-0.3,0.4-0.5,0.8-0.6,1.2c-0.1,0-0.1,0-0.2,0c-0.1-0.5-0.2-1-0.3-1.5&#10;&#9;&#9;c0-0.6-0.8-0.7-1-0.1c-0.2,0.7-0.5,1.3-0.7,2c-0.3-0.7-0.6-1.4-0.9-2.1c-0.1-0.3-0.6-0.3-0.8-0.1c-0.4,0.5-0.8,1-1.1,1.6&#10;&#9;&#9;c0-0.1-0.1-0.3-0.1-0.4c-0.1-0.4-0.7-0.5-0.9-0.1c-0.4,0.7-1,2.2-1.8,2.5c-0.7,0.3-1.7,0.2-2.4,0.3c-0.2,0-0.4,0.3-0.4,0.5&#10;&#9;&#9;c0,1.3-1,0.8-1.5,0.3c-0.5-0.5-1.2,0.2-0.7,0.7c0.1,0.1,0.1,0.2,0.2,0.3c-0.2-0.2-0.4-0.4-0.7-0.7c-0.3-0.3-0.7-0.1-0.8,0.2&#10;&#9;&#9;c-0.3,0.9-0.2,1.8-0.3,2.7c-0.1-0.1-0.3-0.2-0.4-0.2c-0.2-0.1-0.4,0.1-0.6,0.2c-0.5,0.7-0.7,1.9-1.7,1.9c-0.4,0-0.5,0.3-0.5,0.6&#10;&#9;&#9;h-1.8c0-0.2,0.1-0.4,0.1-0.6C213,351.3,212.9,350,212.8,348.7z M192.9,352.3c0,0.1,0.1,0.2,0.1,0.3c0.2,0.6,0.9,0.4,1-0.1&#10;&#9;&#9;c0,0,0,0,0-0.1c0.1,0.2,0.1,0.5,0.2,0.7h-1.7C192.6,352.9,192.8,352.6,192.9,352.3z M190.1,353.1h-0.6c0-0.1,0-0.2,0.1-0.3&#10;&#9;&#9;C189.7,352.9,189.9,353,190.1,353.1z M184.3,352c0.1,0.3,0.3,0.6,0.4,0.9c-0.1,0.1-0.1,0.1-0.2,0.2h-0.1c0-0.3-0.1-0.6-0.1-0.9&#10;&#9;&#9;C184.2,352.2,184.2,352.1,184.3,352z M179.4,348.2c0.2,0.4,0.5,0.7,0.7,1.1c-0.1,0.1-0.1,0.2-0.1,0.3c0,0.5,0,0.9-0.1,1.4&#10;&#9;&#9;c-0.2-0.2-0.4-0.3-0.6-0.5c-0.3-0.7-0.5-1.4-0.7-2.1C178.8,348.5,179,348.4,179.4,348.2z M171.6,343.8c0,0.3,0.1,0.6,0.1,0.9&#10;&#9;&#9;c0,0.2-0.1,0.4-0.1,0.6c0,0.1,0,0.1,0,0.2c-0.2-0.1-0.5-0.3-0.7-0.4c0,0,0-0.1,0-0.1C171,344.6,171.3,344.2,171.6,343.8z&#10;&#9;&#9; M166.5,342.7c0,0.1,0,0.1,0,0.2c-0.4-0.2-0.7-0.3-1.1-0.5c0.1-1.1,0.2-2.1,0.3-3.2C166,340.4,166.3,341.6,166.5,342.7z&#10;&#9;&#9; M164.8,332.7c0.1,0.9,0.2,1.9,0.3,2.8c-0.2,2.2-0.4,4.3-0.6,6.5c0,0-0.1,0-0.1,0c-0.1-0.4-0.2-0.8-0.3-1.1&#10;&#9;&#9;C164.4,338.1,164.5,335.4,164.8,332.7z M162.7,341.2c-0.2-0.1-0.5-0.2-0.7-0.3V339C162.2,339.8,162.5,340.5,162.7,341.2z&#10;&#9;&#9; M159.3,331.1c0.5,1.2,1,2.4,1.4,3.6c0,1.9,0.1,3.9,0.3,5.8c-0.2-0.1-0.3-0.1-0.5-0.2c-0.4-1.3-0.7-2.6-1-3.9&#10;&#9;&#9;C159.2,334.7,159.1,332.9,159.3,331.1z M157.9,334.8c0.2,0.7,0.3,1.3,0.5,2c0,0.3,0.1,0.7,0.1,1c-0.4-1-0.9-1.9-1.4-2.9&#10;&#9;&#9;C157.4,335,157.7,335,157.9,334.8z M154.6,332.2c1.3,2.4,2.7,4.8,3.6,7.4c-0.4-0.1-0.8-0.3-1.2-0.4c-0.2-0.5-0.3-1-0.5-1.5&#10;&#9;&#9;c-0.3-0.8-0.7-3.1-1.5-3.9C154.9,333.3,154.8,332.7,154.6,332.2z M151.2,335.7c0.2,0.3,0.4,0.5,0.6,0.8c0,0.4,0,0.8,0,1.2&#10;&#9;&#9;c-0.5-0.1-1.1-0.3-1.7-0.4C150.5,336.8,150.9,336.3,151.2,335.7z M146.6,335.9c0,0,0,0.1,0.1,0.1c0.1,0.1,0.1,0.2,0.2,0.3&#10;&#9;&#9;c0,0.1,0.1,0.3,0.1,0.4c-0.2,0-0.4-0.1-0.7-0.1c0.1-0.2,0.1-0.3,0.1-0.5C146.5,336,146.6,335.9,146.6,335.9z M143.5,335.4&#10;&#9;&#9;c0.3-0.2,0.5-0.4,0.8-0.7c0.2,0.6,0.4,1.1,0.8,1.6c0,0.1,0.1,0.1,0.2,0.1c-0.6-0.1-1.2-0.2-1.8-0.3c0,0,0-0.1,0-0.1V335.4z&#10;&#9;&#9; M128.6,333.5c0.2,0.3,0.4,0.6,0.7,0.8c0.1,0.3,0.2,0.7,0.3,1c-0.6-0.2-1.1-0.5-1.4-0.9C128.4,334.2,128.5,333.9,128.6,333.5z&#10;&#9;&#9; M128.2,335.7C128.1,335.7,128.1,335.7,128.2,335.7c-0.1,0-0.1,0-0.1-0.1C128.1,335.7,128.1,335.7,128.2,335.7z M126.5,335.9&#10;&#9;&#9;c-0.2,0-0.3,0-0.5,0v-0.7C126.1,335.4,126.3,335.6,126.5,335.9z M124.6,336c-0.1,0-0.3,0-0.4,0c0.1-0.2,0.1-0.5,0.2-0.7&#10;&#9;&#9;C124.5,335.6,124.5,335.8,124.6,336z M123,334.3v2c-0.3,0-0.5,0.1-0.8,0.1c-0.1-0.2-0.2-0.4-0.3-0.6&#10;&#9;&#9;C122.3,335.3,122.6,334.8,123,334.3z M120.7,335.7c-0.1,0.2-0.3,0.3-0.4,0.5c-0.1-0.5-0.2-0.9-0.2-1.4&#10;&#9;&#9;C120.3,335.1,120.5,335.4,120.7,335.7z M119.2,335.6c0.1,0.4,0.1,0.8,0.2,1.2c-0.3,0.1-0.6,0.1-0.9,0.2&#10;&#9;&#9;C118.7,336.5,119,336,119.2,335.6z M116.8,337c0,0.1,0,0.1,0,0.2c0,0-0.1,0-0.1,0C116.8,337.2,116.8,337.1,116.8,337z M111.5,338.5&#10;&#9;&#9;C111.5,338.5,111.5,338.5,111.5,338.5C111.5,338.5,111.5,338.5,111.5,338.5C111.5,338.5,111.5,338.5,111.5,338.5z M105.4,338.9&#10;&#9;&#9;c0.2,0.1,0.3,0.1,0.5,0.2c0.1,0.2,0.2,0.5,0.3,0.7c-0.4,0.1-0.8,0.2-1.2,0.3C105.2,339.7,105.3,339.3,105.4,338.9z M104.5,338.5&#10;&#9;&#9;c-0.1,0.5-0.3,1-0.5,1.5c-0.2-0.6-0.4-1.3-0.6-1.9C103.8,338.1,104.2,338.3,104.5,338.5z M101,337c0.3,0.1,0.6,0.2,0.8,0.3&#10;&#9;&#9;c-0.2,1.3-0.6,2.5-1.1,3.6C100.8,339.6,100.9,338.3,101,337z M99.3,339.8c0.2-0.4,0.4-0.8,0.6-1.2c-0.1,0.9-0.1,1.8-0.2,2.7&#10;&#9;&#9;c0,0,0,0-0.1,0C99.5,340.8,99.4,340.3,99.3,339.8C99.3,339.8,99.3,339.8,99.3,339.8z M98.2,339.2c0,0.2,0.1,0.3,0.1,0.5&#10;&#9;&#9;c-0.3,0.6-0.5,1.3-0.7,1.9c-0.2,0-0.4,0.1-0.6,0.1C97.4,340.9,97.8,340.1,98.2,339.2z M96.5,333.7c-0.5,2.4-1,4.9-1.3,7.3&#10;&#9;&#9;c-0.1,0.2-0.2,0.3-0.4,0.4c-0.1-0.6-0.3-1.2-0.6-1.7C94.9,337.7,95.6,335.7,96.5,333.7z M93.8,341.4c0.1,0.3,0.1,0.6,0.2,0.9&#10;&#9;&#9;c-0.2,0-0.3,0-0.4,0.1C93.6,342,93.7,341.7,93.8,341.4z M82,343.7C82,343.7,82,343.7,82,343.7c0.1,0,0.1,0,0.2,0&#10;&#9;&#9;C82.1,343.7,82.1,343.7,82,343.7z M83,342.1c0,0.2,0,0.4,0,0.5h0c-0.6-2.3-0.8-4.7-1-7.1c0.6,2,1.1,4,1.7,6.1c0,0,0,0,0,0&#10;&#9;&#9;c-0.1,0-0.1-0.1-0.2-0.1c-0.2,0-0.4,0-0.5,0.2C83,341.8,83,342,83,342.1z M88,324.4c0,4.1-0.1,8.3-0.1,12.4c0,1.8,0,3.5,0.1,5.3&#10;&#9;&#9;c-0.3-1.1-0.7-2.2-1.1-3.2c0.1-0.1,0.2-0.3,0.1-0.5c-0.2-0.6-0.4-1.1-0.6-1.7C86.6,332.5,86.7,328.3,88,324.4z M86.2,340.3&#10;&#9;&#9;c0.3,0.7,0.5,1.5,0.7,2.2c-0.3,0-0.6,0-0.9,0.1C86.1,341.8,86.1,341.1,86.2,340.3z M84.9,336.8c0.1,0.4,0.3,0.8,0.4,1.2&#10;&#9;&#9;c-0.1,1.5-0.2,2.9-0.3,4.4c-1-3.5-1.9-7.1-3.1-10.6c0-0.4,0-0.7,0-1.1C83,332.7,84,334.7,84.9,336.8z M78.8,325&#10;&#9;&#9;c-0.2,0.1-0.4,0.4-0.3,0.7c0.8,1.8,1.5,3.7,2.2,5.5c0,3.9,0.3,7.7,1.2,11.4c-0.1,0-0.1,0-0.2,0c-1.6-6.6-3.3-13.2-4.2-19.9&#10;&#9;&#9;C78,323.5,78.4,324.3,78.8,325z M76.3,320.4c0.5,5.6,1.1,11.1,1.5,16.7c-0.2,0.1-0.3,0.4-0.2,0.7c0.1,0.3,0.2,0.5,0.3,0.8&#10;&#9;&#9;c0,0.9,0.1,1.8,0.1,2.6c-0.6-0.9-1.3-1.8-1.9-2.7c0-0.1-0.1-0.3-0.1-0.4c-0.7-2.8-1.6-5.5-2.5-8.2c-0.1-0.2-0.2-0.3-0.3-0.3&#10;&#9;&#9;C74,326.5,75.1,323.4,76.3,320.4z M72.8,331c0.5,1.8,1.1,3.7,1.7,5.5c-0.2,0-0.4,0.2-0.4,0.5c0,1.3-0.2,2.6-0.3,3.9&#10;&#9;&#9;c-0.1-0.2-0.2-0.5-0.3-0.7c-0.3-0.9-0.7-1.9-0.9-2.8c0-0.1-0.1-0.1-0.1-0.2c-0.2-0.6-0.4-1.2-0.5-1.8&#10;&#9;&#9;C72.1,333.9,72.4,332.5,72.8,331z M71.5,337.7C71.5,337.7,71.5,337.8,71.5,337.7c0,1.2-0.1,2.4-0.3,3.5c0,0,0,0,0,0&#10;&#9;&#9;C71.2,340,71.3,338.9,71.5,337.7z M67.9,341.7c0,0.1-0.1,0.1-0.1,0.2c-0.3,0-0.6-0.1-0.8-0.1c-0.1-0.2-0.1-0.3-0.2-0.5&#10;&#9;&#9;c-0.1-0.6-0.2-1.1-0.3-1.7C66.9,340.3,67.4,341,67.9,341.7z M66.3,343C66.3,343,66.3,343,66.3,343C66.4,343,66.4,343,66.3,343&#10;&#9;&#9;c0.1,0.2,0.2,0.3,0.2,0.5c-0.2,0-0.3,0-0.5-0.1c0-0.2-0.1-0.4-0.1-0.6C66.1,342.9,66.2,342.9,66.3,343z M64.4,342.8&#10;&#9;&#9;c0,0,0-0.1,0.1-0.2c0.1,0,0.1,0,0.2,0c0,0.2,0,0.4-0.1,0.6c-0.3,0-0.6-0.1-0.9-0.1c-0.2-0.2-0.4-0.4-0.6-0.5c0.1,0,0.3,0,0.4,0&#10;&#9;&#9;C63.6,343,64.2,343.2,64.4,342.8z M64,340.8c-0.2-0.5-0.5-1.1-0.8-1.6c0.1-0.4,0.1-0.7,0.2-1.1c0.3,0.5,0.6,1,0.9,1.5&#10;&#9;&#9;C64.2,340.1,64.1,340.5,64,340.8z M64,329.7c0,1.9,0,3.7,0.1,5.6c-0.3-0.3-0.7-0.7-1-1C63.4,332.7,63.7,331.2,64,329.7z M63,335.5&#10;&#9;&#9;c0.4,0.4,0.9,0.9,1.3,1.3c0,0,0,0,0,0c-0.2,0-0.3,0-0.5,0c-0.1-0.2-0.3-0.4-0.4-0.7c-0.1-0.2-0.3-0.3-0.5-0.2&#10;&#9;&#9;C62.9,335.8,63,335.7,63,335.5z M61.8,334.4c-0.1,0.6-0.1,1.2-0.2,1.8c0-0.1-0.1-0.3-0.1-0.4c0-0.6,0-1.1,0-1.7&#10;&#9;&#9;C61.6,334.2,61.7,334.3,61.8,334.4z M60.1,340.5C60.1,340.5,60.1,340.5,60.1,340.5c0.1,0.2,0.1,0.4,0.1,0.5&#10;&#9;&#9;c-0.3-0.2-0.8,0.2-0.7,0.7c0,0-0.1,0-0.1,0.1c0-0.2,0-0.4-0.1-0.6C59.6,341,59.9,340.7,60.1,340.5z M56.5,340.5&#10;&#9;&#9;C56.5,340.5,56.5,340.5,56.5,340.5c-0.2-0.1-0.4-0.2-0.5-0.4c-0.4-0.6-0.7-1.2-1-1.8c0-0.3,0.1-0.6,0.1-0.8c0-0.3-0.2-0.4-0.4-0.5&#10;&#9;&#9;c-0.2-2.8-0.9-5.5-1.8-8.1C54.3,332.6,55.5,336.5,56.5,340.5z M51.2,339.8C51.2,339.8,51.2,339.8,51.2,339.8&#10;&#9;&#9;C51.2,339.8,51.2,339.7,51.2,339.8C51.2,339.7,51.2,339.8,51.2,339.8z M48.8,338.7c-0.1,0-0.1-0.1-0.2-0.1c0.1-0.1,0.1-0.2,0.2-0.3&#10;&#9;&#9;C48.8,338.5,48.8,338.6,48.8,338.7z M46.7,337.7c-0.2-0.1-0.4-0.2-0.6-0.3c0.2-0.4,0.4-0.8,0.7-1.2&#10;&#9;&#9;C46.7,336.6,46.7,337.1,46.7,337.7z M44.1,335.9c0.3-0.3,0.5-0.7,0.8-1c0,0.6-0.1,1.2-0.2,1.7c-0.2-0.1-0.4-0.2-0.5-0.3&#10;&#9;&#9;C44.2,336.1,44.2,336,44.1,335.9z M40.9,332.5c-0.1,0.4-0.2,0.8-0.3,1.2c-0.1-0.1-0.2-0.2-0.4-0.3&#10;&#9;&#9;C40.5,333.1,40.7,332.8,40.9,332.5z M36,327.3c0.1-1.1,0.2-2.1,0.3-3.2c0,1.9,0,3.8,0,5.7c-0.2-0.2-0.3-0.3-0.5-0.5&#10;&#9;&#9;C35.9,328.6,36,327.9,36,327.3z M30.2,320.8c0,0.1-0.1,0.3-0.1,0.4c-0.1,0.2-0.1,0.5-0.2,0.8c-0.1-0.2-0.2-0.4-0.4-0.5v-4.2&#10;&#9;&#9;C29.7,318.4,29.9,319.6,30.2,320.8z M23.4,306c1,3.4,2,6.8,2.9,10.2c-1-1.8-2-3.7-2.9-5.5C23.5,309.2,23.5,307.6,23.4,306z&#10;&#9;&#9; M18.1,300.5c-0.2-0.4-0.5-0.9-0.7-1.3c0-2.1,0.2-4.1,0.6-6.2C17.9,295.5,17.9,298,18.1,300.5z M12.5,291.3c0,0.4,0,0.8,0,1.3&#10;&#9;&#9;c-0.3-0.3-0.6-0.6-0.8-0.8c0.1-0.6,0.2-1.2,0.4-1.8C12.2,290.3,12.3,290.8,12.5,291.3z M10.1,284.4c0.1,0.2,0.1,0.4,0.2,0.6&#10;&#9;&#9;c-0.2,1.7-0.3,3.5-0.3,5.2c-0.5-0.4-1-0.7-1.6-1.1c0-0.5,0.1-1,0.2-1.6C9.1,286.6,9.6,285.5,10.1,284.4z M7,283.4&#10;&#9;&#9;c1-4.4,2.4-8.7,5.2-12.2c-1.8,4.9-3.8,10.5-4.6,16c-0.2,0.4-0.4,0.7-0.5,1.1c0-0.3,0-0.5-0.1-0.8V283.4z M5.4,284.4&#10;&#9;&#9;c0,0.4,0.1,0.8,0.1,1.1c0,0,0,0,0,0.1c-0.2,0.7-0.3,1.5-0.5,2.2c0,0,0,0-0.1,0c0-0.4-0.1-0.8-0.1-1.3C5,285.7,5.2,285,5.4,284.4z&#10;&#9;&#9; M4.8,279.1c0.2,1,0.3,1.9,0.5,2.9c-0.3,0.6-0.5,1.2-0.8,1.8c-0.1-0.7-0.2-1.3-0.3-2C4.4,280.9,4.6,280,4.8,279.1z M2.3,278.8&#10;&#9;&#9;c0-0.8,0.1-1.6,0.1-2.4c0.3,1.8,0.6,3.5,0.8,5.3c-0.3,1.5-0.5,3-0.7,4.5c0-0.9,0-1.8,0-2.7c0-0.2-0.1-0.4-0.3-0.4&#10;&#9;&#9;C2.3,281.6,2.3,280.2,2.3,278.8z M3.7,285.1c0.1,0.4,0.1,0.9,0.1,1.3c-0.1,0.3-0.1,0.7-0.1,1c-0.1,0-0.2,0-0.3-0.1&#10;&#9;&#9;C3.5,286.6,3.6,285.8,3.7,285.1z" transform="matrix(1, 0, 0, 1, 0, 0)"/><g transform="matrix(1, 0, 0, 1, 0, 0)">
			<path fill="#333333" d="M254.9,48.8c0-2.3,0.4-4.4,1.2-6.3s1.9-3.5,3.3-4.8c1.4-1.3,3-2.4,4.9-3.1c1.9-0.7,3.9-1.1,6-1.1&#10;&#9;&#9;&#9;&#9;c1.7,0,3.1,0.2,4.4,0.5c1.3,0.3,2.4,0.7,3.4,1.1c1.1,0.5,2,1,2.8,1.5l-4.6,8.1c-0.5-0.4-1-0.7-1.5-1c-0.5-0.2-1.1-0.5-1.8-0.7&#10;&#9;&#9;&#9;&#9;c-0.7-0.2-1.5-0.3-2.3-0.3c-0.9,0-1.7,0.2-2.5,0.5s-1.4,0.8-2,1.3s-1,1.2-1.3,1.9s-0.5,1.5-0.5,2.4c0,0.8,0.2,1.6,0.5,2.4&#10;&#9;&#9;&#9;&#9;c0.3,0.7,0.8,1.4,1.4,1.9c0.6,0.6,1.3,1,2.1,1.3c0.8,0.3,1.6,0.5,2.6,0.5c0.9,0,1.8-0.1,2.5-0.4c0.7-0.2,1.3-0.5,1.8-0.8&#10;&#9;&#9;&#9;&#9;c0.6-0.3,1.1-0.7,1.5-1.1l4.6,8.1c-0.8,0.6-1.7,1.2-2.8,1.7c-0.9,0.4-2.1,0.8-3.4,1.1c-1.3,0.4-2.8,0.5-4.5,0.5&#10;&#9;&#9;&#9;&#9;c-2.3,0-4.4-0.4-6.3-1.1c-1.9-0.7-3.6-1.8-5-3.1c-1.4-1.3-2.5-3-3.3-4.8C255.3,53.2,254.9,51.1,254.9,48.8z"/>
			<path fill="#333333" d="M291.1,34.2h7l11.1,29.2H300l-1-2.6h-8.8l-1,2.6H280L291.1,34.2z M296.6,54.3l-2-5.1l-2,5.1H296.6z"/>
			<path fill="#333333" d="M309.9,34.2h10.1c1.9,0,3.6,0.2,5.2,0.7c1.6,0.5,3,1.2,4.1,2.2c1.2,1,2.1,2.2,2.7,3.6c0.7,1.4,1,3,1,4.9&#10;&#9;&#9;&#9;&#9;c0,1.5-0.2,2.7-0.6,3.7c-0.4,1-0.9,1.9-1.4,2.5c-0.6,0.8-1.2,1.4-2,1.9l5.5,9.6h-11l-4.4-7.4v7.4h-9.3V34.2z M319.2,48.5h0.5&#10;&#9;&#9;&#9;&#9;c1.1,0,2.1-0.2,2.8-0.7c0.8-0.5,1.2-1.3,1.2-2.5c0-1.2-0.4-2-1.2-2.5c-0.8-0.5-1.7-0.7-2.8-0.7h-0.5V48.5z"/>
			<path fill="#333333" d="M335.4,34.2h9.9v29.2h-9.9V34.2z"/>
			<path fill="#333333" d="M348.4,34.2h11.4c1.5,0,2.8,0.2,4,0.5c1.2,0.3,2.2,0.8,3.1,1.5c0.9,0.7,1.5,1.5,2,2.5&#10;&#9;&#9;&#9;&#9;c0.5,1,0.7,2.1,0.7,3.4c0,0.9-0.1,1.7-0.4,2.4c-0.2,0.7-0.5,1.2-0.7,1.6c-0.3,0.5-0.7,1-1.1,1.3c0.6,0.4,1.2,0.9,1.8,1.6&#10;&#9;&#9;&#9;&#9;c0.4,0.6,0.8,1.3,1.2,2.1c0.4,0.8,0.5,1.9,0.5,3.1c0,1.4-0.2,2.7-0.7,3.8s-1.2,2.1-2.1,2.9c-0.9,0.8-2,1.4-3.4,1.8&#10;&#9;&#9;&#9;&#9;c-1.3,0.4-2.8,0.6-4.4,0.6h-11.9V34.2z M360.6,43.1c0-1.3-0.7-2-2.2-2h-1.1v4h1.1C359.9,45.1,360.6,44.4,360.6,43.1z M358.4,56.5&#10;&#9;&#9;&#9;&#9;c2.2,0,3.3-0.8,3.3-2.5c0-1.7-1.1-2.5-3.3-2.5h-1.1v5.1H358.4z"/>
			<path fill="#333333" d="M372.3,48.8c0-2.1,0.4-4.1,1.2-6c0.8-1.9,1.9-3.5,3.3-4.9c1.4-1.4,3-2.5,4.9-3.3c1.9-0.8,3.9-1.2,6-1.2&#10;&#9;&#9;&#9;&#9;s4.1,0.4,6,1.2c1.9,0.8,3.5,1.9,4.9,3.3c1.4,1.4,2.5,3,3.3,4.9c0.8,1.9,1.2,3.9,1.2,6c0,2.1-0.4,4.1-1.2,6&#10;&#9;&#9;&#9;&#9;c-0.8,1.9-1.9,3.5-3.3,4.9c-1.4,1.4-3,2.5-4.9,3.3c-1.9,0.8-3.9,1.2-6,1.2s-4.1-0.4-6-1.2c-1.9-0.8-3.5-1.9-4.9-3.3&#10;&#9;&#9;&#9;&#9;c-1.4-1.4-2.5-3-3.3-4.9S372.3,50.9,372.3,48.8z M381.5,48.8c0,0.8,0.2,1.6,0.5,2.4c0.3,0.7,0.8,1.4,1.3,1.9s1.2,1,1.9,1.3&#10;&#9;&#9;&#9;&#9;c0.7,0.3,1.5,0.5,2.4,0.5s1.6-0.2,2.4-0.5c0.7-0.3,1.4-0.8,1.9-1.3s1-1.2,1.3-1.9c0.3-0.7,0.5-1.5,0.5-2.4c0-0.8-0.2-1.6-0.5-2.4&#10;&#9;&#9;&#9;&#9;c-0.3-0.7-0.8-1.4-1.3-1.9s-1.2-1-1.9-1.3c-0.7-0.3-1.5-0.5-2.4-0.5s-1.6,0.2-2.4,0.5c-0.7,0.3-1.4,0.8-1.9,1.3s-1,1.2-1.3,1.9&#10;&#9;&#9;&#9;&#9;C381.6,47.2,381.5,48,381.5,48.8z"/>
			<path fill="#333333" d="M417.3,64.1c-1.8,0-3.5-0.2-5-0.7s-2.8-1.2-3.8-2.1c-1.1-0.9-1.9-2.1-2.4-3.5s-0.9-3.1-0.9-5V34.2h9.3&#10;&#9;&#9;&#9;&#9;v18.2c0,1,0.2,1.8,0.6,2.3c0.4,0.5,1.1,0.8,2.1,0.8c1,0,1.7-0.3,2.1-0.8c0.4-0.5,0.6-1.3,0.6-2.3V34.2h9.4v18.6&#10;&#9;&#9;&#9;&#9;c0,1.9-0.3,3.6-0.9,5s-1.4,2.6-2.5,3.5c-1.1,0.9-2.3,1.6-3.8,2.1S419.1,64.1,417.3,64.1z"/>
		</g><path d="M 435 40.599998 H 453.700001 V 42.599998 H 435 V 40.599998 Z" fill="#333333" transform="matrix(1, 0, 0, 1, 0, 0)"/><path d="M 435 44.599998 H 453.700001 V 46.599998 H 435 V 44.599998 Z" fill="#333333" transform="matrix(1, 0, 0, 1, 0, 0)"/><path d="M 435 49.200001 H 453.700001 V 51.200001 H 435 V 49.200001 Z" fill="#333333" transform="matrix(1, 0, 0, 1, 0, 0)"/><path d="M 228.800003 40.599998 H 247.500004 V 42.599998 H 228.800003 V 40.599998 Z" fill="#333333" transform="matrix(1, 0, 0, 1, 0, 0)"/><path d="M 228.800003 44.599998 H 247.500004 V 46.599998 H 228.800003 V 44.599998 Z" fill="#333333" transform="matrix(1, 0, 0, 1, 0, 0)"/><path d="M 228.800003 49.200001 H 247.500004 V 51.200001 H 228.800003 V 49.200001 Z" fill="#333333" transform="matrix(1, 0, 0, 1, 0, 0)"/><path fill="#BDF9F4" d="M665,49.8c-10.5-1.2-21.4,2.2-31.6-1c5.8-0.6,12,1.1,17.5-1.4c0.3-0.1,0.3-0.6,0.1-0.8&#10;&#9;&#9;&#9;c-9.2-8-22.7,3.3-32.6-2.3c2.1-0.9,4.5-0.4,6.8-0.9c0.5-0.1,0.4-0.8,0-1c-10.1-3.9-20.1-0.2-30.5-0.4c-9.2-0.2-18.8-3.9-27.8-0.8&#10;&#9;&#9;&#9;c-1.9-0.1-3.8-0.2-5.7-0.3c-4.4-0.1-9.4-0.1-13.4,2.1c-0.3,0.2-0.3,0.6-0.1,0.8c0.3,0.3,0.6,0.5,1,0.7c-6.7,0.1-13.4,0.7-19.8,2.8&#10;&#9;&#9;&#9;c-0.4,0.1-0.5,0.7-0.1,0.9c0.2,0.1,0.4,0.2,0.5,0.3c-0.2,0.3-0.1,0.7,0.3,0.8c0.7,0.2,1.5,0.3,2.2,0.4c2.7,0.9,5.7,1,8.5,0.6&#10;&#9;&#9;&#9;c7.4,0,14.8-0.8,22,0.3c-4.5-0.1-9.1-1-13.3,1.2c-0.3,0.1-0.3,0.6-0.1,0.8c3.5,3.5,10.5,2,14.9,1.6c2.8-0.2,5.6-0.5,8.3-0.9&#10;&#9;&#9;&#9;c3.9-0.6,8.1-1.1,11.8,0.5c-7.3,2.1-15.5-1.7-22.3,2.7c-0.3,0.2-0.4,0.7,0,0.9c10.1,4.4,22-1.7,32,2.4c-4.9-0.1-10.1-0.5-14.7,1.4&#10;&#9;&#9;&#9;c-0.4,0.2-0.3,0.7,0,0.9c9.1,5.3,20.2,2,30.1,2.5c4.7,0.2,9.4,0.7,14.1,0.5c2.8-0.1,6.8-0.3,8.5-2.9c0.1-0.2,0.1-0.6-0.2-0.7&#10;&#9;&#9;&#9;c-3-1.6-6.2-0.9-9.4-1.3c6.2-0.5,12.6-1.2,18.8-0.6c4.6,0.5,10.6,1.7,14.6-1.3c0.3-0.2,0.3-0.5,0.1-0.8c-1.6-1.9-4.2-2.5-6.8-2.7&#10;&#9;&#9;&#9;c5.7-0.2,11.3-1.2,16.3-4.2C665.7,50.5,665.5,49.9,665,49.8z" transform="matrix(1, 0, 0, 1, 0, 0)"/><path fill="#BDF9F4" d="M157.9,74.8c-10.5-1.2-21.4,2.2-31.6-1c5.8-0.6,12,1.1,17.5-1.4c0.3-0.1,0.3-0.6,0.1-0.8&#10;&#9;&#9;&#9;c-9.2-8-22.7,3.3-32.6-2.3c2.1-0.9,4.5-0.4,6.8-0.9c0.5-0.1,0.4-0.8,0-1c-10.1-3.9-20.1-0.2-30.5-0.4c-9.2-0.2-18.8-3.9-27.8-0.8&#10;&#9;&#9;&#9;c-1.9-0.1-3.8-0.2-5.7-0.3c-4.4-0.1-9.4-0.1-13.4,2.1c-0.3,0.2-0.3,0.6-0.1,0.8c0.3,0.3,0.6,0.5,1,0.7c-6.7,0.1-13.4,0.7-19.8,2.8&#10;&#9;&#9;&#9;c-0.4,0.1-0.5,0.7-0.1,0.9c0.2,0.1,0.4,0.2,0.5,0.3C22,74,22,74.4,22.4,74.5c0.7,0.2,1.5,0.3,2.2,0.4c2.7,0.9,5.7,1,8.5,0.6&#10;&#9;&#9;&#9;c7.4,0,14.8-0.8,22,0.3c-4.5-0.1-9.1-1-13.3,1.2c-0.3,0.1-0.3,0.6-0.1,0.8c3.5,3.5,10.5,2,14.9,1.6c2.8-0.2,5.6-0.5,8.3-0.9&#10;&#9;&#9;&#9;c3.9-0.6,8.1-1.1,11.8,0.5c-7.3,2.1-15.5-1.7-22.3,2.7c-0.3,0.2-0.4,0.7,0,0.9c10.1,4.4,22-1.7,32,2.4c-4.9-0.1-10.1-0.5-14.7,1.4&#10;&#9;&#9;&#9;c-0.4,0.2-0.3,0.7,0,0.9c9.1,5.3,20.2,2,30.1,2.5c4.7,0.2,9.4,0.7,14.1,0.5c2.8-0.1,6.8-0.3,8.5-2.9c0.1-0.2,0.1-0.6-0.2-0.7&#10;&#9;&#9;&#9;c-3-1.6-6.2-0.9-9.4-1.3c6.2-0.5,12.6-1.2,18.8-0.6c4.6,0.5,10.6,1.7,14.6-1.3c0.3-0.2,0.3-0.5,0.1-0.8c-1.6-1.9-4.2-2.5-6.8-2.7&#10;&#9;&#9;&#9;c5.7-0.2,11.3-1.2,16.3-4.2C158.6,75.5,158.3,74.9,157.9,74.8z" transform="matrix(1, 0, 0, 1, 0, 0)"/><path fill="#BDF9F4" d="M266.9,113.4c-5.8-0.7-11.9,1.2-17.7-0.5c3.3-0.3,6.7,0.6,9.8-0.8c0.2-0.1,0.2-0.3,0.1-0.4&#10;&#9;&#9;&#9;c-5.2-4.5-12.7,1.8-18.3-1.3c1.2-0.5,2.5-0.2,3.8-0.5c0.3-0.1,0.2-0.4,0-0.5c-5.6-2.2-11.3-0.1-17-0.2c-5.1-0.1-10.5-2.2-15.5-0.4&#10;&#9;&#9;&#9;c-1.1-0.1-2.1-0.1-3.2-0.2c-2.5-0.1-5.3,0-7.5,1.2c-0.2,0.1-0.2,0.3-0.1,0.4c0.2,0.2,0.4,0.3,0.5,0.4c-3.7,0-7.5,0.4-11,1.5&#10;&#9;&#9;&#9;c-0.2,0.1-0.3,0.4-0.1,0.5c0.1,0.1,0.2,0.1,0.3,0.2c-0.1,0.1-0.1,0.4,0.1,0.4c0.4,0.1,0.8,0.2,1.2,0.2c1.5,0.5,3.2,0.6,4.8,0.3&#10;&#9;&#9;&#9;c4.1,0,8.3-0.4,12.3,0.2c-2.5,0-5.1-0.5-7.4,0.7c-0.2,0.1-0.2,0.3-0.1,0.4c2,2,5.9,1.1,8.3,0.9c1.6-0.1,3.1-0.3,4.7-0.5&#10;&#9;&#9;&#9;c2.2-0.3,4.5-0.6,6.6,0.3c-4.1,1.2-8.7-1-12.5,1.5c-0.2,0.1-0.2,0.4,0,0.5c5.7,2.5,12.3-1,17.9,1.3c-2.8-0.1-5.7-0.3-8.2,0.8&#10;&#9;&#9;&#9;c-0.2,0.1-0.2,0.4,0,0.5c5.1,3,11.3,1.1,16.8,1.4c2.6,0.1,5.2,0.4,7.9,0.3c1.5-0.1,3.8-0.1,4.8-1.6c0.1-0.1,0-0.3-0.1-0.4&#10;&#9;&#9;&#9;c-1.7-0.9-3.5-0.5-5.3-0.7c3.5-0.3,7-0.7,10.5-0.3c2.6,0.3,5.9,0.9,8.2-0.7c0.2-0.1,0.2-0.3,0.1-0.4c-0.9-1-2.4-1.4-3.8-1.5&#10;&#9;&#9;&#9;c3.2-0.1,6.3-0.7,9.1-2.4C267.3,113.8,267.1,113.4,266.9,113.4z" transform="matrix(1, 0, 0, 1, 0, 0)"/><path fill="#BDF9F4" d="M518.5,100.4c-5.8-0.7-11.9,1.2-17.7-0.5c3.3-0.3,6.7,0.6,9.8-0.8c0.2-0.1,0.2-0.3,0.1-0.4&#10;&#9;&#9;&#9;c-5.2-4.5-12.7,1.8-18.3-1.3c1.2-0.5,2.5-0.2,3.8-0.5c0.3-0.1,0.2-0.4,0-0.5c-5.6-2.2-11.3-0.1-17-0.2c-5.1-0.1-10.5-2.2-15.5-0.4&#10;&#9;&#9;&#9;c-1.1-0.1-2.1-0.1-3.2-0.2c-2.5-0.1-5.3,0-7.5,1.2c-0.2,0.1-0.2,0.3-0.1,0.4c0.2,0.2,0.4,0.3,0.5,0.4c-3.7,0-7.5,0.4-11,1.5&#10;&#9;&#9;&#9;c-0.2,0.1-0.3,0.4-0.1,0.5c0.1,0.1,0.2,0.1,0.3,0.2c-0.1,0.1-0.1,0.4,0.1,0.4c0.4,0.1,0.8,0.2,1.2,0.2c1.5,0.5,3.2,0.6,4.8,0.3&#10;&#9;&#9;&#9;c4.1,0,8.3-0.4,12.3,0.2c-2.5,0-5.1-0.5-7.4,0.7c-0.2,0.1-0.2,0.3-0.1,0.4c2,2,5.9,1.1,8.3,0.9c1.6-0.1,3.1-0.3,4.7-0.5&#10;&#9;&#9;&#9;c2.2-0.3,4.5-0.6,6.6,0.3c-4.1,1.2-8.7-1-12.5,1.5c-0.2,0.1-0.2,0.4,0,0.5c5.7,2.5,12.3-1,17.9,1.3c-2.8-0.1-5.7-0.3-8.2,0.8&#10;&#9;&#9;&#9;c-0.2,0.1-0.2,0.4,0,0.5c5.1,3,11.3,1.1,16.8,1.4c2.6,0.1,5.2,0.4,7.9,0.3c1.5-0.1,3.8-0.1,4.8-1.6c0.1-0.1,0-0.3-0.1-0.4&#10;&#9;&#9;&#9;c-1.7-0.9-3.5-0.5-5.3-0.7c3.5-0.3,7-0.7,10.5-0.3c2.6,0.3,5.9,0.9,8.2-0.7c0.2-0.1,0.2-0.3,0.1-0.4c-0.9-1-2.4-1.4-3.8-1.5&#10;&#9;&#9;&#9;c3.2-0.1,6.3-0.7,9.1-2.4C518.9,100.8,518.8,100.5,518.5,100.4z" transform="matrix(1, 0, 0, 1, 0, 0)"/><path fill="#9BF9F4" d="M586.3,78.8h-24.7c-0.6,0-0.6,1,0,1h24.7C587,79.8,587,78.8,586.3,78.8z" transform="matrix(1, 0, 0, 1, 0, 0)"/><path fill="#9BF9F4" d="M653,82.8h-82.7c-0.6,0-0.6,1,0,1H653C653.6,83.8,653.6,82.8,653,82.8z" transform="matrix(1, 0, 0, 1, 0, 0)"/><path fill="#9BF9F4" d="M623,93.5h-64.7c-0.6,0-0.6,1,0,1H623C623.6,94.5,623.6,93.5,623,93.5z" transform="matrix(1, 0, 0, 1, 0, 0)"/><path fill="#9BF9F4" d="M636.3,102.2h-58c-0.6,0-0.6,1,0,1h58C637,103.2,637,102.2,636.3,102.2z" transform="matrix(1, 0, 0, 1, 0, 0)"/><path fill="#9BF9F4" d="M566.3,56.2h-58c-0.6,0-0.6,1,0,1h58C567,57.2,567,56.2,566.3,56.2z" transform="matrix(1, 0, 0, 1, 0, 0)"/><path fill="#9BF9F4" d="M435.7,94.8h-40c-0.6,0-0.6,1,0,1h40C436.3,95.8,436.3,94.8,435.7,94.8z" transform="matrix(1, 0, 0, 1, 0, 0)"/><path fill="#9BF9F4" d="M475.7,102.8H439c-0.6,0-0.6,1,0,1h36.7C476.3,103.8,476.3,102.8,475.7,102.8z" transform="matrix(1, 0, 0, 1, 0, 0)"/><path fill="#9BF9F4" d="M545,79.5h-92.7c-0.6,0-0.6,1,0,1H545C545.6,80.5,545.6,79.5,545,79.5z" transform="matrix(1, 0, 0, 1, 0, 0)"/><path fill="#9BF9F4" d="M71,109.5H34.3c-0.6,0-0.6,1,0,1H71C71.6,110.5,71.6,109.5,71,109.5z" transform="matrix(1, 0, 0, 1, 0, 0)"/><path fill="#9BF9F4" d="M141.7,104.2H101c-0.6,0-0.6,1,0,1h40.7C142.3,105.2,142.3,104.2,141.7,104.2z" transform="matrix(1, 0, 0, 1, 0, 0)"/><path fill="#9BF9F4" d="M121.7,34.8H35c-0.6,0-0.6,1,0,1h86.7C122.3,35.8,122.3,34.8,121.7,34.8z" transform="matrix(1, 0, 0, 1, 0, 0)"/><path fill="#9BF9F4" d="M159.7,54.8h-76c-0.6,0-0.6,1,0,1h76C160.3,55.8,160.3,54.8,159.7,54.8z" transform="matrix(1, 0, 0, 1, 0, 0)"/><path fill="#9BF9F4" d="M131,47.5H88.3c-0.4,0-0.5,0.4-0.5,0.7H75.7c-0.6,0-0.6,1,0,1h30c0.4,0,0.5-0.4,0.5-0.7H131&#10;&#9;&#9;&#9;C131.6,48.5,131.6,47.5,131,47.5z" transform="matrix(1, 0, 0, 1, 0, 0)"/><path fill="#9BF9F4" d="M237.7,86.8h-58c-0.6,0-0.6,1,0,1h58C238.3,87.8,238.3,86.8,237.7,86.8z" transform="matrix(1, 0, 0, 1, 0, 0)"/><path fill="#9BF9F4" d="M223.7,94.8h-77.3c-0.6,0-0.6,1,0,1h77.3C224.3,95.8,224.3,94.8,223.7,94.8z" transform="matrix(1, 0, 0, 1, 0, 0)"/><path fill="#9BF9F4" d="M171.7,114.2H113c-0.6,0-0.6,1,0,1h58.7C172.3,115.2,172.3,114.2,171.7,114.2z" transform="matrix(1, 0, 0, 1, 0, 0)"/><path fill="#9BF9F4" d="M179,120.2h-62c-0.6,0-0.6,1,0,1h62C179.6,121.2,179.6,120.2,179,120.2z" transform="matrix(1, 0, 0, 1, 0, 0)"/><path fill="#9BF9F4" d="M193.7,140.8h-38c-0.6,0-0.6,1,0,1h38C194.3,141.8,194.3,140.8,193.7,140.8z" transform="matrix(1, 0, 0, 1, 0, 0)"/><path fill="#9BF9F4" d="M231.7,137.5c-0.6,0-0.6,1,0,1S232.3,137.5,231.7,137.5z" transform="matrix(1, 0, 0, 1, 0, 0)"/><path fill="#9BF9F4" d="M297.7,80.2h-38c-0.6,0-0.6,1,0,1h38C298.3,81.2,298.3,80.2,297.7,80.2z" transform="matrix(1, 0, 0, 1, 0, 0)"/><path fill="#9BF9F4" d="M308.3,85.5h-16.7c-0.6,0-0.6,1,0,1h16.7C309,86.5,309,85.5,308.3,85.5z" transform="matrix(1, 0, 0, 1, 0, 0)"/><path fill="#9BF9F4" d="M471,73.5h-51.3c-0.6,0-0.6,1,0,1H471C471.6,74.5,471.6,73.5,471,73.5z" transform="matrix(1, 0, 0, 1, 0, 0)"/><path fill="#9BF9F4" d="M618.3,125.5h-38c-0.6,0-0.6,1,0,1h38C619,126.5,619,125.5,618.3,125.5z" transform="matrix(1, 0, 0, 1, 0, 0)"/><path fill="#9BF9F4" d="M666.3,136.2h-38c-0.6,0-0.6,1,0,1h38C667,137.2,667,136.2,666.3,136.2z" transform="matrix(1, 0, 0, 1, 0, 0)"/><path fill="#9BF9F4" d="M675.7,122.2h-38c-0.6,0-0.6,1,0,1h38C676.3,123.2,676.3,122.2,675.7,122.2z" transform="matrix(1, 0, 0, 1, 0, 0)"/><path fill="#9BF9F4" d="M613,19.5h-74c-0.6,0-0.6,1,0,1h74C613.6,20.5,613.6,19.5,613,19.5z" transform="matrix(1, 0, 0, 1, 0, 0)"/><path fill="#9BF9F4" d="M661.7,28.8H595c-0.6,0-0.6,1,0,1h66.7C662.3,29.8,662.3,28.8,661.7,28.8z" transform="matrix(1, 0, 0, 1, 0, 0)"/><path fill="#9BF9F4" d="M184.3,14.2h-34c-0.6,0-0.6,1,0,1h34C185,15.2,185,14.2,184.3,14.2z" transform="matrix(1, 0, 0, 1, 0, 0)"/><path fill="#9BF9F4" d="M184.3,34.8h-30c-0.6,0-0.6,1,0,1h30C185,35.8,185,34.8,184.3,34.8z" transform="matrix(1, 0, 0, 1, 0, 0)"/><path fill="#9BF9F4" d="M481,14.8H329c-0.6,0-0.6,1,0,1h152C481.6,15.8,481.6,14.8,481,14.8z" transform="matrix(1, 0, 0, 1, 0, 0)"/><path fill="#9BF9F4" d="M23.5,52C23.5,52,23.5,52,23.5,52c-0.1,0.1-0.2,0.2-0.2,0.3c-0.6,0.6-0.6,1.5,0,2.1c0.6,0.6,1.5,0.6,2.1,0&#10;&#9;&#9;&#9;c0.3-0.3,0.6-0.6,0.8-1c0.2-0.4,0.3-0.9,0.3-1.4C26.5,50.1,23.5,50.1,23.5,52z" transform="matrix(1, 0, 0, 1, 0, 0)"/><path fill="#9BF9F4" d="M39.7,15.2c-1.9,0-1.9,3,0,3S41.6,15.2,39.7,15.2z" transform="matrix(1, 0, 0, 1, 0, 0)"/><path fill="#9BF9F4" d="M177,54.5c-1.9,0-1.9,3,0,3S178.9,54.5,177,54.5z" transform="matrix(1, 0, 0, 1, 0, 0)"/><path fill="#9BF9F4" d="M221.7,22.5c-1.9,0-1.9,3,0,3S223.6,22.5,221.7,22.5z" transform="matrix(1, 0, 0, 1, 0, 0)"/><path fill="#9BF9F4" d="M23.7,92.5c-1.9,0-1.9,3,0,3S25.6,92.5,23.7,92.5z" transform="matrix(1, 0, 0, 1, 0, 0)"/><path fill="#9BF9F4" d="M79.5,128v0.7c0,1.9,3,1.9,3,0V128C82.5,126.1,79.5,126.1,79.5,128z" transform="matrix(1, 0, 0, 1, 0, 0)"/><path fill="#9BF9F4" d="M135.7,142.5c-1.9,0-1.9,3,0,3S137.6,142.5,135.7,142.5z" transform="matrix(1, 0, 0, 1, 0, 0)"/><path fill="#9BF9F4" d="M246.1,147.6l-0.7-0.7c-0.6-0.6-1.5-0.6-2.1,0c-0.6,0.6-0.6,1.5,0,2.1l0.7,0.7c0.6,0.6,1.5,0.6,2.1,0&#10;&#9;&#9;&#9;C246.6,149.1,246.6,148.2,246.1,147.6z" transform="matrix(1, 0, 0, 1, 0, 0)"/><path fill="#9BF9F4" d="M211.7,59.8h-2c-1.9,0-1.9,3,0,3h2C213.6,62.8,213.6,59.8,211.7,59.8z" transform="matrix(1, 0, 0, 1, 0, 0)"/><path fill="#9BF9F4" d="M313.7,109.2c-1.9,0-1.9,3,0,3S315.6,109.2,313.7,109.2z" transform="matrix(1, 0, 0, 1, 0, 0)"/><path fill="#9BF9F4" d="M293.7,17.8h-1.3c-1.9,0-1.9,3,0,3h1.3C295.6,20.8,295.6,17.8,293.7,17.8z" transform="matrix(1, 0, 0, 1, 0, 0)"/><path fill="#9BF9F4" d="M482.3,44c-0.2-0.5-0.7-0.9-1.3-0.9c-0.8,0-1.5,0.7-1.5,1.5c0,1.2,1,2.1,2.2,2.2c0.8,0.1,1.5-0.7,1.5-1.5&#10;&#9;&#9;&#9;C483.2,44.7,482.8,44.3,482.3,44z" transform="matrix(1, 0, 0, 1, 0, 0)"/><path fill="#9BF9F4" d="M506.4,24.5C506.4,24.5,506.4,24.5,506.4,24.5C506.6,24.5,506.3,24.4,506.4,24.5c-0.1-0.1-0.2-0.1-0.2-0.1&#10;&#9;&#9;&#9;c0,0-0.1-0.1-0.1-0.1c-0.6-0.6-1.5-0.6-2.1,0c-0.6,0.6-0.6,1.6,0,2.1c0.7,0.6,1.5,1,2.4,1.1c0.8,0.1,1.5-0.7,1.5-1.5&#10;&#9;&#9;&#9;C507.8,25.2,507.2,24.6,506.4,24.5z" transform="matrix(1, 0, 0, 1, 0, 0)"/><path fill="#9BF9F4" d="M642.7,15.6c-0.2-0.2-0.4-0.4-0.7-0.7c-0.6-0.6-1.5-0.6-2.1,0c-0.6,0.6-0.6,1.5,0,2.1&#10;&#9;&#9;&#9;c0.2,0.2,0.4,0.4,0.7,0.7c0.6,0.6,1.5,0.6,2.1,0C643.3,17.1,643.3,16.2,642.7,15.6z" transform="matrix(1, 0, 0, 1, 0, 0)"/><path fill="#9BF9F4" d="M683,53.8c-1.9,0-1.9,3,0,3S684.9,53.8,683,53.8z" transform="matrix(1, 0, 0, 1, 0, 0)"/><path fill="#9BF9F4" d="M677,94.5h-0.7c-1.9,0-1.9,3,0,3h0.7C678.9,97.5,678.9,94.5,677,94.5z" transform="matrix(1, 0, 0, 1, 0, 0)"/><path fill="#9BF9F4" d="M545.7,94.5c-1.9,0-1.9,3,0,3S547.6,94.5,545.7,94.5z" transform="matrix(1, 0, 0, 1, 0, 0)"/><path fill="#9BF9F4" d="M508.1,124.3c-0.2-0.2-0.4-0.4-0.7-0.7c-0.6-0.6-1.5-0.6-2.1,0c-0.6,0.6-0.6,1.5,0,2.1&#10;&#9;&#9;&#9;c0.2,0.2,0.4,0.4,0.7,0.7c0.6,0.6,1.5,0.6,2.1,0C508.6,125.8,508.6,124.9,508.1,124.3z" transform="matrix(1, 0, 0, 1, 0, 0)"/><path fill="#9BF9F4" d="M578.3,170.5h-0.7c-1.9,0-1.9,3,0,3h0.7C580.3,173.5,580.3,170.5,578.3,170.5z" transform="matrix(1, 0, 0, 1, 0, 0)"/><path fill="#9BF9F4" d="M645,162.5c-1.9,0-1.9,3,0,3S646.9,162.5,645,162.5z" transform="matrix(1, 0, 0, 1, 0, 0)"/><path fill="#9BF9F4" d="M582.7,140.3c-0.6-0.6-1.5-0.6-2.1,0c0,0-0.1,0.1-0.1,0.1c-0.1,0-0.1,0.1-0.2,0.1c0,0,0,0,0.1,0&#10;&#9;&#9;&#9;&#9;c0,0-0.1,0-0.1,0c0,0,0,0,0,0c0,0,0,0,0,0c-0.8,0.1-1.4,0.7-1.4,1.5c0,0.8,0.7,1.6,1.5,1.5c0.9-0.1,1.7-0.5,2.4-1.1&#10;&#9;&#9;&#9;&#9;C583.3,141.8,583.3,140.8,582.7,140.3z" transform="matrix(1, 0, 0, 1, 0, 0)"/><path fill="#9BF9F4" d="M580.3,140.5C580.4,140.4,580.1,140.5,580.3,140.5L580.3,140.5z" transform="matrix(1, 0, 0, 1, 0, 0)"/><path fill="#9BF9F4" d="M580.3,140.5L580.3,140.5C580.3,140.5,580.3,140.5,580.3,140.5C580.3,140.5,580.3,140.5,580.3,140.5&#10;&#9;&#9;&#9;&#9;C580.3,140.5,580.3,140.5,580.3,140.5z" transform="matrix(1, 0, 0, 1, 0, 0)"/><path fill="#9BF9F4" d="M246.5,166.8c0,0,0-0.1,0-0.1c0-1.9-3-1.9-3,0c0,0.6,0,1.2,0.3,1.7c0.4,0.7,1.1,1.1,1.9,1.1&#10;&#9;&#9;&#9;c0.8,0.1,1.5-0.7,1.5-1.5C247.2,167.5,246.9,167,246.5,166.8z" transform="matrix(1, 0, 0, 1, 0, 0)"/><path fill="#9BF9F4" d="M323.7,81.2c-1.9,0-1.9,3,0,3S325.6,81.2,323.7,81.2z" transform="matrix(1, 0, 0, 1, 0, 0)"/><path fill="#9BF9F4" d="M389,75.8c-1.9,0-1.9,3,0,3S390.9,75.8,389,75.8z" transform="matrix(1, 0, 0, 1, 0, 0)"/><path fill="#9BF9F4" d="M386.2,100.6c-0.2-0.4-0.5-0.7-0.8-1c-0.6-0.6-1.5-0.6-2.1,0c-0.6,0.6-0.6,1.5,0,2.1&#10;&#9;&#9;&#9;c0.1,0.1,0.2,0.2,0.2,0.2c0,0,0,0,0,0c0,1.9,3,1.9,3,0C386.5,101.5,386.4,101.1,386.2,100.6z" transform="matrix(1, 0, 0, 1, 0, 0)"/><path fill="#9BF9F4" d="M175,153.2h-1.3c-1.9,0-1.9,3,0,3h1.3C176.9,156.2,176.9,153.2,175,153.2z" transform="matrix(1, 0, 0, 1, 0, 0)"/>
</svg>