<svg viewBox="0 0 225 31" xmlns="http://www.w3.org/2000/svg" version="1.1" enable-background="new 0 0 700 490">
 <g>
  <title>Layer 1</title>
  <g id="svg_21">
   <path fill="#333333" d="m26.1,15.4c0,-2.3 0.4,-4.4 1.2,-6.3s1.9,-3.5 3.3,-4.8c1.4,-1.3 3,-2.4 4.9,-3.1c1.9,-0.7 3.9,-1.1 6,-1.1c1.7,0 3.1,0.2 4.4,0.5c1.3,0.3 2.4,0.7 3.4,1.1c1.1,0.5 2,1 2.8,1.5l-4.6,8.1c-0.5,-0.4 -1,-0.7 -1.5,-1c-0.5,-0.2 -1.1,-0.5 -1.8,-0.7c-0.7,-0.2 -1.5,-0.3 -2.3,-0.3c-0.9,0 -1.7,0.2 -2.5,0.5s-1.4,0.8 -2,1.3s-1,1.2 -1.3,1.9s-0.5,1.5 -0.5,2.4c0,0.8 0.2,1.6 0.5,2.4c0.3,0.7 0.8,1.4 1.4,1.9c0.6,0.6 1.3,1 2.1,1.3c0.8,0.3 1.6,0.5 2.6,0.5c0.9,0 1.8,-0.1 2.5,-0.4c0.7,-0.2 1.3,-0.5 1.8,-0.8c0.6,-0.3 1.1,-0.7 1.5,-1.1l4.6,8.1c-0.8,0.6 -1.7,1.2 -2.8,1.7c-0.9,0.4 -2.1,0.8 -3.4,1.1c-1.3,0.4 -2.8,0.5 -4.5,0.5c-2.3,0 -4.4,-0.4 -6.3,-1.1c-1.9,-0.7 -3.6,-1.8 -5,-3.1c-1.4,-1.3 -2.5,-3 -3.3,-4.8c-0.8,-1.8 -1.2,-3.9 -1.2,-6.2z" id="svg_97"/>
   <path fill="#333333" d="m62.3,0.8l7,0l11.1,29.2l-9.2,0l-1,-2.6l-8.8,0l-1,2.6l-9.2,0l11.1,-29.2zm5.5,20.1l-2,-5.1l-2,5.1l4,0z" id="svg_98"/>
   <path fill="#333333" d="m81.1,0.8l10.1,0c1.9,0 3.6,0.2 5.2,0.7c1.6,0.5 3,1.2 4.1,2.2c1.2,1 2.1,2.2 2.7,3.6c0.7,1.4 1,3 1,4.9c0,1.5 -0.2,2.7 -0.6,3.7c-0.4,1 -0.9,1.9 -1.4,2.5c-0.6,0.8 -1.2,1.4 -2,1.9l5.5,9.6l-11,0l-4.4,-7.4l0,7.4l-9.3,0l0,-29.1l0.1,0zm9.3,14.3l0.5,0c1.1,0 2.1,-0.2 2.8,-0.7c0.8,-0.5 1.2,-1.3 1.2,-2.5c0,-1.2 -0.4,-2 -1.2,-2.5c-0.8,-0.5 -1.7,-0.7 -2.8,-0.7l-0.5,0l0,6.4z" id="svg_99"/>
   <path fill="#333333" d="m106.6,0.8l9.9,0l0,29.2l-9.9,0l0,-29.2z" id="svg_100"/>
   <path fill="#333333" d="m119.6,0.8l11.4,0c1.5,0 2.8,0.2 4,0.5c1.2,0.3 2.2,0.8 3.1,1.5c0.9,0.7 1.5,1.5 2,2.5c0.5,1 0.7,2.1 0.7,3.4c0,0.9 -0.1,1.7 -0.4,2.4c-0.2,0.7 -0.5,1.2 -0.7,1.6c-0.3,0.5 -0.7,1 -1.1,1.3c0.6,0.4 1.2,0.9 1.8,1.6c0.4,0.6 0.8,1.3 1.2,2.1c0.4,0.8 0.5,1.9 0.5,3.1c0,1.4 -0.2,2.7 -0.7,3.8s-1.2,2.1 -2.1,2.9c-0.9,0.8 -2,1.4 -3.4,1.8c-1.3,0.4 -2.8,0.6 -4.4,0.6l-11.9,0l0,-29.1zm12.2,8.9c0,-1.3 -0.7,-2 -2.2,-2l-1.1,0l0,4l1.1,0c1.5,0 2.2,-0.7 2.2,-2zm-2.2,13.4c2.2,0 3.3,-0.8 3.3,-2.5c0,-1.7 -1.1,-2.5 -3.3,-2.5l-1.1,0l0,5.1l1.1,0l0,-0.1z" id="svg_101"/>
   <path fill="#333333" d="m143.5,15.4c0,-2.1 0.4,-4.1 1.2,-6c0.8,-1.9 1.9,-3.5 3.3,-4.9c1.4,-1.4 3,-2.5 4.9,-3.3c1.9,-0.8 3.9,-1.2 6,-1.2s4.1,0.4 6,1.2c1.9,0.8 3.5,1.9 4.9,3.3c1.4,1.4 2.5,3 3.3,4.9c0.8,1.9 1.2,3.9 1.2,6c0,2.1 -0.4,4.1 -1.2,6c-0.8,1.9 -1.9,3.5 -3.3,4.9c-1.4,1.4 -3,2.5 -4.9,3.3c-1.9,0.8 -3.9,1.2 -6,1.2s-4.1,-0.4 -6,-1.2c-1.9,-0.8 -3.5,-1.9 -4.9,-3.3c-1.4,-1.4 -2.5,-3 -3.3,-4.9s-1.2,-3.9 -1.2,-6zm9.2,0c0,0.8 0.2,1.6 0.5,2.4c0.3,0.7 0.8,1.4 1.3,1.9s1.2,1 1.9,1.3c0.7,0.3 1.5,0.5 2.4,0.5s1.6,-0.2 2.4,-0.5c0.7,-0.3 1.4,-0.8 1.9,-1.3s1,-1.2 1.3,-1.9c0.3,-0.7 0.5,-1.5 0.5,-2.4c0,-0.8 -0.2,-1.6 -0.5,-2.4c-0.3,-0.7 -0.8,-1.4 -1.3,-1.9s-1.2,-1 -1.9,-1.3c-0.7,-0.3 -1.5,-0.5 -2.4,-0.5s-1.6,0.2 -2.4,0.5c-0.7,0.3 -1.4,0.8 -1.9,1.3s-1,1.2 -1.3,1.9c-0.4,0.8 -0.5,1.6 -0.5,2.4z" id="svg_102"/>
   <path fill="#333333" d="m188.5,30.7c-1.8,0 -3.5,-0.2 -5,-0.7s-2.8,-1.2 -3.8,-2.1c-1.1,-0.9 -1.9,-2.1 -2.4,-3.5s-0.9,-3.1 -0.9,-5l0,-18.6l9.3,0l0,18.2c0,1 0.2,1.8 0.6,2.3c0.4,0.5 1.1,0.8 2.1,0.8c1,0 1.7,-0.3 2.1,-0.8c0.4,-0.5 0.6,-1.3 0.6,-2.3l0,-18.2l9.4,0l0,18.6c0,1.9 -0.3,3.6 -0.9,5s-1.4,2.6 -2.5,3.5c-1.1,0.9 -2.3,1.6 -3.8,2.1s-3,0.7 -4.8,0.7z" id="svg_103"/>
  </g>
  <path d="m206.2,7.2l18.7,0l0,2l-18.7,0l0,-2z" fill="#333333" id="svg_29"/>
  <path d="m206.2,11.2l18.7,0l0,2l-18.7,0l0,-2z" fill="#333333" id="svg_30"/>
  <path d="m206.2,15.8l18.7,0l0,2l-18.7,0l0,-2z" fill="#333333" id="svg_31"/>
  <path d="m0,7.2l18.7,0l0,2l-18.7,0l0,-2z" fill="#333333" id="svg_32"/>
  <path d="m0,11.2l18.7,0l0,2l-18.7,0l0,-2z" fill="#333333" id="svg_33"/>
  <path d="m0,15.8l18.7,0l0,2l-18.7,0l0,-2z" fill="#333333" id="svg_34"/>
 </g>

</svg>
