<svg width="700" height="490" xmlns="http://www.w3.org/2000/svg" version="1.1" enable-background="new 0 0 700 490">
 <g>
  <title>Layer 1</title>
  <path d="m0,0l700,0l0,490l-700,0l0,-490z" fill="#00949E" id="svg_1"/>
  <path fill="#3CA5A0" d="m700,417l-700,0l0,-272c0,0 19,-63 169,59c39.8,32.4 159.6,-89 214.3,-89c115.7,0 128.8,75.1 193.8,83.1c76.9,9.5 122.9,-53.1 122.9,-53.1l0,272z" id="svg_2"/>
  <path fill="#58BFB8" d="m0,417l0,-272c0,0 14.1,-46.8 114,18.3c16,10.5 95.3,221.6 133.5,253.7l-247.5,0z" id="svg_3"/>
  <path fill="#58BFB8" d="m700,417c0,0 -371.4,-302 -316.7,-302c115.7,0 128.8,75.1 193.8,83.1c76.9,9.5 122.9,-53.1 122.9,-53.1l0,272z" id="svg_4"/>
  <path d="m700,113l-57.09998,135l-31,-103l-32,106.10001l-41.70001,-138.10001l-77.20001,256l77.20001,0l6.09998,0l-9.59998,32l77.20001,0l77.19996,0l-8.09998,-27l19,0l0,-261z" fill="#64DDDA" id="svg_5"/>
  <path d="m154.10001,161l-26.10001,106.10001l-34,-138.10001l-34.6,140.79999l-59.4,-160.79999l0,201l0,59l34.9,0l-3.9,16l63,0l5,0l-7.9,32l63.00001,0l63,0l-63,-256z" fill="#64DDDA" id="svg_6"/>
  <path d="m642.90002,248l-31,-103l0,256l77.19996,0l-8.09998,-27l-38.09998,-126z" fill="#60C6C1" id="svg_7"/>
  <path d="m93.7,130.2l4.9,270.8l-77.2,0l72.3,-270.8z" fill="#60C6C1" id="svg_8"/>
  <path d="m538.20001,113l-26.30002,87.10001l26.30002,168.89999l6.09998,0l53.20001,0l-59.29999,-256z" fill="#60C6C1" id="svg_9"/>
  <path d="m413.79999,136.60001l-18.5,57.5l-46.79999,-145.20001l-38.70001,120.3l-22.59998,-70.4l-90.30002,280.30001l90.30002,0l48.5,0l-12.20001,37.89999l90.29999,0l90.20001,0l-90.20001,-280.39999z" fill="#64DDDA" id="svg_10"/>
  <path d="m283.29999,109l0,256l-86.4,0l86.4,-256z" fill="#60C6C1" id="svg_11"/>
  <path d="m367.20001,106.8l28.09998,87.30001l-28,170.89999l-6.09998,0l-64.90002,0l70.90002,-258.2z" fill="#60C6C1" id="svg_12"/>
  <path d="m287.20001,98.8l-0.5,1.5l-11.90002,36.80001l8.40002,-10.60001l4,21l2.9,-16l3.5,5l4.1,-5.10001l-10.5,-32.59999z" fill="#9BF9F4" id="svg_13"/>
  <path d="m94.2,128.60001l-0.5,1.59999l-9.3,37.90001l5.8,-11.70002l4,21l2.9,-16l3.5,5l2,-2.5l-8.4,-35.29998z" fill="#9BF9F4" id="svg_14"/>
  <path d="m154.2,160.8l-0.5,1.5l-9.30001,37.9l5.80001,-11.7l4,21l2.90001,-16l3.5,5l2,-2.5l-8.40001,-35.2z" fill="#9BF9F4" id="svg_15"/>
  <path d="m413.5,136.39999l-0.5,1.5l-11.79999,36.90001l8.4,-10.6l3.89999,21l3,-16l3.5,5l4,-5.09999l-10.5,-32.70002z" fill="#9BF9F4" id="svg_16"/>
  <path d="m348.60001,48.8l-0.5,1.5l-11.9,36.9l8.19998,-10.7l4.20002,21l3.19998,-16l3.80002,5l3.6,-4.3l-10.6,-33.4z" fill="#9BF9F4" id="svg_17"/>
  <path d="m538.29999,113l-0.5,1.5l-11.20001,37l7.40002,-10.8l4.29999,21l3.20001,-16l3.70001,5l3.29999,-3.80001l-10.20001,-33.89999z" fill="#9BF9F4" id="svg_18"/>
  <path d="m611.59998,145.10001l-0.5,1.5l-10.89997,37.19999l7.20001,-11l4.19996,21l3.20001,-16l3.79999,5l3.60003,-3.40001l-10.60003,-34.29998z" fill="#9BF9F4" id="svg_19"/>
  <path fill="#333333" d="m695.5,328.8c0,-0.6 0,-1.2 0,-1.8c0,-0.5 -0.8,-0.7 -1,-0.2c0,-2.2 -0.1,-4.3 -0.6,-6.4c-0.1,-0.5 -0.9,-0.5 -1,0c-0.7,2.8 -1.2,5.5 -2.2,8.1c0,0 -0.1,0 -0.1,0c0.3,-3.3 0.9,-6.6 1.3,-9.9c0,0 0,0 0,0l0,0c0,0 0,-0.1 0,-0.1c0.1,-0.6 -0.8,-0.7 -1,-0.1c-0.4,1.5 -0.7,3 -1,4.5l0,-7c0,-0.6 0,-1.2 0,-1.8c0,-0.6 -1,-0.6 -1,0l0,2.3c0,2.8 -0.1,5.7 -1,8.4l0,-0.3c0.1,-1.3 0.3,-2.5 0.5,-3.8c0,-0.3 -0.2,-0.6 -0.5,-0.6l0,-3.5c0.2,-1.8 0.4,-3.7 0.5,-5.5c0,-0.3 -0.2,-0.5 -0.5,-0.5l0,-2c0,-0.2 0,-0.3 0,-0.5c0.2,0 0.5,-0.2 0.5,-0.5l0,-5.6c0,-0.3 -0.2,-0.5 -0.5,-0.5l0,-10.5c0,-0.6 -1,-0.6 -1,0l0,17.5c-0.1,0.9 -0.1,1.8 -0.1,2.7c-0.2,-0.2 -0.7,-0.2 -0.9,0.2c-1.5,4.6 -1.3,9.5 -2.1,14.2c-0.8,-14.5 1,-29.1 -0.9,-43.6c0,0 0,0 0,0c0,0 0,0 0,0c0,0 0,-0.1 0,-0.1c-0.1,-0.6 -0.9,-0.4 -1,0.1c-1.3,11.9 -0.4,23.8 0.3,35.7c-0.8,-4.9 -1.6,-9.7 -2.3,-14.6c-0.4,-2.9 -0.7,-5.9 -1.6,-8.8c-0.4,-1.2 -1.4,-2.1 -1.9,-0.4c-0.2,0.6 0.6,0.8 0.9,0.4c0.1,0.4 0.2,0.7 0.3,1.1c0.3,1.2 0.5,2.4 0.7,3.6c0.4,2.5 0.8,5 1,7.6c0,0.1 0,0.3 0,0.4c-0.2,-0.4 -0.4,-0.9 -0.6,-1.3c-0.2,-0.3 -0.7,-0.3 -0.9,0c-0.5,1.2 -0.9,2.5 -1.1,3.7c-0.5,-1.6 -1,-3.1 -1.6,-4.7c-0.1,-0.5 -0.3,-1 -0.4,-1.4c0,-0.1 -0.1,-0.2 -0.2,-0.3c-0.3,-0.7 -0.5,-1.5 -0.8,-2.2c-0.2,-0.6 -1.2,-0.3 -1,0.3c0.5,1.3 0.9,2.6 1.4,3.9c0.8,2.8 1.5,5.6 2.1,8.5c0,2.3 0.2,4.7 0.5,7c0.1,0.7 0.1,1.5 0.2,2.2c0.1,1.6 0.1,3.3 0.1,4.9c-1.7,-4.3 -3,-8.8 -5,-12.9c-0.2,-0.4 -1,-0.2 -0.9,0.3c0.4,3.4 1.1,6.8 1.6,10.2c-0.6,-2 -1.3,-3.9 -2.1,-5.9c-0.2,-0.5 -1,-0.5 -1,0.1c0.1,3.5 0.7,6.9 0.6,10.3c-1.9,-3.4 -3.5,-6.9 -5.7,-10.1c-0.4,-0.5 -1.2,0 -0.9,0.5c2.2,3.1 3.7,6.6 5.6,9.9c-0.9,0.2 -1.8,0.4 -2.7,0.6c-1,-3.7 -2.3,-7.3 -3.5,-10.9c-0.2,-0.5 -1,-0.4 -1,0.1l0,2c0,0 0,0 0,0c-0.2,0 -0.4,0.1 -0.5,0.3l-2.7,10.7c0,0 -0.1,0 -0.1,0c0.4,-2.9 1,-5.7 1.3,-8.6c0.1,-0.6 -0.8,-0.7 -1,-0.1c-0.4,1.3 -0.7,2.6 -1,3.9c0,-1.6 0,-3.2 0,-4.8c0,-0.5 -0.9,-0.7 -1,-0.1c0,0 0,0.1 0,0.1l0,0l0,0c-0.5,3.5 -0.5,7.1 -0.7,10.6c-1.2,0.5 -2.3,1.1 -3.4,1.7c0.2,-3.9 0.6,-7.9 1.1,-11.8c0.1,-0.6 -0.9,-0.6 -1,0c-0.5,4.1 -0.9,8.1 -1.2,12.2c0.4,-8.1 0.6,-16.3 2.2,-24.2c0,0.6 1,0.6 1,0l0,-4.5c0,-0.6 -0.8,-0.7 -1,-0.1c-2.2,8.6 -2.7,17.4 -3.1,26.2c-0.4,-2.4 -0.4,-4.9 -0.4,-7.1c0,-0.6 -1,-0.6 -1,0c0,3.3 0.2,7.1 1.1,10.6c-0.6,0.4 -1.2,0.8 -1.8,1.2c-0.5,-8.2 -3,-16.4 -4.9,-24.4c-0.1,-0.6 -1,-0.4 -1,0.1c0,1.7 1.5,9 2.6,16c-1.7,-4.5 -3.7,-8.8 -5.7,-13.2c-0.3,-0.6 -1.1,-0.1 -0.9,0.5c2.6,5.9 5.4,11.7 7.2,17.8c0.2,1.4 0.3,2.7 0.3,3.8c-1.3,-3.3 -2.3,-6.6 -3.1,-10c-0.2,-0.6 -1.1,-0.4 -1,0.3c0.1,0.4 0.2,0.9 0.2,1.3c-2,-4.3 -4.2,-8.5 -5.3,-13.1c-0.1,-0.6 -1.1,-0.4 -1,0.3c1,4 2.8,7.8 4.6,11.5c-0.1,0.1 -0.1,0.2 -0.1,0.3c0,0.2 0.1,0.4 0.2,0.6c0.1,0.1 0.3,0.3 0.3,0.4c0,0.3 0.2,0.4 0.5,0.5c0.5,1.1 1.1,2.3 1.5,3.4c0.3,1.7 0.7,3.4 1.1,5.1c-0.2,-0.1 -0.4,0 -0.5,0.2c-0.4,1 -1.2,1.8 -1.9,2.6c-0.1,-0.5 0,-1.1 -0.3,-1.6c-0.1,-0.2 -0.4,-0.3 -0.6,-0.2c-0.8,0.2 -1.3,0.9 -2,1.3c-0.1,-0.8 -0.1,-1.6 -0.4,-2.4c-0.1,-0.4 -0.7,-0.5 -0.9,-0.1c-0.5,0.8 -1.1,1.5 -1.7,2.2c0,-0.4 0.1,-0.8 0.1,-1c0.1,-0.5 -0.7,-0.6 -0.9,-0.3c-0.2,0.2 -0.3,0.5 -0.4,0.7c0,-0.3 0,-0.7 -0.2,-1.1c-0.1,-0.3 -0.6,-0.5 -0.8,-0.2c-0.4,0.5 -0.7,1.1 -1.1,1.7l0,-1.8c0,-0.5 -0.7,-0.7 -0.9,-0.3c-0.2,0.5 -0.4,0.9 -0.6,1.4l0,-0.1c0,-0.7 -0.9,-0.6 -1,0c0,0.4 -0.1,0.7 -0.2,1c-0.2,0 -0.4,0 -0.5,0c-0.1,-0.5 -0.1,-1.1 -0.1,-1.6c0.6,-2 1.1,-4.1 1.4,-6.3c0,-0.2 -0.1,-0.4 -0.2,-0.5c1.1,-2.8 2.4,-5.6 3.7,-8.3c0.3,-0.6 -0.5,-1.1 -0.9,-0.5c-1.4,2.6 -2.7,5.3 -3.8,8c0.2,-3.8 0.5,-7.5 1,-11.3c0.2,-0.6 0.4,-1.3 0.7,-1.9c0.1,-0.3 -0.1,-0.5 -0.3,-0.6c0.1,-0.6 0.2,-1.3 0.3,-1.9c0.1,-0.6 -0.7,-0.9 -1,-0.3c-1.7,4.4 -2.6,9.1 -3.6,13.7c-0.6,2.3 -1.3,4.6 -1.9,6.8c-0.6,1.6 -1.2,3.2 -2,4.7c-0.1,0 -0.2,0 -0.4,0c-0.2,-0.9 -0.3,-1.9 -0.4,-2.8c0.3,-8.5 1.6,-17 3.7,-25.2c0.2,-0.6 -0.7,-0.9 -1,-0.3c-1.7,4.7 -2.7,9.6 -3.5,14.5c-0.1,-1.2 -0.3,-2.3 -0.6,-3.5c-0.1,-0.4 -0.7,-0.5 -0.9,-0.1c-2.9,5.5 -1.8,11.6 -1.4,17.6c-0.2,0 -0.4,0 -0.5,0.1c-0.3,-2.5 -0.4,-5 -0.5,-7.5c-0.1,-2.1 -0.1,-4.3 0,-6.4c0.1,-2.3 0.4,-4.5 0.8,-6.7c-0.3,1.7 -0.4,3.5 -0.5,5.2c0,0.6 1,0.6 1,0c0.1,-4.4 1,-8.6 2,-12.9c0.1,-0.5 -0.6,-0.9 -0.9,-0.4c-0.7,1.4 -1.2,2.8 -1.7,4.2c0.2,-1.4 0.4,-2.9 0.6,-4.3c0.1,-0.6 -0.8,-0.9 -1,-0.3c-2.3,8.6 -2.6,17.4 -2.6,26.3c-2.4,-5.1 -5.8,-9.8 -8.9,-14.7c-0.8,-1.4 -1.6,-2.8 -2.6,-4.2c-0.4,-0.5 -1.2,-0.1 -0.9,0.5c0.8,1.4 1.6,2.7 2.5,4.1c1.6,2.9 2.8,5.9 4,9.1c0,0.1 0,0.2 0,0.2c0.2,1 0.4,2.1 0.7,3.1c-0.8,-1 -1.8,-1.9 -2.9,-2.6c-0.3,-0.2 -0.8,0.1 -0.8,0.4c0.2,2.1 0.7,4 1.3,6c-1.3,-2.5 -2.7,-5 -4.4,-7.2c-0.2,-0.3 -0.8,-0.3 -0.9,0.1c-0.5,1.8 -0.4,3.5 0,5.3c0.1,0.6 1.1,0.4 1,-0.3c-0.3,-1.3 -0.4,-2.4 -0.2,-3.6c1.6,2.3 3,4.8 4.3,7.4c0,0.1 0,0.1 -0.1,0.2c-0.3,-0.7 -0.7,-1.4 -1,-2c-0.2,-0.3 -0.7,-0.3 -0.9,0c-0.3,0.7 -0.7,1.5 -0.9,2.3c-0.3,-0.4 -0.5,-0.8 -0.9,-1c-0.3,-0.2 -0.7,0 -0.8,0.4c0,0.6 -0.1,1.2 -0.2,1.8c-0.3,-0.5 -0.6,-0.9 -1.1,-1.2c-0.2,-0.1 -0.4,-0.1 -0.6,0.1c-0.7,0.7 -0.5,1.3 -0.8,2.1c-0.3,-0.3 -0.7,-0.8 -1,-1.1c-0.3,-0.3 -0.7,-0.1 -0.8,0.2c-0.3,0.7 -0.4,1.5 -0.5,2.2c-0.2,-0.3 -0.4,-0.7 -0.7,-0.9c-0.3,-0.2 -0.6,-0.2 -0.8,0.1c-0.4,0.6 -0.4,1.1 -0.4,1.6c-0.1,0.1 -0.3,0.1 -0.4,0.2c-0.3,-0.4 -0.6,-0.7 -1,-1c-0.3,-0.2 -0.8,0.1 -0.8,0.4c0,0.4 0.1,0.9 0.1,1.4c-0.1,0.1 -0.2,0.1 -0.3,0.2c-0.2,-0.2 -0.3,-0.4 -0.5,-0.5c-0.5,-0.2 -0.9,0.2 -0.7,0.7c0.1,0.1 0.1,0.2 0.2,0.3c-0.1,0.1 -0.2,0.1 -0.3,0.2c-0.6,-0.3 -1.2,-0.5 -1.8,-0.8c-0.6,-0.2 -0.9,0.7 -0.3,1c0.4,0.2 0.7,0.3 1,0.4c-0.8,0.5 -1.5,1 -2.1,1.5c0.4,-1.5 0.8,-3 1,-4.6c0.4,-2.7 0,-5.5 -0.2,-8.3c-0.2,-3 -0.3,-6 -0.4,-9c-0.1,-3 -0.1,-6 -0.1,-9c0,-1.4 0,-2.9 0.2,-4.3c0.1,-1.5 0.4,-3 0.6,-4.5c0.2,-1.7 0.3,-3.6 -1.1,-4.9c-0.1,-0.1 -0.2,-0.2 -0.3,-0.3c0,-0.1 0,-0.2 -0.1,-0.2c-0.2,-0.1 -0.3,-0.2 -0.5,-0.3c-0.1,-0.1 -0.2,-0.1 -0.2,0c-0.2,-0.1 -0.4,-0.3 -0.6,-0.4c-1,-0.6 -1.8,-1.4 -2.5,-2.3c-1.5,-1.8 -2.6,-4.1 -3.5,-6.2c-0.8,-2 -1.7,-4.2 -2.2,-6.3c-0.6,-2.6 -0.1,-5.1 0.7,-7.6c0.8,-2.5 1.8,-5.1 2.7,-7.6c1.7,-4.8 2.6,-9.7 1.1,-14.7c-0.7,-2.2 -1.8,-4.1 -3.2,-5.8c0.7,-0.2 1.4,-0.3 2.1,-0.4c0.2,0 0.3,-0.2 0.1,-0.3c-0.1,-0.1 -0.3,-0.2 -0.4,-0.3c0.5,-0.1 1.1,-0.3 1.6,-0.3c0,0 0.1,0 0.1,0c0.3,0 0.5,0 0.8,0c0.2,0 0.2,-0.3 0,-0.4c-0.2,-0.1 -0.4,-0.1 -0.6,-0.2l3.1,0c0.2,0 0.2,-0.4 0,-0.4c-1,0 -1.8,-0.3 -2.5,-0.9c1.2,0 2.4,0.1 3.5,-0.2c0.2,0 0.2,-0.3 0,-0.3c-0.3,-0.2 -0.5,-0.4 -0.8,-0.6c1.2,0.2 2.4,0.4 3.7,0.6c0.2,0 0.3,-0.3 0.1,-0.3l-2.8,-1.4c0.9,-0.1 1.8,-0.1 2.7,-0.1c0.2,0 0.3,-0.3 0,-0.4c-2.9,-0.5 -5.8,-0.8 -8.7,-0.6c-2.3,0.2 -5.2,0.8 -6.2,3c-3.3,-2.2 -7.2,-3.6 -11,-4.2c-2.5,-0.4 -5.1,-0.9 -7.6,-1.2c-1.6,-0.2 -3.8,-0.3 -5.3,0.5c-1.3,0.2 -2.6,0.4 -3.9,0.7c-2.7,0.6 -5.4,1.2 -8.1,1.4c-2.9,0.3 -5.8,0.4 -8.7,0.5c-1.4,0 -2.8,0.1 -4.2,0.2c-1.3,0.2 -2.6,0.5 -3.9,0.8c-1.4,0.3 -2.7,0.6 -4.1,0.8c-1.5,0.2 -2.9,0.1 -4.4,-0.1c-3,-0.3 -6,-1 -9,-1.7c-5,-1.2 -10.3,-3 -15.4,-1.5c-3,0.9 -5.4,3.1 -8.5,3.9c-0.1,0 -0.3,0 -0.4,0c-0.4,-1 -1.5,-1.8 -1.8,-2.9c-0.7,-2.2 1.9,-3.4 3.3,-4.5c1.5,-1.1 2.7,-2.5 3.4,-4.2c0.7,-1.7 0.7,-3.6 0.3,-5.4c0,-0.1 -0.1,-0.1 -0.2,-0.1c-2.5,-0.3 -4.7,1 -6.8,2.4c2.7,-3.1 6.6,-4.6 10.5,-5.7c4.2,-1.2 8.5,-2.1 12.3,-4.4c4,-2.4 7.2,-6 9.5,-10c2.6,-4.5 3.8,-9.5 4.8,-14.5c0.9,-4.3 1.6,-8.7 2.1,-13.1c0.5,-4.5 0.8,-9.1 0.8,-13.7c-0.1,-3.9 -0.9,-7.7 -3.3,-10.9c-2.2,-2.9 -5.2,-5.1 -8,-7.4c-0.1,-0.1 -0.3,0 -0.3,0.1c0.2,1.5 0.5,3 1,4.4c-0.6,-0.1 -1.1,0 -1.8,0.1c-0.1,0 -0.2,0.2 -0.2,0.3c0.9,1.6 2.3,2.8 3.5,4.1c1.3,1.4 2.7,3.1 2.7,5.1c-3.2,-0.1 -6.4,-0.9 -9.6,-0.4c-0.2,0 -0.2,0.2 -0.1,0.3c0.3,0.4 0.5,0.8 0.7,1.2c-0.9,0.1 -2.8,0.4 -2.5,1.6c0.2,1 2.2,1.4 3,1.6c3,0.6 8.6,-0.8 9.7,3.1c0.5,1.9 -0.5,4.4 -1.3,6.1c-0.7,1.5 -1.5,2.9 -2.8,4.1c-0.9,0.8 -2.6,1.9 -2.7,3.2c-0.1,1.5 1.5,1.3 2.4,1c0.6,-0.2 1.2,-0.5 1.8,-0.8c0.1,2.2 -0.5,4.4 -1.1,6.6c-0.6,2 -1.2,3.9 -1.6,5.9c-0.3,1.4 -0.7,2.7 -1.2,4c-0.4,1 -1.2,2.6 -2.5,2.6c-0.8,0 -1.4,-0.8 -1.8,-1.4c-0.6,-0.7 -0.7,-1.6 -0.9,-2.5c-0.4,-2 -0.9,-3.8 -1.9,-5.6c-2.3,-4.4 -5.5,-8.6 -7,-13.3c-0.1,-0.2 -0.4,-0.2 -0.4,0c0,2.6 0.1,5.3 0.8,7.8c-0.4,-0.2 -0.9,-0.4 -1.2,-0.7c-0.2,-0.1 -0.4,0 -0.3,0.2c0.4,0.8 0.9,1.6 1.4,2.3c-0.8,-0.4 -1.6,-0.7 -2.6,-0.7c-0.1,0 -0.2,0.2 -0.2,0.3c1.5,2.3 3.7,3.7 5.6,5.6c2.3,2.4 3.2,6 3.9,9.1c0.5,2.5 1.2,5.6 0,8c-0.5,1.1 -1.5,1.9 -2.5,2.5c-1.1,0.7 -2.7,1.6 -4.1,1.6c0.1,-1.6 0.6,-3.1 1.1,-4.6c0.4,-1.5 0.7,-2.9 0.7,-4.5c0,-2.9 -1.2,-5.6 -2.7,-8c-0.1,-0.1 -0.3,-0.1 -0.3,0c-0.4,1.9 -0.4,3.9 -1.2,5.7c-2.8,-2.3 -5.2,-5 -7.2,-8c-0.1,-0.2 -0.4,-0.1 -0.3,0.1c0.3,1.5 0.2,3.1 0.4,4.6c-0.5,0 -0.9,0.1 -1.4,0c-0.2,-0.1 -0.3,0.2 -0.1,0.3c2.5,1.8 4.9,4 6.4,6.7c0.7,1.3 1.2,2.9 1,4.4c-0.3,1.8 -1.6,3.1 -3,4.1c-1.7,1.2 -3.4,2.4 -5.2,3.5c-1.5,1 -2.9,2 -4.5,2.7c-2,1 -4.5,2 -4.9,4.5c-0.9,-0.2 -1.9,0 -2.9,0.1c-0.6,0.1 -1.2,0.2 -1.8,0.3c-0.4,0.1 -1.2,0.3 -1.6,0c-0.1,-0.1 -0.3,0 -0.3,0.1c-0.8,-0.8 -1.9,-1.4 -2.9,-1.8c-2.1,-1 -4.4,-1.7 -6.5,-2.9c-2.1,-1.1 -3.7,-2.7 -4.7,-4.8c-1,-2.1 -1.5,-4.4 -2.3,-6.6c-0.1,-0.2 -0.4,-0.2 -0.4,0l0,0.5c-0.4,-0.5 -0.9,-0.9 -1.3,-1.4c-0.1,-0.1 -0.3,-0.1 -0.3,0c-0.6,3.1 1.4,5.9 2,8.9c-2,-1.7 -4.7,-2.5 -6.3,-4.8c-0.8,-1.2 -1.1,-2.9 -1.4,-4.3c-0.3,-1.6 -0.5,-3.1 -0.9,-4.7c-0.6,-2.8 -1.7,-5.3 -1.5,-8.2c0.1,-2.9 1.6,-5.5 3.1,-7.8c0.1,-0.1 0,-0.3 -0.2,-0.3c-2,-0.1 -0.9,-1.8 -0.1,-2.7c0.2,-0.2 0,-0.4 -0.2,-0.3c-0.7,0.4 -1.4,0.8 -2,1.3c0.3,-1.1 0.7,-2.1 0.6,-3.2c0,-0.2 -0.2,-0.2 -0.3,-0.1c-0.9,0.8 -1.3,1.9 -1.6,3c-0.4,1.1 -0.6,2.9 -1.6,3.7c-1.7,1.3 -2.1,-4.3 -2.1,-5.2c0,-0.2 -0.3,-0.3 -0.4,0c0,0 0,0 0,0c0,0 0,0 0,0c-0.3,2.1 0.1,4.2 0,6.3c-0.2,-0.3 -0.5,-0.6 -0.8,-1c-0.1,-0.1 -0.3,-0.1 -0.3,0c-1.1,2.9 -0.7,6.2 -0.1,9.2c0.3,1.8 0.8,3.5 1.3,5.2c0.4,1.2 0.7,2.5 1.2,3.7c0.9,2.1 1.8,4.3 2.8,6.4c0.5,1.1 1,2.1 1.5,3.1c0.1,0.3 0.4,0.8 0.7,1c0,0 0,0.1 0,0.1c-2.8,-0.8 -5.1,-2.4 -6.7,-4.8c-1.6,-2.3 -2.4,-5.1 -3.2,-7.7c-0.5,-1.7 -1.1,-3.4 -1.7,-5.1c-0.8,-1.9 -1.6,-3.8 -2.1,-5.9c-0.5,-1.7 -0.4,-3.4 0.2,-5.1c0.5,-1.5 1.3,-2.9 1.7,-4.4c0,-0.1 -0.1,-0.3 -0.2,-0.2c-1.3,0.2 -2.2,1.1 -3.1,1.9c-2.7,-3.8 -0.4,-8.5 0,-12.6c0,-0.2 -0.3,-0.2 -0.3,-0.1c-0.7,1.2 -1.3,2.6 -2.5,3.4c-0.5,-1.9 -1,-3.9 -1.1,-5.9c0,-0.2 -0.3,-0.3 -0.3,-0.1c-1.7,3.3 -2.1,6.7 -1.5,10.3c0.7,3.8 2.4,7.3 3.6,11c1.4,4.1 2.9,8.2 4.1,12.3c0.5,1.7 0.9,3.3 1.5,4.9c0.5,1.6 1.1,3.2 1.2,4.9c-1.8,-1.3 -3.1,-3.1 -4,-5.2c-1,-2.5 -1.9,-5.2 -2.8,-7.8c-1.8,-5.1 -3.6,-10.3 -4.8,-15.7c-0.3,-1.1 -0.5,-2.3 -0.9,-3.4c-0.4,-1.1 -0.9,-2.2 -1.3,-3.3c-0.9,-2.3 -1.6,-4.8 -0.9,-7.3c0.6,-2.2 2.2,-4.2 3.7,-6c1.4,-1.7 2.9,-3.3 4.4,-5.1c0.1,-0.1 0,-0.3 -0.1,-0.3c-2.8,0.3 -4.9,2.6 -7.7,3l0,-6.7c0,-0.1 -0.2,-0.2 -0.3,-0.2c-3,2 -3.6,6.5 -4.2,9.8c-0.3,2.1 -0.8,4.1 -0.8,6.2c-0.1,2.7 0.4,5.4 1,8c1.3,5.9 4,11.2 6,16.8c0.9,2.5 1.5,5.1 2.4,7.6c0.8,2.3 1.9,4.3 3.1,6.4c1.9,3.4 4.1,6.9 7.1,9.5c3.1,2.6 7.4,3.4 11.3,3.9c2.1,0.3 4.3,0.5 6.4,0.7c2.3,0.2 4.7,0.3 7,0.8c1,0.2 3.4,0.9 4.4,2.1c-0.1,0 -0.1,0 -0.2,0c-0.2,0 -0.1,0.4 0.1,0.4c0.1,0 0.2,0 0.3,-0.1c0.2,0.4 0.3,0.8 0.1,1.3c-0.1,0.2 -0.4,0.4 -0.6,0.7c-2.4,-2.9 -6.1,-5.3 -9.7,-3.1c-0.1,0 -0.1,0.2 -0.1,0.3c1,1.4 1.2,3 2,4.5c0.8,1.4 2.5,2.4 3.9,3.3c1.3,0.8 2.7,1.5 4,2.4c0.6,0.4 1.1,0.9 1.5,1.5c0.4,3.3 1.3,6.4 2.4,9.5c0,0 0,0 0,0.1c0,0.1 0,0.2 0.1,0.2c0.4,1.2 0.8,2.3 1.2,3.4c0.8,2.2 1.5,4.5 2,6.8c0.6,2.5 0.6,5.1 0.9,7.6c0.2,2.3 0.5,4.6 1,6.8c0.6,2.3 1.6,4.5 2.7,6.6c1,1.9 2.3,3.7 4,5.1c0.9,0.7 1.8,1.3 2.6,2c0.7,0.6 1.5,1.3 1.8,2.2c0.1,2.2 0.7,4.4 1.3,6.5c0.7,2.6 1.3,5.2 1.8,7.8c0.5,3 1,6.1 1,9.1c0.1,3 0.1,5.9 0.3,8.9c0.1,3 0.3,5.9 0.2,8.9c0,1.4 -0.1,2.8 -0.2,4.3c-0.1,1.1 -0.1,2.4 -0.4,3.5c-0.3,0.9 -0.6,1.8 -1,2.7l-3.6,0c-0.2,-0.6 -0.9,-1.1 -1.3,-1.5c-0.2,-0.2 -0.5,-0.2 -0.7,0c-0.2,-0.2 -0.4,-0.3 -0.6,-0.5c-0.3,-2.4 -0.5,-4.8 -0.5,-7.2c0,-0.6 -1,-0.6 -1,0c0,2 -0.2,3.9 -0.7,5.7c-0.1,-0.1 -0.3,-0.2 -0.4,-0.2c0,-2.3 0.3,-4.6 0.6,-6.9c0.1,-0.5 -0.6,-0.9 -0.9,-0.4c-0.2,0.3 -0.3,0.7 -0.5,1c-0.3,0.6 -0.7,1.3 -1,1.9c0.5,-1.5 0.9,-3 1.4,-4.5c0.1,-0.5 -0.5,-0.9 -0.8,-0.5c-0.6,0.8 -1.1,1.7 -1.5,2.5c0,-0.4 -0.1,-0.8 -0.1,-1.2c0,-0.6 -0.8,-0.7 -1,-0.1c-0.1,0.5 -0.3,1 -0.6,1.5c0,-0.8 0.1,-1.6 0.1,-2.4c0,-0.3 -0.2,-0.4 -0.3,-0.5c0,-0.1 0,-0.1 0.1,-0.2c1.1,-2.1 2.7,-4.2 4.9,-4.8c0.6,-0.2 0.4,-1.1 -0.3,-1c-2.1,0.6 -3.5,2.2 -4.7,4c-0.2,-0.1 -0.5,0 -0.6,0.2c-0.7,1.2 -1.2,2.4 -1.7,3.7c0,-0.8 0,-1.5 0.2,-2.3c0.1,-0.6 -0.8,-0.9 -1,-0.3c0,0 0,0.1 -0.1,0.1c0,-0.2 0,-0.3 0,-0.5c0,-0.6 -0.9,-0.7 -1,-0.1c-0.3,2 -0.7,3.9 -1,5.9c-0.1,0.2 -0.1,0.5 -0.2,0.7c-0.1,0 -0.2,0 -0.2,-0.1c-0.1,-0.7 -0.1,-1.4 -0.1,-1.9c-0.1,-1.2 -0.2,-2.5 -0.4,-3.7c-0.1,-0.5 -0.9,-0.5 -1,0c-0.1,0.2 -0.1,0.4 -0.2,0.7c0,0 0,0 0,0c0.1,-0.3 0.1,-0.6 0.2,-0.9c0,-0.3 -0.1,-0.5 -0.4,-0.6c0,-0.5 -0.1,-1 -0.2,-1.4c0.3,-0.6 0.6,-1.2 1,-1.8c0.3,-0.6 -0.5,-1 -0.9,-0.5c-0.2,0.2 -0.3,0.5 -0.5,0.8c-0.2,-0.6 -0.4,-1.2 -0.7,-1.8c-0.2,-0.3 -0.7,-0.3 -0.9,0c-0.4,0.8 -0.7,1.5 -0.9,2.3c-1,-2.2 -2.1,-4.3 -3.2,-6.5c-0.8,-1.8 -1.6,-3.6 -2.5,-5.3c-0.2,-0.5 -1.1,-0.1 -0.9,0.4c0,0 0,0.1 0.1,0.1l0,0c0.7,1.6 1.5,3.3 2.3,4.9c0.4,0.8 0.7,1.6 1.1,2.4c-0.6,-0.9 -1.3,-1.9 -2,-2.8c-0.3,-0.4 -1.1,-0.2 -0.9,0.4c0.9,2.3 1.8,4.7 2.4,7.1c-3.7,-2.5 -9.7,-4.2 -16.5,-4.4c0.4,-0.7 0.7,-1.4 1,-2.1c0.2,-0.5 -0.3,-0.9 -0.7,-0.7c0.2,-0.6 0.5,-1.3 0.7,-1.9c0.2,-0.5 -0.7,-0.9 -0.9,-0.4c-0.8,1.4 -1.6,2.8 -2.5,4.2c0.1,-0.9 0.2,-1.9 0.4,-2.8c0,-0.1 0,-0.2 0,-0.2c0.1,-0.4 0.3,-0.8 0.5,-1.1c0.3,-0.6 -0.6,-1.1 -0.9,-0.5c-0.3,0.5 -0.5,1.1 -0.7,1.7c-0.3,0.4 -0.6,0.8 -1,1.1c0.2,-1.6 0.5,-3.3 1,-4.9c0.2,-0.6 -0.8,-0.9 -1,-0.3c-0.8,2.7 -1.7,5.5 -3.2,8c0,0 0,0 0,0c0.2,-1.7 0.4,-3.4 0.7,-5.2c0.1,-0.6 -0.7,-0.9 -1,-0.3c-0.1,0.4 -0.3,0.8 -0.4,1.2c-0.2,-0.1 -0.5,0 -0.6,0.3c-0.3,0.9 -0.8,1.8 -1.3,2.6c-0.8,-3 -1.5,-6 -2.2,-9.1c-0.1,-0.6 -1.1,-0.4 -1,0.3c0.8,3.4 1.6,6.7 2.5,10.1c0,0.1 -0.1,0.2 -0.1,0.3c-1,-1.3 -2,-2.5 -2.4,-4.1c-0.1,-0.2 -0.2,-0.3 -0.4,-0.3c-0.3,-1.3 -0.5,-2.6 -0.8,-3.8c-0.3,-2.1 -0.8,-4.2 -1.3,-6.3c-0.2,-0.6 -1.1,-0.4 -1,0.3c0.5,2 0.9,4.1 1.3,6.1c0.4,2.4 0.6,4.9 0.6,7.3c-0.3,-0.6 -0.7,-1.2 -1,-1.8c-0.3,-0.5 -1,-0.1 -0.9,0.4c0.3,1.6 0,3.1 -0.3,4.7c-0.4,-1.1 -0.9,-2.3 -1.3,-3.4c-0.2,-0.6 -1.1,-0.4 -1,0.3c0.3,1.5 0.5,3 0.7,4.5c-0.2,0.1 -0.4,0.3 -0.6,0.4c-0.8,-1.4 -1.6,-2.8 -2.1,-4.4c-0.1,-0.6 -0.3,-1.2 -0.5,-1.8c-0.2,-0.6 -1.1,-0.4 -1,0.3c0.1,0.6 0.3,1.2 0.5,1.8c0.1,0.7 0.2,1.3 0.3,2c-0.4,-0.7 -0.9,-1.4 -1.4,-2.1c-0.4,-0.5 -1.2,-0.1 -0.9,0.5c0.8,1.5 1.6,2.9 2.3,4.4c0,0.3 0,0.6 -0.1,1c-0.2,-0.2 -0.5,-0.1 -0.7,0c-0.2,-0.6 -0.5,-1.2 -0.6,-1.8c-0.2,-0.6 -1.1,-0.4 -1,0.3c0.3,1.5 0.7,3.1 1,4.6c0,0 0,0.1 0,0.1c-1.4,0.1 -2.7,0.3 -4,0.4c-0.1,-0.4 -0.1,-0.8 -0.2,-1.3c0.2,-2 0.2,-3.9 0,-5.9c0.2,-1.2 0.4,-2.4 0.7,-3.5c0.1,-0.6 -0.8,-0.9 -1,-0.3c-0.2,0.5 -0.3,1.1 -0.5,1.6c-0.2,0 -0.4,0.1 -0.5,0.2c-0.3,0.4 -0.5,0.8 -0.8,1.2c0.1,-1.2 0.2,-2.3 0.2,-3.5c0,-0.6 -1,-0.6 -1,0c0,1.9 -0.2,3.7 -0.3,5.6c-0.1,0.1 -0.2,0.3 -0.2,0.4c0,-0.2 0,-0.3 0,-0.5c0.3,-3 0.4,-6 0.6,-9c0,-0.7 -0.9,-0.6 -1,0c-0.4,3 -0.5,6 -0.6,9c-0.2,0 -0.4,0.2 -0.4,0.5c-0.1,1.7 -1.3,2.9 -2.2,4.2c0,-0.1 -0.1,-0.1 -0.1,-0.2c0.1,-3 -0.1,-6 -0.2,-8.9c0,-0.3 0.1,-0.5 0.1,-0.8l0,0.7c0,0.6 1,0.6 1,0l0,-6c0,-0.6 -0.9,-0.7 -1,-0.1c-0.1,0.6 -0.2,1.1 -0.4,1.7c-0.1,-1.7 -0.1,-3.4 -0.2,-5.1c0,-0.6 -1,-0.6 -1,0c0,4.3 -0.3,8.7 -0.3,13c-0.2,-0.9 -0.4,-1.8 -0.7,-2.7c-0.2,-0.5 -1,-0.4 -1,0.1c0,1.6 0.1,3.2 0.2,4.8c-0.3,0.7 -0.5,1.4 -0.8,2.1c-0.6,-3.5 -1.1,-7.1 -2.4,-10.5c-0.2,-0.5 -1,-0.5 -1,0.1c-0.1,2.7 0.3,5.3 1,7.8c-0.3,-0.2 -0.5,-0.5 -0.8,-0.7c-1.5,-3.7 -3.5,-7.1 -6.3,-10c-0.4,-0.4 -1,0 -0.8,0.5c0.7,2.7 1.6,5.3 2.5,7.9c0,0 0,0.1 0,0.1c0.3,0.9 0.5,1.8 0.7,2.7c-1.4,-2 -3.1,-3.9 -4.9,-5.7c-0.5,-0.4 -1.2,0.3 -0.7,0.7c2.6,2.4 4.7,5.2 6.5,8.2c0.3,1.2 0.6,2.3 0.9,3.5c0,0.4 0,0.9 0,1.3c-0.1,0 -0.2,0.1 -0.3,0.1c-1.1,-1.1 -2.3,-2 -3.3,-3.2c-0.3,-0.4 -1.1,-0.2 -0.9,0.4c0.3,0.9 0.7,1.7 1.2,2.5c0,0 0,0 0,0c0,0 -0.1,0.1 -0.1,0.1c-1.4,-0.8 -2.8,-1.5 -4.3,-2.2c-0.2,-0.1 -0.5,0 -0.6,0.1c-1.8,-1.4 -3.8,-2.6 -5.9,-3.6c-0.6,-0.3 -1.1,0.6 -0.5,0.9c2.5,1.2 4.8,2.7 6.8,4.4c0.5,1 1.1,1.9 1.8,2.8c0,0 0,0 0,0c-0.2,-0.1 -0.3,-0.3 -0.6,-0.3c-0.8,0 -1.2,0.6 -1.6,1.3c-0.1,0.1 -0.2,0.1 -0.4,0.2c-0.2,-0.5 -0.3,-0.9 -0.4,-1.4c-0.1,-0.6 -0.8,-0.7 -1,-0.1c-0.2,0.6 -0.4,1.1 -0.6,1.7c-0.7,0 -1.4,0 -2,0.1c-0.6,-0.2 -1.2,-0.5 -1.8,-0.7c-0.2,-0.1 -0.4,0 -0.5,0.1c-0.2,0.2 -0.4,0.5 -0.6,0.8c-0.3,0 -0.6,0.1 -0.9,0.1c-0.1,-0.2 -0.1,-0.4 -0.2,-0.8c-0.1,-0.5 -0.9,-0.5 -1,0c-0.1,0.3 -0.1,0.7 -0.2,1c-0.2,0 -0.3,0.1 -0.5,0.1c-0.5,-0.5 -1,-0.9 -1.5,-1.3c-0.4,-0.4 -0.9,0 -0.8,0.5c0.1,0.3 0.1,0.6 0.1,0.9c-0.3,-0.2 -0.6,-0.4 -1,-0.5c-0.5,-0.1 -0.9,0.5 -0.5,0.8c0,0 -0.1,0.1 -0.2,0.3l-1.1,-1.1c-0.4,-0.4 -0.9,0.1 -0.8,0.5c-0.2,0 -0.4,0.2 -0.4,0.5l0,1.5c-0.2,0.1 -0.3,0.2 -0.5,0.2c-0.1,-0.1 -0.2,-0.1 -0.3,-0.2c-0.4,-0.2 -0.8,0.2 -0.8,0.6l-4.9,0c0.1,-0.1 0.1,-0.2 0.2,-0.3c0.8,-1.4 1.8,-3.2 0.5,-4.6c-2.7,-2.9 -3.4,-6.9 -4.2,-10.7c-0.4,-2 -1.1,-3.8 -1.7,-5.7c-0.6,-2 -1,-4.1 -1.3,-6.1c-0.7,-3.9 -1,-7.9 -1.5,-11.9c-0.2,-1.9 -0.5,-3.8 -0.8,-5.6c-0.3,-2 -0.3,-4 -0.4,-6c-0.1,-2.7 -0.3,-5.6 -2.1,-7.7c-1.4,-1.5 -3.3,-2.5 -5,-3.5c-2.1,-1.2 -4,-2.4 -5.6,-4.2c-3.3,-3.8 -4.8,-9 -6.8,-13.6c-1,-2.3 -2.3,-4.5 -3.9,-6.4c-1.8,-2.2 -2.8,-4.9 -2.9,-7.8c-0.1,-2.7 0.3,-5.5 0.6,-8.1c0.2,-2.7 0.5,-5.5 1.4,-8c0.1,0.2 0.3,0.4 0.4,0.6c0,0 0.1,0.1 0.1,0.1c0,0 0,-0.1 0,-0.1c0.5,0.7 1.1,1.3 1.7,1.8c0.1,0.1 0.3,0 0.3,-0.2c0,0 0,-0.1 0,-0.1c0.4,0.6 0.7,1.2 1.2,1.7c0.1,0.2 0.4,0 0.3,-0.2c-0.1,-0.2 -0.2,-0.4 -0.2,-0.6c0.2,0.2 0.4,0.4 0.6,0.6c0.1,0.1 0.3,0 0.3,-0.2c-0.2,-0.8 -0.7,-1.6 -1.1,-2.3c0.2,0.3 0.4,0.6 0.8,0.9c0.1,0.1 0.3,0 0.3,-0.2c-0.3,-1 -0.9,-1.9 -1,-3c0.4,0.6 0.9,1.2 1.6,1.4c0.1,0 0.3,-0.1 0.2,-0.2c-0.2,-0.6 -0.4,-1.2 -0.6,-1.9c0.3,0.4 0.7,0.7 1.1,1c0.1,0.1 0.3,0 0.3,-0.2c-0.2,-0.7 -0.5,-1.3 -0.7,-1.9c0.4,0.3 0.9,0.6 1.4,0.7c0.2,0.1 0.3,-0.1 0.2,-0.3c-0.2,-0.4 -0.3,-0.9 -0.5,-1.3c0.2,0.1 0.4,0.3 0.6,0.4c0.2,0.1 0.4,-0.1 0.2,-0.3c0,0 0,0 0,0l0,0c0,0 0,0 0,0c-0.2,-0.2 -0.5,-0.4 -0.7,-0.5c-0.2,-0.2 -0.4,-0.4 -0.6,-0.5c0.4,0.1 0.7,0.2 1.1,0.3c0.2,0.1 0.3,-0.2 0.2,-0.3c-0.2,-0.1 -0.4,-0.3 -0.6,-0.5c1.1,0.5 2.1,1 3.3,1.1c0.2,0 0.2,-0.1 0.2,-0.3c-2.6,-6.9 -11.8,-6.4 -17.7,-6c-2,0.2 -4,0.4 -6.1,0.2c-2.8,-0.3 -5.5,-1.1 -8.4,-1.4c-3,-0.3 -6,-0.3 -9,-0.4l-9.2,-0.4c-4.8,-0.2 -9.6,-0.6 -14.4,-0.4c-4.5,0.2 -9,1.2 -13.5,2c-2.2,0.4 -4.5,0.7 -6.7,0.9c-2.4,0.2 -4.8,0 -7.1,0.2c-2.4,0.2 -4.7,0.4 -7,-0.1c-1.8,-0.3 -3.6,-0.6 -5.5,-0.6c-5.3,-0.6 -9.9,-3.9 -15.1,-4.7c-5,-0.8 -9.8,1.8 -13.9,4.2c-4.6,2.7 -10.2,3.1 -15.3,2.2c-5.2,-0.9 -10.4,-2.9 -14.8,-5.7c-0.4,-0.2 -0.7,-0.5 -1.1,-0.8c0.8,-1.5 1.4,-3.2 1.3,-4.9c-0.1,-2.1 -1.6,-3.5 -3.7,-3.3c-2.2,0.2 -4.5,1.6 -6.2,3.1c-0.7,-0.5 -1.8,-0.6 -2.5,-0.8c-0.1,0 -0.3,-0.1 -0.4,-0.1c1.1,-2 3.7,-3.2 5.8,-3.9c3,-1.1 6.2,-1.7 9.3,-2.6c3.2,-0.9 6.7,-0.9 9.9,-1.4c2.5,-0.4 6.9,-1.3 7.6,-4.3c0,0 0,-0.1 0,-0.1c0.4,-0.9 0.8,-1.9 1.8,-2.1c0.2,-0.1 0.2,-0.3 0.1,-0.3c1.4,-0.9 3.2,-1.1 4.7,-1.4c2.4,-0.5 4.8,-0.4 7.1,-1c2.2,-0.6 4.4,-1.5 6.4,-2.4c1.9,-0.9 3.8,-1.7 5.5,-3c2.7,-2.1 4.6,-4.9 5.1,-8.2c0.3,-1.8 0.8,-5.5 -1.3,-6.5c-0.1,-0.1 -0.3,0.1 -0.2,0.2c0.1,0.3 0,0.5 0,0.9c-0.1,0.6 -0.1,1.3 -0.1,1.9c0,0.7 0,1.3 -0.1,2c-0.2,1 -0.8,1.9 -1.3,2.7c-1.8,2.9 -4,5.1 -7,6.6c-3.1,1.6 -6.3,3 -9.7,4c-2.9,0.9 -5.9,0.7 -8.8,1.5c0.2,-3.1 -0.1,-6.8 2.4,-9c1.3,-1.2 3,-1.8 4.3,-3c1.4,-1.3 2.8,-2.6 4.1,-4.1c1.2,-1.4 2.3,-3 3.4,-4.5c1.2,-1.5 2.5,-2.8 4,-4c2.6,-2 5.4,-3.7 6.9,-6.7c0.1,-0.1 -0.1,-0.2 -0.2,-0.2c-2.9,-0.5 -5.5,2.1 -8,3.1c0.4,-2.6 1.3,-5.2 1.4,-7.8c0,-0.1 -0.1,-0.2 -0.3,-0.2c-1.2,0.6 -1.8,2.2 -2.2,3.4c-0.6,1.7 -0.9,3.6 -1.6,5.3c-1.4,3.5 -4.7,6 -6.6,9.1c-1.3,2.2 -2.6,4.6 -4.6,6.2c-1.1,0.8 -2.5,1.2 -3.5,0.1c-0.8,-0.9 -1.3,-2.3 -1.7,-3.5c1.2,-3.7 5.5,-5.9 8.5,-8.1c1.7,-1.3 3.5,-2.7 4.5,-4.6c1.1,-2 0.9,-4.3 0.2,-6.3c-0.1,-0.2 -0.4,-0.1 -0.4,0.1c0.1,4.1 -3.1,6.5 -6.1,8.6c-2.9,2 -6.2,3.9 -7.6,7.2c0,-3.7 -0.4,-7.3 0.5,-10.9c0.8,-3.2 2.8,-5.9 3.4,-9.2c0,-0.1 -0.2,-0.2 -0.3,-0.2c-0.7,0.4 -1.3,0.9 -2,1.4c0,-0.6 0,-1.1 -0.1,-1.7c0,-0.2 -0.3,-0.2 -0.4,0c-0.9,3.1 -3,5.8 -4.5,8.6c-1.1,-1.4 -1.8,-3.2 -1.5,-5c0.2,-1.1 0.4,-2.3 -0.6,-3c-0.1,-0.1 -0.3,0 -0.3,0.2c0.1,1.3 -0.3,4.3 -1.9,4.7c0.1,-3.9 0.7,-7.7 2,-11.4c0,-0.1 -0.1,-0.3 -0.3,-0.2c-1.8,1 -2.3,2.8 -2.9,4.6c-0.9,2.2 -1.6,4.5 -2.1,6.8c-0.5,2.1 -0.8,4.3 -0.6,6.5c0.2,2.5 1.3,4.8 2.3,7.1c1.2,2.7 2.1,5.4 2.8,8.2c0.7,2.5 1.6,5 1.6,7.7c0.1,4.6 -2.8,8.5 -6.8,10.6c-2.7,1.4 -5.8,2.1 -8.8,2.8c-1.3,0.3 -2.5,0.6 -3.7,1c-1.5,0.5 -3.1,1.1 -4.7,1c-0.2,0 -0.2,0.1 -0.2,0.3c-1.1,-0.4 -2.2,-0.9 -3.2,-1.7c-1.2,-1 -2.2,-2.2 -3.2,-3.5c-2,-2.7 -3.6,-6 -4.2,-9.3c-0.6,-3.5 1,-7.3 2.7,-10.3c2,-3.4 4.9,-6.4 8.5,-8.2c0.2,-0.1 0.1,-0.3 -0.1,-0.4c-1.6,-0.1 -3,0.5 -4.4,1.2c1.2,-1.3 2.3,-2.7 3.3,-4.2c0.1,-0.1 0,-0.3 -0.2,-0.3c-3.4,0.7 -5.8,3.8 -7.7,6.5c-2,2.8 -4.8,5.6 -5.4,9.1c-0.5,1 -0.9,2.1 -1.6,3c-2.1,-1.1 -4.8,-2.5 -5.1,-5c0.2,-0.5 0.3,-1 0.5,-1.5c0.8,-1.9 2.2,-4.2 3.8,-5.4c1.4,-1.1 3.2,-1.1 4.2,-2.7c0.1,-0.1 0,-0.3 -0.2,-0.3c-1.1,0.1 -2.4,0.3 -3.4,0.8c0.6,-0.7 1.2,-1.6 1.5,-2.4c0.1,-0.1 -0.1,-0.3 -0.2,-0.2c-0.9,0.2 -1.8,0.3 -2.6,0.8c-0.9,0.5 -1.7,1.4 -2.3,2.2c-1.8,2.2 -3,4.8 -4.1,7.3c-1,2.3 -1.9,4.8 -1.7,7.4c0.3,3.6 2.1,6.7 3.1,10.1c-0.1,0 -0.2,-0.1 -0.3,-0.1c-0.9,-0.2 -1.7,-0.3 -2.5,-0.6c-1.9,-0.7 -3.4,-1.9 -4.1,-3.8c-0.8,-2.1 -0.8,-4.4 0,-6.5c0.8,-2 2.4,-3.6 4,-5.1c0.2,-0.2 -0.1,-0.4 -0.2,-0.3c-1.4,1.2 -2.9,2.5 -4.6,3.4c1.2,-1.8 2.5,-3.4 3.5,-5.3c0.1,-0.2 -0.1,-0.4 -0.2,-0.3c-2.7,1.4 -4.7,4.2 -6.2,6.7c-0.7,1.2 -1.3,2.6 -1.2,4c0.1,1.4 0.8,2.7 1.7,3.8c1.1,1.5 2.2,2.9 3.6,4.1c1.4,1.3 3,2.4 4.5,3.5c1.5,1.1 2.8,2.2 4.5,3c1.4,0.7 2.9,1.4 4.1,2.5c-2.3,-0.4 -4.5,-1.1 -6.6,-1.8c-2.1,-0.7 -4.5,-1.4 -6.4,-2.6c-3.5,-2.1 -6,-6.5 -5.6,-10.6c0,-0.2 -0.2,-0.3 -0.3,-0.1c-0.8,1.1 -1.1,2.2 -0.7,3.5c0.4,1.4 1.2,2.6 1.4,4c0.5,3.8 -4.3,2.4 -6.4,2c-0.1,0 -0.3,0.1 -0.2,0.2c0.3,2.5 4.2,2.8 6,3.2c3.8,0.7 7.1,2.9 11,3.6c2.5,0.5 4.9,1 7.3,1.7c1.3,0.4 2.7,0.8 3.9,1.4c0.5,0.2 1.3,0.6 1.8,1.2c-4.9,2.4 -9.8,4.7 -14.9,6.7c-5,1.9 -10.2,3.7 -15.3,5.2c-3.1,0.9 -7,2.4 -6.6,6.2c0.2,1.9 1.2,3.6 2.2,5.1c0.9,1.4 1.9,2.6 2.9,3.9c0,0 0,0.1 0.1,0.1c0,0 0,0 0,0c0,0.1 0.1,0.1 0.1,0.2c0.1,0.1 0.1,0.1 0.2,0c3.7,2.4 8.6,1.4 12.8,1.9c5.1,0.7 10.5,1 15.3,3c9.2,4 10,15.3 17,21.5c2.1,1.8 4.5,3.2 6.8,4.8c2.5,1.8 5,3.7 7.5,5.4c1.3,0.9 2.5,1.7 3.8,2.5c1.1,0.7 2.1,1.6 3.2,2.3c1.5,1.1 3.2,1.9 5,1.9c0,0.1 0.1,0.1 0.2,0.1c0.8,-0.1 1.5,-0.2 2.2,-0.3c0.1,0.6 0.1,1.1 0.2,1.7c0.4,4.1 0.2,8.2 0.1,12.3c-0.2,3.8 -0.2,7.6 0.2,11.4c0.2,1.8 0.7,3.5 1.1,5.3c0.4,1.9 0.5,3.8 0.5,5.8c0,3.8 -0.7,7.5 -1.7,11.2c-0.7,2.8 -1.5,5.8 -3.2,8.2c-0.6,0.9 -2.5,3 -2.2,4.3l-0.1,0l0,-0.7c0,-0.4 -0.4,-0.6 -0.7,-0.4c-0.2,-0.7 -0.3,-1.3 -0.3,-2.1c0,-0.7 -0.9,-0.6 -1,0c0,0.4 -0.1,0.8 -0.2,1.1c-0.2,-0.2 -0.6,-0.2 -0.8,0.1l-0.2,0.4c-0.1,-0.1 -0.1,-0.1 -0.2,-0.1c-0.1,0 -0.2,-0.1 -0.3,-0.1c0,0 0,0 -0.1,0c-0.2,-0.6 -0.4,-1.2 -0.9,-1.8c-0.2,-0.3 -0.7,-0.1 -0.8,0.2c-0.2,0.7 -0.6,1.4 -1,2.1c-0.2,-0.1 -0.3,-0.2 -0.5,-0.2c-0.2,-0.4 -0.5,-0.9 -0.6,-1.3c-0.1,-0.6 -0.9,-0.4 -1,0.1c0,0.5 -0.1,0.9 -0.2,1.4c-0.3,-0.8 -0.6,-1.7 -0.8,-2.5c-0.2,-0.5 -1,-0.4 -1,0.1l0,2.2c-0.2,-0.4 -0.4,-0.9 -0.5,-1.3c-0.2,-0.5 -0.9,-0.4 -1,0.1c0,0.1 0,0.2 0,0.3c-0.3,-2.1 -0.4,-4.2 -0.5,-6.3c0,-0.6 -1,-0.6 -1,0l0,6.4l-2.1,-3.1c-0.2,-0.3 -0.5,-0.3 -0.8,-0.1c-0.8,0.7 -1.6,0.1 -2.3,-0.1c-0.1,-0.7 -0.2,-1.5 -0.4,-2.2c-0.1,-0.4 -0.7,-0.5 -0.9,-0.1c-0.2,0.3 -0.3,0.6 -0.5,0.8c0,-0.4 -0.1,-0.7 -0.1,-1.1c0,-0.4 -0.4,-0.5 -0.7,-0.4c0,-0.5 0.1,-0.9 0.2,-1.4c0.1,-0.5 -0.6,-0.9 -0.9,-0.4c-0.2,0.4 -0.4,0.7 -0.7,1c0.1,-0.7 0.1,-1.5 0.1,-2.3c0,-0.6 -0.8,-0.6 -1,-0.1c-0.4,1.1 -1,2.1 -1.7,3c0.2,-1.6 0.3,-3.2 0.6,-4.8c0.1,-0.6 -0.8,-0.9 -1,-0.3c-0.1,0.2 -0.1,0.4 -0.2,0.6c0.1,-2 0.2,-4 0.2,-6c0,-0.6 -0.8,-0.7 -1,-0.1c-0.2,0.7 -0.3,1.4 -0.5,2.1c-0.2,-2 -0.4,-4 -0.6,-6c-0.1,-0.6 -1,-0.7 -1,0l0,4.5c-0.3,0 -0.6,0.2 -0.5,0.6c0.4,1.1 0.2,2.7 0.2,3.9c0,0.1 0,0.1 0,0.2c-0.2,-1.1 -0.4,-2.1 -0.5,-3.2c0.3,-3.2 0.6,-6.4 0.9,-9.5c0,-0.5 -0.7,-0.7 -0.9,-0.3c-0.3,0.5 -0.5,0.9 -0.7,1.4c-0.3,-0.2 -0.7,-0.2 -0.8,0.2c-0.2,1.2 -0.4,2.5 -0.6,3.7c-0.6,2.5 -0.9,5 -1.1,7.5c-0.3,-1 -0.6,-2 -0.9,-3l0,-5.2c0,-0.5 -0.9,-0.7 -1,-0.1c0,0 0,0.1 0,0.1l0,0l0,0c-0.1,0.6 -0.2,1.1 -0.2,1.7c-0.4,-1 -0.8,-2 -1.4,-3c-0.2,-0.4 -0.8,-0.3 -0.9,0.1c-0.2,1 -0.3,2.1 -0.3,3.2c-0.3,-0.1 -0.7,0.1 -0.7,0.5c0,0.5 -0.1,0.9 -0.4,1.2c-0.1,0.1 -0.1,0.2 -0.1,0.3c-1.5,-2.9 -3.3,-5.7 -4.6,-8.8c-0.2,-0.5 -1.1,-0.1 -0.9,0.4c0.9,2.6 1.8,5.1 2.5,7.7c-0.1,0.2 -0.1,0.4 0.1,0.5c0.2,0.7 0.3,1.4 0.5,2.2c-0.2,-0.6 -0.5,-1.1 -0.7,-1.7c-0.1,-0.3 -0.4,-0.4 -0.7,-0.3c-0.6,-1.3 -1.2,-2.7 -1.6,-4.1c-0.2,-0.9 -0.4,-1.7 -0.7,-2.6c-0.2,-0.6 -1.1,-0.4 -1,0.3c0.2,0.9 0.4,1.8 0.7,2.7c0.3,1.2 0.6,2.4 0.8,3.5c0,0 0,-0.1 -0.1,-0.1c-0.2,-0.3 -0.9,-0.3 -0.9,0.1c-0.1,1.1 -0.8,1.9 -1.5,2.7c-0.1,0 -0.2,0 -0.3,-0.1c-0.3,-0.3 -0.6,-0.7 -0.9,-1c0,-0.4 -0.1,-0.8 -0.1,-1.2c0.1,-0.4 0.2,-0.9 0.2,-1.3c0,-0.2 -0.2,-0.4 -0.4,-0.5c0,-0.3 -0.1,-0.7 -0.1,-1c0,-0.6 -0.8,-0.7 -1,-0.1c-0.4,0.9 -0.9,1.8 -1.2,2.8c-0.2,-0.4 -0.3,-0.8 -0.3,-1.3c-0.1,-0.4 -0.7,-0.5 -0.9,-0.1c-0.2,0.3 -0.3,0.6 -0.6,0.8l0,-0.7c0,-0.6 -0.8,-0.6 -1,-0.1c-0.2,0.5 -0.5,1 -0.8,1.4c-0.1,-0.2 -0.2,-0.5 -0.2,-0.8c1.5,-2.6 3.2,-5 5.3,-7.2c0.4,-0.5 -0.3,-1.2 -0.7,-0.7c-2.9,2.9 -5,6.4 -7,10c-0.2,-0.5 -0.4,-0.9 -0.7,-1.4c-0.2,-0.2 -0.4,-0.3 -0.6,-0.2c1.4,-3.3 3.5,-6.3 5.6,-9.3c0.4,-0.5 -0.5,-1 -0.9,-0.5c-2.1,3.1 -4.2,6.1 -5.7,9.5c-0.3,-0.4 -0.9,-0.2 -0.9,0.3l0,0.8c-0.7,-1.1 -1.4,-2.1 -2.2,-3.1c0.2,-2.7 0.6,-5.4 1.2,-8.1c0.1,-0.6 -0.8,-0.9 -1,-0.3c-0.5,2.4 -0.9,4.9 -1.2,7.3c-0.6,-0.7 -1.3,-1.4 -2,-2c-0.5,-0.4 -1.2,0.3 -0.7,0.7c0.9,0.9 1.8,1.8 2.6,2.7c0,0.4 -0.1,0.7 -0.1,1.1c-0.1,0.1 -0.2,0.2 -0.2,0.4c0,0.4 0,1 0,1.6c-0.2,0.2 -0.4,0.3 -0.6,0.5c-0.1,0 -0.3,0 -0.4,0c-0.1,-0.7 -0.3,-1.5 -0.5,-2.2c-0.2,-0.5 -0.9,-0.4 -1,0l0,0c-0.1,-0.3 -0.3,-0.4 -0.5,-0.3c-0.2,-0.3 -0.4,-0.5 -0.5,-0.8c-0.2,-0.3 -0.7,-0.3 -0.9,0c-0.2,0.3 -0.4,1.2 -0.7,1.6c-1.9,-7.1 -5.1,-13.7 -11.1,-18.3c-0.5,-0.4 -1,0.5 -0.5,0.9c2,1.5 3.6,3.2 5,5.2c-0.4,-0.3 -1,0.2 -0.7,0.7c2,3.3 4,6.8 5.6,10.3c-0.3,-0.1 -0.7,0.1 -0.7,0.5c0,-0.7 -0.9,-0.6 -1,0l0,-0.5c0,-0.5 -0.7,-0.7 -0.9,-0.3c-0.5,0.9 -1.1,1.8 -1.7,2.6c-1.7,-2.6 -3.9,-4.9 -6.6,-6.8c-0.5,-0.4 -1,0.5 -0.5,0.9c1.9,1.3 3.5,2.9 4.9,4.7c0,0 -0.1,0.1 -0.1,0.1c-0.5,0.9 -0.9,1.7 -1.4,2.6c-0.1,-0.4 -0.2,-0.9 -0.2,-1.3c0,-0.5 -0.8,-0.7 -1,-0.1c-0.3,0.9 -0.6,1.8 -1,2.7c-0.1,0 -0.3,0.1 -0.4,0.1c-0.1,-0.4 -0.1,-0.7 -0.1,-1.1c0,-0.5 -0.9,-0.7 -1,-0.1c-0.1,0.6 -0.3,1.1 -0.5,1.6c-0.3,0.1 -0.6,0.2 -1,0.2c-0.7,-0.8 -1.3,-1.8 -1.6,-2.9c-0.1,-0.3 -0.4,-0.4 -0.6,-0.3c0,0 0,0 0,0c0,0 -0.1,0 -0.1,0c0,0 -0.1,0 -0.1,0.1c0,0 0,0 0,0c0,0 -0.1,0.1 -0.1,0.1c0,0 0,0 0,0c0,0 0,0.1 0,0.2c0,0 0,0 0,0l0,2c-0.4,-0.7 -0.7,-1.4 -1,-2.2c-0.2,-0.5 -1,-0.5 -1,0.1c0,0.9 -0.1,1.7 -0.2,2.6c-0.5,-0.2 -0.9,-0.4 -1.4,-0.6c-0.2,-0.6 -0.3,-1.2 -0.4,-1.9c0,-0.6 -1,-0.6 -1,0c0,0.5 -0.1,1 -0.1,1.4c-0.6,-0.2 -1.2,-0.4 -1.8,-0.6c0,-0.3 -0.1,-0.6 -0.1,-0.9c0,-0.6 -1,-0.6 -1,0c0,0.2 0,0.4 0,0.5c-0.5,-0.1 -1.1,-0.2 -1.6,-0.4c0.2,-1 0.4,-2.1 0.6,-3c0.1,-0.6 -0.7,-0.9 -1,-0.3c-0.3,0.9 -0.7,1.7 -1,2.6c0,-0.1 0,-0.3 0,-0.4c0,-0.6 -0.8,-0.7 -1,-0.1c-0.5,1.5 -0.9,3 -1.5,4.4c0.5,-2.7 1.1,-5.5 1.5,-8.2c0.1,-0.5 -0.7,-0.7 -0.9,-0.3c-1.4,2.6 -2.5,5.3 -3.4,8.1c-0.1,-0.2 -0.2,-0.5 -0.3,-0.7c0.1,-1.2 0.2,-2.3 0.3,-3.5c0.2,-1.4 0.3,-2.8 0.4,-4.2c0.1,-0.6 -0.9,-0.6 -1,0c-0.1,1.3 -0.3,2.7 -0.4,4c-0.1,0.8 -0.2,1.7 -0.3,2.5c-0.2,0.1 -0.3,0.2 -0.3,0.4c0,0.7 -0.2,1.3 -0.3,2c-0.1,-0.6 -0.2,-1.1 -0.3,-1.7c0.2,-2.1 0.4,-4.2 0.6,-6.2c0.1,-0.6 -0.9,-0.6 -1,0c-0.1,0.6 -0.1,1.1 -0.2,1.7c-0.2,-2 -0.3,-4.1 -0.3,-6.2c0,-0.6 -1,-0.6 -1,0l0,11.4c-0.3,0 -0.5,0.2 -0.5,0.5c0,0.4 0.1,0.8 0.2,1.3c0.1,1.1 0.1,2.1 0.1,3.2c-0.1,0 -0.2,0 -0.2,0c0,-0.4 0,-0.9 -0.1,-1.3c-0.1,-2.4 -0.1,-4.7 -0.1,-7.1c0,-4.4 0.1,-8.7 0.1,-13.1c0,-0.5 -0.7,-0.7 -0.9,-0.3c-1.9,4.3 -2.3,8.8 -2.5,13.3c-0.8,-2 -1.7,-3.9 -2.6,-5.8c-0.2,-0.4 -0.8,-0.3 -0.9,0.1c0,-0.1 -0.1,-0.2 -0.1,-0.2c0,-3.2 0.1,-6.4 0.1,-9.6c0,-0.6 -1,-0.6 -1,0c0,2.4 -0.1,5 -0.2,7.6c-1.2,-2.1 -2.3,-4.2 -3.4,-6.3c0,-0.1 -0.1,-0.1 -0.1,-0.2c-0.1,-0.6 -0.1,-1.2 -0.1,-1.8c1.8,-4.1 3.7,-8.1 5.8,-12.1c0.3,-0.6 -0.6,-1.1 -0.9,-0.5c-1.8,3.4 -3.5,7 -5.1,10.5c-0.2,-0.4 -1,-0.4 -0.9,0.2c0,0.6 0.1,1.1 0.1,1.7c-2.1,5 -3.9,10.1 -4.9,15.3c-0.3,-0.1 -0.7,0.2 -0.7,0.6c0.1,0.4 0.2,0.8 0.3,1.3c-0.3,1.5 -0.5,3 -0.6,4.6c-0.2,-0.2 -0.3,-0.5 -0.5,-0.7c-0.2,-12.1 1.7,-24.8 8.2,-35c0.3,-0.5 -0.5,-1 -0.9,-0.5c-6.4,10 -8.4,22.3 -8.4,34.2c-0.4,-0.6 -0.8,-1.1 -1.3,-1.7c-0.4,-0.5 -1.2,-0.1 -0.9,0.5c0.7,1.1 1.3,2.2 1.8,3.3c0,0.2 -0.1,0.3 -0.1,0.5c-0.7,-1 -1.4,-2.1 -2.2,-3c0,0 0,0 0,0c0.6,-0.2 0.3,-1.2 -0.3,-1c0,0 0,0 -0.1,0c-0.1,-0.6 -0.2,-1.1 -0.3,-1.7c0,-0.2 -0.2,-0.3 -0.4,-0.4c-0.2,-3.3 -0.2,-6.6 0.1,-9.9c0.2,-0.7 0.3,-1.3 0.5,-2c2.2,-7.8 5.4,-15.9 11.1,-21.7c0.5,-0.5 -0.3,-1.2 -0.7,-0.7c-4.8,4.9 -7.8,11.3 -10,17.8c0.9,-4.6 2.5,-9.1 4.8,-13.2c0.3,-0.6 -0.5,-1.1 -0.9,-0.5c-0.3,0.6 -0.7,1.2 -1,1.8c-0.2,0 -0.5,0.1 -0.6,0.3c-3.4,8.7 -5.5,17.7 -6.6,26.8c-0.1,-0.1 -0.3,-0.2 -0.4,-0.4c0.1,-7.8 0.7,-15.5 1,-23.3c0,-0.6 -1,-0.6 -1,0c-0.3,7.8 -0.9,15.6 -0.9,23.3c0,0.1 -0.1,0.1 -0.1,0.2c0,0.5 0,1 0,1.4c0,1.2 0,2.3 0.1,3.5c-0.1,0.2 -0.2,0.5 -0.3,0.7c-0.2,0.1 -0.3,0.2 -0.3,0.4c0,0 0,0 0,0c-0.3,0 -0.5,0.3 -0.5,0.6c-0.1,0.1 -0.2,0.2 -0.3,0.3c-0.1,-1 -0.2,-1.9 -0.2,-2.9c0,-0.4 -0.4,-0.6 -0.7,-0.4c-0.4,-2.2 -1,-4.5 -1.7,-6.7c-0.9,-9.6 -0.5,-19.3 3.3,-28.2c0.3,-0.6 -0.6,-1.1 -0.9,-0.5c-3.4,7.9 -4.2,16.4 -3.7,25c-3.9,-10.6 -10.5,-20.4 -18,-28.6c-0.4,-0.5 -1.1,0.2 -0.7,0.7c8.3,8.9 15.4,19.9 19,31.8c0.2,2.1 0.5,4.1 0.7,6.2c-2.7,-9.3 -6.8,-18 -13.5,-25.2c-0.4,-0.5 -1.1,0.2 -0.7,0.7c2.9,3.1 5.3,6.5 7.3,10.1c-0.3,0 -0.6,0.4 -0.4,0.8c1.3,2.7 2.5,5.4 3.4,8.3c-0.2,0 -0.4,0.2 -0.4,0.5l0,5.3c-0.6,0.5 -1.4,1.2 -2.2,1.8c0,-0.8 0,-1.6 0.2,-2.4c0.1,-0.5 -0.6,-0.9 -0.9,-0.4c-0.2,0.4 -0.4,0.8 -0.6,1.1c0,-0.6 0,-1.3 0,-1.9c0,-0.3 -0.3,-0.5 -0.6,-0.5c0,-0.1 0,-0.3 0.1,-0.4c0.1,-0.6 -0.6,-0.9 -0.9,-0.4c-0.4,0.6 -0.8,1.2 -1.2,1.8c0.1,-0.9 0.1,-1.7 0.1,-2.6c0,-0.5 -0.7,-0.7 -0.9,-0.3c-0.3,0.7 -0.8,1.3 -1.2,1.9c-0.2,-0.6 -0.3,-1.1 -0.3,-1.3c0,-0.1 -0.1,-0.2 -0.2,-0.2c0,0 0,-0.1 0,-0.1c0.3,-0.8 0.5,-1.6 0.6,-2.4c0.1,-0.6 -0.7,-0.9 -1,-0.3c-0.3,0.8 -0.5,1.6 -0.6,2.4c-0.2,0.6 -0.4,1.1 -0.7,1.7c-0.1,0 -0.1,-0.1 -0.2,-0.1c0.4,-1.4 0.7,-2.8 1,-4.2c0.1,-0.5 -0.6,-0.9 -0.9,-0.4c-0.6,1.1 -1.3,2.1 -2.1,3c-0.2,-0.1 -0.3,-0.3 -0.5,-0.4l0,-0.2c0.5,-0.8 0.8,-1.6 0.9,-2.4c0,-0.2 -0.2,-0.4 -0.4,-0.5c-0.4,-0.1 -0.6,0.2 -0.9,0.4c-0.2,0.2 -0.2,0.5 0,0.7c0,0 -0.1,0.1 -0.1,0.2c-0.2,0 -0.4,0 -0.5,0.2c-0.1,0.2 -0.2,0.4 -0.2,0.6c-0.2,-0.2 -0.4,-0.4 -0.6,-0.6c0.2,-4.2 0.1,-8.5 -0.2,-12.7c0,-0.5 -0.9,-0.7 -1,-0.1c-0.5,2.4 -0.6,4.9 -0.8,7.3c0,0.6 -0.1,1.3 -0.1,2c-0.2,-4.9 -0.1,-9.8 -0.1,-14.7c0,-0.7 -1,-0.6 -1,0c-0.3,4.8 -0.4,9.7 -0.3,14.5c-0.6,-0.7 -1.1,-1.3 -1.6,-2c-0.3,-1.4 -0.6,-2.8 -0.9,-4.2c0.1,-0.5 0.2,-1 0.3,-1.5c0.1,-0.6 0.4,-1.4 0.1,-1.9c-0.3,-0.6 -0.9,-0.1 -1.1,0.2c-0.4,-2.1 -0.7,-4.2 -1.1,-6.3c0,-0.1 0,-0.1 -0.1,-0.2c0.3,-3.5 0.8,-7 1.6,-10.5c0.1,-0.6 -0.8,-0.9 -1,-0.3c-1.4,6 -1.9,12.2 -2,18.3c-1,-6 -3.1,-11.6 -4.9,-17.4c-0.2,-2 -0.4,-4 -0.7,-5.9c-0.1,-0.6 -1.1,-0.4 -1,0.3c0,0.3 0.1,0.6 0.1,0.9c-0.3,-0.1 -0.7,0.2 -0.6,0.6c0.3,1.5 0.7,2.9 1.2,4.3c0.2,2.5 0.3,5 0.3,7.5c-0.7,-1.3 -1.3,-2.6 -2,-3.9c-0.9,-5 -1.1,-10 -1.5,-15c0,-0.2 -0.2,-0.4 -0.4,-0.5c1.9,-7.5 6,-14.3 12.6,-18.6c0.5,-0.4 0,-1.2 -0.5,-0.9c-4.6,3 -8,7.3 -10.4,12.1c-0.2,-0.2 -0.7,-0.1 -0.8,0.2c-1.6,4.1 -2.8,8.3 -3.5,12.6c0,-1.3 0,-2.6 -0.1,-3.9c1.3,-4 3.1,-8 5,-11.6c2.7,-5.3 7.4,-13.4 14.1,-13.9c0.6,0 0.6,-1 0,-1c-6.6,0.5 -11.1,7.7 -14.1,12.8c-1.6,2.8 -3.1,5.8 -4.4,8.9c2.5,-8.2 6.9,-15.8 12.3,-22.4c0.4,-0.5 -0.3,-1.2 -0.7,-0.7c-5.5,6.6 -9.9,14.4 -12.4,22.6c0,-0.8 -0.1,-1.7 -0.2,-2.5c0.1,-1 0.3,-2.1 0.5,-3.1c0.1,-0.6 -0.8,-0.9 -1,-0.3c-0.2,0.9 -0.3,1.9 -0.4,2.8c-0.1,0.1 -0.1,0.2 -0.1,0.3c0,0.1 0,0.2 0,0.2c-0.4,3.1 -0.5,6.2 -0.5,9.3c-0.2,-0.5 -0.3,-1 -0.5,-1.4c0,-3.6 0.1,-7.2 0.5,-10.8c0.8,-3.6 1.6,-7.1 2.5,-10.7c0.1,-0.3 -0.1,-0.5 -0.3,-0.6c2.6,-7.8 7.9,-13.8 15.5,-17.1c0.6,-0.3 0.1,-1.1 -0.5,-0.9c-7.9,3.4 -13.2,9.5 -15.9,17.6c-0.2,0.6 -0.4,1.2 -0.6,1.8c-1.9,3.1 -3.1,6.4 -3.7,9.8c-0.6,1.2 -1.2,2.5 -1.8,3.8c1.2,-5.3 3.2,-10.5 4.8,-14.9c0.2,-0.5 -0.5,-0.8 -0.8,-0.5c-3.4,3.2 -5.2,7.5 -6.4,11.9c-0.1,0 -0.2,0 -0.3,0c0.7,-7.6 5,-14.1 9.5,-20.3c0.4,-0.5 -0.5,-1 -0.9,-0.5c-4.2,5.7 -8.2,11.8 -9.4,18.6c-0.1,-0.5 -0.2,-1.1 -0.3,-1.6c1.3,-5.5 3,-10.9 5.2,-16.1c0.2,-0.6 -0.7,-0.9 -1,-0.3c-1.9,4.6 -3.5,9.4 -4.7,14.2c-0.3,-1.1 -0.5,-2.1 -0.8,-3.2c-0.2,-0.6 -1.1,-0.4 -1,0.3c0.5,1.7 0.9,3.4 1.3,5.1c-0.2,0.7 -0.3,1.4 -0.5,2.1c-0.3,-2 -0.7,-4 -1.1,-6c0.4,-3 1.2,-6 2.7,-8.6c0.3,-0.6 -0.5,-1.1 -0.9,-0.5c-1.3,2.3 -2,4.7 -2.5,7.3c-0.3,0 -0.6,0.2 -0.6,0.6c0.1,0.4 0.2,0.9 0.3,1.3c-0.1,0.9 -0.2,1.7 -0.3,2.6l0,-22.2c0,-0.6 -1,-0.6 -1,0l0,34c-0.2,0 -0.3,0 -0.5,0l0,66.1l0,52.1l0,84.8l700,0l0,-120.8l0,-16.1l0,-23.9c0.9,-0.1 -0.5,-0.3 -2.1,-0.4zm-533.8,-110c-1.6,-0.3 -3,-1.2 -4.2,-2.2c-1.6,-1.2 -3,-2.5 -4.3,-4c-2.7,-3 -4.5,-6.4 -5.4,-10.3c-0.4,-1.7 -0.6,-3.5 -0.6,-5.3c0.8,1.8 1.5,3.6 2.3,5.5c1,2.3 2.4,4.3 3.9,6.3c1.5,1.9 3.2,3.9 5,5.4c1.3,1 3.6,2.7 3.3,4.6zm-40.6,103.2c1,1.4 1.9,2.9 2.6,4.5c-0.9,-1.6 -1.7,-3.1 -2.6,-4.5zm572.3,1.1c0.2,1.8 0.2,3.7 0.1,5.5c-0.5,0 -1.1,-0.1 -1.7,-0.1c0.7,-1.7 1.1,-3.5 1.6,-5.4zm-4.4,1.8l0,3.6c-0.3,0 -0.7,0 -1,0l0,-1.2c0.4,-0.8 0.7,-1.6 1,-2.4zm-2.8,0.8c0.1,0.8 0.2,1.6 0.3,2.4c0,0.1 0,0.2 0,0.4c-0.4,0 -0.9,0 -1.3,0c0.4,-0.9 0.7,-1.8 1,-2.8zm-6.3,3.1c-0.3,-3.4 -0.7,-6.8 -1.3,-10.2c0.6,2.2 1.7,6.6 2.3,10.1c-0.3,0 -0.7,0 -1,0.1zm6,-12.3c0,2.1 -0.1,4.1 0,6.2c-0.3,1.5 -0.8,3 -1.3,4.5c0.8,-3.6 0.8,-7.2 1.3,-10.7zm-3.3,-29.1c0.6,7.4 0.4,14.8 0.3,22.3c-0.5,-7.5 -0.8,-14.9 -0.3,-22.3zm-4.1,19.9c2.8,6.7 2.3,14.3 4.2,21.3c-0.2,0 -0.4,0 -0.5,0c-0.5,-3.3 -1.7,-6.9 -1.8,-7.6c-0.8,-3.2 -1.8,-6.3 -2.7,-9.4c0.1,-1.4 0.3,-2.9 0.8,-4.3zm-5.5,11.2c1.4,3.5 2.6,7.1 4,10.6c-0.8,0.1 -1.7,0.2 -2.5,0.3c-0.2,-3.7 -0.9,-7.3 -1.5,-10.9zm-1.8,4.2c0.8,2.3 1.5,4.6 2.2,6.9c-0.6,0.1 -1.2,0.2 -1.7,0.3c-0.1,-2.5 -0.3,-4.9 -0.5,-7.2zm-8.2,-0.1c0,-0.1 0,-0.1 0,-0.2c0.1,0 0.2,0 0.3,-0.1c0.9,2.9 1.9,5.7 2.7,8.6c-1.9,0.5 -3.8,1 -5.5,1.6l2.5,-9.9zm-16.9,2.1c1,4 1.8,8 2.2,12.1c-0.2,-0.6 -0.4,-1.3 -0.5,-1.9c-0.1,-0.6 -0.2,-1.2 -0.2,-1.5c-0.5,-3 -1,-5.8 -1.5,-8.7zm-2,18.1c-0.2,0 -0.3,0 -0.5,-0.1c0.2,-0.3 0.5,-0.6 0.7,-0.9c0,0.4 -0.1,0.7 -0.2,1zm-2.3,-0.3c-0.3,0 -0.6,-0.1 -0.9,-0.1c0.1,-0.1 0.2,-0.1 0.2,-0.2c0.4,-0.5 0.6,-0.2 0.7,0.3zm-3.1,-1.8c0.1,0.5 0.1,0.9 0.2,1.4c-0.4,0 -0.7,-0.1 -1.1,-0.1c0.3,-0.4 0.6,-0.9 0.9,-1.3zm-10.2,0.8c0.2,-0.8 0.4,-1.6 0.7,-2.4c0,0.2 0,0.3 0,0.5c-0.3,0.7 -0.5,1.3 -0.7,1.9c0,0 0,0 0,0zm1.2,-15.6c-0.3,2.9 -0.4,5.8 -0.5,8.7c0,0.2 0,0.4 0,0.6c-0.2,0.4 -0.3,0.8 -0.5,1.2c-0.7,1.4 -1.4,2.8 -2.1,4.2c0.8,-4.9 1.8,-9.9 3.1,-14.7zm-4,14.7c0,0.3 -0.1,0.6 -0.1,0.9c0,0 -0.1,0 -0.1,0c0,-0.3 0.1,-0.6 0.2,-0.9zm-4,-2.9c0,0.3 0,0.6 0.1,0.9c0,1 -0.1,2 -0.1,3c-0.2,0 -0.4,0 -0.6,0c0.3,-1.2 0.4,-2.5 0.6,-3.9zm-98.7,15.4c-0.1,-0.5 -0.2,-1.1 -0.3,-1.6c0.3,-0.4 0.5,-0.9 0.8,-1.3c-0.2,0.7 -0.4,1.4 -0.5,2.2c-0.1,0.3 0.1,0.5 0.3,0.6c0,0.1 0,0.1 -0.1,0.2l-0.2,0l0,-0.1zm-19.4,0c-0.3,-1.5 -0.6,-3 -0.9,-4.5c0.6,1.5 1.2,3 1.8,4.5l-0.9,0zm-4,0l-0.2,0c0.1,-0.3 0.2,-0.6 0.3,-1c-0.1,0.4 -0.1,0.7 -0.1,1zm6.4,-5.2c-0.7,-1.3 -1.3,-2.5 -2,-3.8c0.2,0.2 0.5,0.4 0.7,0.5c0.5,0.8 1.1,1.6 1.7,2.4c-0.2,0.1 -0.4,0.2 -0.4,0.5c0,0.1 0,0.3 0,0.4zm0.2,5.2c0,0 0,0 0,0c0,0 0,0 0,0l0,0zm0.8,-5.3c0.2,0.2 0.3,0.4 0.5,0.6c0,0 0,0.1 0,0.1c0,0.6 -0.1,1.3 -0.2,1.9c-0.1,-0.2 -0.2,-0.3 -0.3,-0.5c0,-0.7 0,-1.4 0,-2.1zm1.1,4c0.1,-0.3 0.1,-0.6 0.2,-0.9c0.3,0.8 0.6,1.5 0.8,2.3l-0.2,0c-0.3,-0.5 -0.6,-1 -0.8,-1.4zm4.3,1.2c0.1,0.1 0.1,0.1 0.2,0.2l-0.2,0c0,-0.1 0,-0.2 0,-0.2zm-2.3,0.1c-0.4,-1.1 -0.8,-2.2 -1.2,-3.3c0.6,0.6 1.1,1.1 1.7,1.6c0.3,0.5 0.5,1.1 0.7,1.7l-1.2,0zm10.3,-1.9c0.4,-0.6 0.8,-1.1 1.1,-1.8c0.1,0.6 0.1,1.3 0.2,1.9l-0.8,1.3c-0.1,-0.5 -0.3,-1 -0.5,-1.4zm-0.5,-1.1c0,-0.1 0,-0.1 0,0c0.3,-1.3 0.8,-2.5 1.3,-3.7c0,0.4 0.1,0.7 0.1,1.1c-0.4,0.9 -0.8,1.8 -1.4,2.6zm1.9,3c0,-0.1 0.1,-0.2 0.1,-0.2c0,0.1 0,0.2 0,0.2l-0.1,0zm2.4,-5.8l-1.6,2.7c0,-0.1 0,-0.3 0,-0.4c0.2,0 0.5,-0.2 0.5,-0.5c0,-1.1 0.2,-2.1 0.3,-3.2c0.2,0.4 0.5,0.9 0.8,1.4zm-0.7,-3.3l0,0c0.1,0 0.2,-0.1 0.3,-0.2l1.2,2c-0.1,0.2 -0.2,0.3 -0.3,0.5c-0.4,-0.7 -0.8,-1.5 -1.2,-2.3zm1.9,5.4c0.7,1.2 1.4,2.5 2,3.7l-3.1,0c0.4,-1.2 0.8,-2.5 1.1,-3.7zm0.3,-1.3c0.1,-0.2 0.1,-0.5 0.2,-0.7c0.7,1.1 1.3,2.2 2,3.3c0.2,0.5 0.4,1 0.6,1.5c0,0.1 0.1,0.1 0.1,0.2c0.1,0.3 0.2,0.5 0.3,0.8l-0.4,0c-0.8,-1.8 -1.8,-3.5 -2.8,-5.1zm13,1.8c0.1,-0.6 0.3,-1.2 0.3,-0.4c0,0.1 0,0.2 0.1,0.3c-0.2,0 -0.3,0 -0.4,0.1zm1.5,-0.5c0.5,-0.6 0.8,-1.3 1.2,-2c0.3,0.5 0.6,1 0.9,1.4c-0.7,0.3 -1.4,0.4 -2.1,0.6zm3.6,-0.8c0.3,-0.5 0.5,-1 0.8,-1.5c0.2,0.4 0.4,0.9 0.6,1.3c-0.6,0.1 -1,0.1 -1.4,0.2zm3.1,-0.4c0,-0.1 0,-0.1 0,-0.2c0,0.1 0.1,0.1 0.1,0.2c-0.1,0 -0.1,0 -0.1,0zm10.9,0.2c0,-0.1 0.1,-0.3 0.1,-0.4c0.1,0.2 0.3,0.3 0.4,0.5c-0.2,0 -0.3,0 -0.5,-0.1zm2.5,0.5c0.4,-0.3 0.8,-0.3 1.2,-0.2c0,0 0,0 0,0c0.1,0.3 0.3,0.3 0.5,0.2c0.1,0 0.1,0.1 0.2,0.1c0,0.1 0.1,0.2 0.1,0.3c-0.6,-0.1 -1.3,-0.3 -2,-0.4zm7.2,2.4c0.2,-0.1 0.5,-0.2 0.8,-0.2c-0.1,0.2 -0.1,0.4 -0.2,0.6c-0.2,-0.1 -0.3,-0.2 -0.5,-0.3c0,0 0,-0.1 -0.1,-0.1zm44.2,-8.4c0.1,-0.1 0.1,-0.1 0.2,-0.2c0,0 0.1,0.1 0.1,0.1c-0.1,0.1 -0.2,0.1 -0.3,0.1zm9.1,-16.8c0.4,2 0.5,4.1 0.6,6.1c-0.4,3.2 -0.8,6.4 -1.3,9.5c0,0 0,0 0,0c-0.4,-5.2 -1.3,-10.7 0.7,-15.6zm-3.7,3.4c0,0.7 0,1.3 -0.1,2c-0.1,3.5 0.1,7.1 0.4,10.6c-0.1,0 -0.2,0 -0.4,0c-0.1,-0.2 -0.1,-0.4 -0.2,-0.6c0.1,-4 0.1,-8 0.3,-12zm-1.4,12.8c-0.1,0 -0.1,0 -0.2,0c-0.1,-0.5 -0.3,-1 -0.4,-1.4c0.2,0.4 0.4,0.9 0.6,1.4zm-5.8,-11.6c0.9,1.4 1.8,2.8 2.6,4.2c0,0.1 0,0.1 0,0.2c0.5,2.5 1.3,4.9 2,7.3c-0.2,0 -0.5,0.1 -0.7,0.1c-1.1,-3.9 -2.3,-7.9 -3.9,-11.8zm-1.7,5.4c1.4,1.1 2.4,2.4 3.3,3.9c0.2,0.5 0.3,1 0.5,1.5c-0.1,0 -0.2,0 -0.3,0.1c-0.5,0.4 -0.9,0.7 -1.3,1.1c-0.4,-0.4 -0.6,-1.1 -0.9,-1.5c-0.6,-1.6 -1.1,-3.3 -1.3,-5.1zm-1.7,6.1l0.8,1.6c-0.5,0.1 -0.9,0.2 -1.4,0.3c0,0 0,0 0,0c0.2,-0.6 0.4,-1.3 0.6,-1.9zm-1.3,2.2c-0.3,0.1 -0.6,0.2 -0.9,0.2c0.1,-0.3 0.1,-0.7 0.2,-1c0.1,0.3 0.4,0.6 0.7,0.8zm-3.2,0.4c0,-0.8 0.4,-0.3 0.7,0.3c-0.3,0.1 -0.5,0.2 -0.8,0.3c0.1,-0.2 0.1,-0.4 0.1,-0.6zm-1.9,1.2c-0.2,0.1 -0.3,0.1 -0.5,0.2c0,-0.2 0,-0.4 0.1,-0.6c0.1,0.1 0.3,0.3 0.4,0.4zm-2.5,0.9c0,0 0.1,0 0,0c0.1,0 0,0 0,0c0,0 0,0 0,0zm-13.9,-29c0.1,0.1 0.3,0 0.3,-0.1c0,-0.2 0.1,-0.5 0.1,-0.7c2.5,4.6 2.7,10.1 2.3,15.2c-0.5,5.1 -1.8,10.4 -4.1,15c0,0 0,0 0,0c-0.1,-9.8 0.3,-19.6 1.4,-29.4zm-68.8,-14.5c0.1,0 0.2,-0.1 0.3,-0.1c1,-0.1 2,0.2 3.1,0.5c-1.2,-0.1 -2.4,-0.2 -3.5,-0.3c0,-0.1 0,-0.1 0.1,-0.1zm-0.8,0.3c0.7,0.1 1.4,0.2 2.2,0.2c1.1,0.1 2.2,0.2 3.3,0.5c2.3,0.5 4.5,1 6.8,1.4c2.2,0.4 4.5,0.5 6.7,0.5c2.2,-0.1 4.5,-0.5 6.7,-0.9c2.3,-0.4 4.6,-0.7 7,-0.9c1.6,-0.2 3.2,-0.4 4.7,-1c1.4,-0.5 2.7,-1.2 3.8,-2.1c0.7,-0.5 1.3,-1.1 1.9,-1.8c0.2,-0.2 0.4,-0.4 0.6,-0.7c0,0.1 0,0.1 0.1,0.2c0,0 0,0 0,0c2.2,1.4 4.3,2.9 6.1,4.9c1.6,1.7 3.5,3.1 5.3,4.7c1.8,1.5 3.6,3.2 4.8,5.2c1.2,2 1.8,4.3 2.3,6.5c1.1,4.9 1.2,9.9 1.1,14.9c0,2.3 -0.1,4.6 -0.1,6.8c-0.1,2.4 -0.6,4.8 -1.9,6.8c-1,1.5 -2.4,2.2 -3.8,3.2c-0.2,-0.4 -0.4,-0.7 -0.7,-1l0,-6.1c0,-0.5 -0.9,-0.7 -1,-0.1c0,0 0,0.1 0,0.1c0,0 0,0 0,0l0,0c0,0.1 0,0.2 0,0.4c-0.2,-0.5 -1,-0.5 -1,0.1c0,1.2 -0.1,2.3 -0.2,3.4c-0.6,-1.7 -1.2,-3.4 -1.8,-5.1c-0.2,-0.6 -1.2,-0.3 -1,0.3c0.7,2 1.4,3.9 2.1,5.9c-0.3,0 -0.6,0.1 -0.9,0.3c-0.8,-2.4 -1.7,-4.9 -2.2,-7.4c-0.1,-0.6 -1.1,-0.4 -1,0.3c0.6,2.6 1.4,5.1 2.3,7.6c0,0 0,0 0,0c-0.4,-0.2 -0.8,-0.4 -1.3,-0.5c0,0 0,0 0,-0.1c-0.5,-1.5 -0.7,-3.2 -1,-4.8c-0.1,-0.6 -1,-0.4 -1,0.1c0,1 0.1,2.1 0.2,3.1c0,0 0,0 0,0c-0.9,-2.4 -1.8,-4.8 -2.7,-7.2c-0.2,-0.6 -1.2,-0.3 -1,0.3c0.4,1.1 0.9,2.3 1.3,3.4c-0.2,0.1 -0.4,0.4 -0.2,0.7c0.3,0.6 0.4,1.2 0.6,1.9c-0.8,-0.2 -1.2,0 -1.7,0.7c-0.6,-0.5 -1,-1.2 -1.7,-1.7c-0.3,-0.2 -0.7,0.1 -0.8,0.4c0,0.3 0,0.6 -0.1,1c-0.1,-0.2 -0.3,-0.5 -0.5,-0.7c-0.2,-0.2 -0.4,-0.3 -0.7,-0.2c-0.4,0.2 -0.5,0.4 -0.7,0.8c-0.1,0.3 -1.6,-1.2 -1.8,-1.3c-0.4,-0.3 -0.8,0.2 -0.7,0.6c0,0.3 0.1,0.6 0.2,0.9c-0.1,0 -0.1,0 -0.2,0c-0.4,-0.4 -0.8,-0.9 -1.2,-1.3c-0.3,-0.3 -0.9,-0.1 -0.9,0.4l0,0.4c-0.2,-0.3 -0.5,-0.6 -0.6,-0.8c-0.3,-0.3 -0.7,-0.1 -0.8,0.2c-0.2,0.4 -0.3,0.8 -0.3,1.2c-0.2,0 -0.4,0 -0.6,0c-0.2,-0.4 -0.4,-0.9 -0.6,-1.3c-0.1,-0.2 -0.5,-0.3 -0.7,-0.2c-0.5,0.3 -0.5,1 -0.7,1.5c-0.4,-0.8 -0.6,-1.6 -1.1,-2.4c-0.2,-0.3 -0.7,-0.4 -0.9,0l-1.1,2.3c-0.4,-0.6 -0.7,-1.2 -1,-1.8c-0.1,-0.3 -0.6,-0.4 -0.8,-0.1c-0.5,0.7 -0.9,1.4 -1.3,2.1c-0.1,-0.2 -0.3,-0.5 -0.6,-0.6c-0.2,-0.1 -0.4,-0.1 -0.6,0.1c-0.8,0.6 -0.8,1.4 -1,2.2c-0.5,-0.3 -0.9,-0.7 -1.5,-0.8c-0.2,0 -0.4,0 -0.5,0.2c-0.1,-1 -0.2,-2.1 -0.3,-3.1c0,-2.4 -0.1,-4.7 -0.4,-7c0,0 0,0 0,0c0,0 0,0 0,0c0,0 0,-0.1 0,-0.1c-0.1,-0.6 -1,-0.4 -1,0.1c0,2.5 0.2,5 0.4,7.5c0,0.2 0,0.5 0,0.7c-0.1,-0.1 -0.3,-0.2 -0.5,-0.2c-0.3,-1.7 -0.6,-3.4 -1,-5.2c-0.1,-0.5 -1,-0.4 -1,0.1c0.4,3.5 1,7 1.3,10.5c-0.1,0.1 -0.2,0.2 -0.4,0.3c-0.5,-1 -0.9,-1.9 -1.2,-2.9c-0.1,-0.8 -0.3,-1.6 -0.4,-2.5c0.1,-0.1 0.2,-0.2 0.2,-0.4c-0.1,-1.3 -0.4,-2.6 -0.5,-4c0,-0.6 -1,-0.6 -1,0c0,0.7 0,1.3 0.1,2c-0.3,0 -0.6,0.2 -0.6,0.6c0.2,1.5 0.6,2.9 1.1,4.2c0.2,0.8 0.3,1.5 0.5,2.3c-0.3,-0.6 -0.6,-1.2 -0.9,-1.8c-0.4,-1.7 -1.2,-3.2 -2.2,-4.7c-0.1,-0.1 -0.2,-0.2 -0.3,-0.2c-0.3,-0.5 -0.6,-1 -0.9,-1.5c0.1,-0.5 0.2,-0.9 0.3,-1.4c0.1,-0.6 -0.8,-0.9 -1,-0.3c0,0.1 -0.1,0.3 -0.1,0.4c-0.3,-0.5 -1,-0.2 -0.9,0.4c0.1,0.3 0.2,0.6 0.2,0.9c0,0 -0.1,0 -0.1,0.1c-0.6,-1 -1.2,-1.9 -1.7,-2.9c-0.3,-0.6 -1.2,0 -0.9,0.5c0,0 0,0.1 0,0.1c-0.1,-0.1 -0.2,-0.2 -0.4,-0.3c-0.3,-0.2 -0.9,0.2 -0.7,0.6c0.3,0.7 0.6,1.3 0.9,2c-0.1,0.4 -0.2,0.8 -0.3,1.2c0,-0.3 -0.1,-0.5 -0.1,-0.8c-0.1,-0.4 -0.7,-0.8 -0.9,-0.3c-0.2,0.4 -0.4,0.8 -0.6,1.3c0,-0.5 -0.7,-0.8 -0.9,-0.3c0,0 0,0.1 0,0.1c0,0 0,0 0,0c0,0 0,0 0,0c-0.3,0.7 -0.5,1.4 -0.7,2.1c-0.1,-0.3 -0.2,-0.6 -0.3,-0.8c-1.1,-2.8 -2,-5.6 -2.3,-8.6c-0.3,-2.9 -0.3,-5.9 -0.2,-8.9c0,-8.5 -0.6,-17.1 -2,-25.5c0,-0.1 0,-0.1 0.1,-0.1zm-23.5,42.8c0,-2.4 0,-4.7 0.1,-7.1c0.1,-2.6 0.1,-5.2 0.4,-7.8c0.3,-2.4 0.9,-4.8 1.3,-7.2c0.4,-2.5 0.5,-5 0.6,-7.5c0.1,-2.5 0.3,-5 0.7,-7.5c0.3,-1.9 1.1,-3.8 0.6,-5.7c3,-0.1 5.9,0.3 8.8,0.5c-1.4,3.8 1.6,7.6 3.3,10.7c1.3,2.5 1.6,5.1 1.6,7.9c0.1,2.8 0.3,5.4 1,8.1c1.3,5.2 3.5,10.2 4.6,15.5c0.3,1.4 0.5,2.8 0.5,4.2c-1.4,-1.3 -2.8,-2.6 -4.3,-3.8c-0.1,-0.1 -0.2,-0.2 -0.3,-0.4c-0.1,-0.1 -0.2,-0.1 -0.3,-0.1c-1.4,-1.1 -2.8,-2.3 -4.2,-3.4c-0.2,-0.2 -0.4,-0.1 -0.6,0c-0.5,-0.4 -1,-0.7 -1.5,-1c-0.4,-0.3 -0.9,0.3 -0.7,0.7c1.2,2.3 2.5,4.6 3.7,6.9c-0.1,1 -0.2,2 -0.5,2.9c-1.2,-3.3 -2.7,-6.5 -3.8,-9.7c-0.2,-0.6 -1.2,-0.3 -1,0.3c0.5,1.5 1.1,3 1.7,4.5c-0.3,-0.2 -0.7,-0.1 -0.7,0.3c-0.3,1.8 -0.5,3.5 -0.8,5.3l-0.1,0c0.1,-2.2 0.2,-4.4 0.4,-6.6c0.1,-0.6 -0.8,-0.7 -1,-0.1c-0.6,2.3 -1.1,4.5 -1.7,6.8l-0.7,0c0.2,-2.2 0.6,-4.3 0.9,-6.5c0.1,-0.6 -0.6,-0.8 -0.9,-0.4c-1,1.3 -1.7,2.6 -2.3,4c0.2,-4.3 0.2,-8.5 1.7,-12.6c0.2,-0.6 -0.7,-0.9 -1,-0.3c-0.7,1.9 -1.5,3.9 -2.1,5.8c-0.3,-0.3 -0.9,-0.2 -0.9,0.3c0,1 -0.1,2 -0.2,3c-0.7,2.2 -1.2,4.4 -1.6,6.6l-0.3,0c-0.3,-2.2 -0.4,-4.4 -0.4,-6.6zm12,6.6l-0.9,0c0.2,-0.8 0.3,-1.7 0.4,-2.5c0.2,0.8 0.3,1.7 0.5,2.5zm-8.7,0c-0.1,-2.4 0,-4.8 0,-7.1c0.2,-0.7 0.5,-1.4 0.7,-2.1c-0.3,3.1 -0.3,6.1 -0.5,9.2l-0.2,0zm2.7,0l-1.3,0c0.5,-1.5 1.1,-3 1.9,-4.4c-0.3,1.5 -0.5,3 -0.6,4.4zm-26.9,-6.1c-0.1,0 -0.1,-0.1 -0.2,-0.1c0.1,-0.1 0.2,-0.3 0.2,-0.4c0,0.1 0,0.3 0,0.5zm7.1,2.7c0,0.3 0.1,0.5 0.1,0.8c-0.1,-0.1 -0.2,-0.1 -0.3,-0.2c0.1,-0.2 0.2,-0.4 0.2,-0.6zm-3.6,-1.3c0,0 -0.1,0 -0.1,-0.1c0.1,-0.2 0.2,-0.4 0.3,-0.6c-0.1,0.3 -0.1,0.5 -0.2,0.7zm-1.5,-4.9l0.1,0.9c-0.4,1 -0.7,2 -1,3c-0.1,0 -0.1,-0.1 -0.2,-0.1c0,-0.8 0.1,-1.6 0.1,-2.4c0.4,-0.5 0.7,-0.9 1,-1.4zm-1.8,-0.7c0,0.6 -0.1,1.2 -0.1,1.8c-0.4,0.5 -0.7,1 -1.1,1.5c0,-0.1 0,-0.2 -0.1,-0.3c0.6,-0.7 1,-1.9 1.3,-3zm-2.5,0.1c0,0.4 0.1,0.8 0.1,1.1c-0.1,0.3 -0.2,0.6 -0.4,0.9c-0.3,0 -0.7,0.3 -0.5,0.8c0,0.1 0.1,0.1 0.1,0.2c-0.1,0 -0.2,-0.1 -0.3,-0.1c0.3,-0.9 0.6,-1.9 1,-2.9zm-6.5,1.4c0.1,-0.4 0.2,-0.9 0.3,-1.3c0.1,0.3 0.2,0.6 0.4,0.9c0,0.2 -0.1,0.4 -0.2,0.6c-0.1,-0.1 -0.3,-0.1 -0.5,-0.2zm0.6,-8.5c0.1,0.4 0.3,0.8 0.4,1.2c-0.1,0 -0.2,0.1 -0.3,0.2l-0.3,0.4c-0.1,-0.1 -0.2,-0.3 -0.3,-0.4c0.1,-0.4 0.3,-0.9 0.5,-1.4zm-2,3.1c-0.1,0.4 -0.2,0.7 -0.2,1.1c-0.1,-0.1 -0.1,-0.2 -0.2,-0.3c0,-0.5 0,-1 -0.1,-1.6c0.2,0.3 0.3,0.6 0.5,0.8zm-24.6,-5.9c-0.2,0 -0.5,0 -0.7,0.1c0.2,-0.2 0.4,-0.4 0.6,-0.6c0.1,0.1 0.1,0.3 0.1,0.5zm-3.7,-1.4c-0.2,0.6 -0.3,1.3 -0.4,1.9c0,0 0,0 0,0c-0.1,-0.2 -0.1,-0.5 -0.2,-0.7c0.2,-0.4 0.4,-0.8 0.6,-1.2zm-2.4,2.3c-0.3,0.1 -0.7,0.2 -1,0.3c-0.2,-0.8 -0.3,-1.5 -0.5,-2.3c0.5,0.7 1,1.3 1.5,2zm-2.3,0.1c0,-0.3 0,-0.6 0.1,-0.9c0.1,0.5 0.2,0.9 0.3,1.4c-0.2,0 -0.3,0.1 -0.5,0.1c0,-0.1 0,-0.3 0,-0.4c0.1,-0.1 0.1,-0.1 0.1,-0.2zm-1.9,-1.5c0.3,0.5 0.6,1 0.9,1.5c0,0.3 0,0.6 0,0.9c-0.4,0.1 -0.8,0.3 -1.2,0.5c0.1,-1 0.2,-1.9 0.3,-2.9zm-4.3,5.1c-0.1,0.1 -0.2,0.2 -0.4,0.3c-0.2,-0.3 -0.3,-0.7 -0.5,-1c0,-0.3 0,-0.5 0,-0.8c0.3,0.4 0.6,0.9 0.9,1.5zm-9.7,-0.7c0.3,-0.6 0.6,-1.1 1,-1.7c-0.3,1.4 -0.5,2.9 -0.8,4.3c-0.1,0.2 -0.3,0.3 -0.4,0.5c0.1,-1.1 0.1,-2.1 0.2,-3.1zm-5,6.1c0.1,0 0.1,0 0.2,-0.1c0.2,0.1 0.4,0.1 0.6,-0.1c0.5,-0.5 1,-1 1.4,-1.5c-0.1,0.6 -0.2,1.2 -0.4,1.9c-0.2,0 -0.3,0.1 -0.5,0.1c-0.2,-0.4 -0.8,-0.3 -0.9,0.2c-0.1,0 -0.2,0 -0.4,0.1c0,-0.1 -0.1,-0.2 -0.1,-0.3c0.1,-0.2 0.1,-0.3 0.1,-0.3zm-1.8,-3.3c0.1,1.4 0.2,2.7 0.3,4.1c-0.2,0 -0.4,0.1 -0.6,0.1c0,-1.7 -0.1,-3.5 -0.2,-5.2c0.1,0.4 0.3,0.7 0.5,1zm-1.5,0.5c0,0.6 0.1,1.2 0.1,1.8c-0.1,-0.3 -0.3,-0.6 -0.5,-0.9c0.2,-0.2 0.3,-0.6 0.4,-0.9zm-1.3,3.5c0.1,0.2 0.2,0.5 0.2,0.7c0,0 -0.1,0 -0.1,0c-0.1,-0.2 -0.1,-0.4 -0.2,-0.7c0.1,0.1 0.1,0 0.1,0zm-1.7,-0.1c-0.5,-0.4 -0.9,-0.7 -1.4,-1.1c-0.3,-1.1 -0.5,-2.2 -0.5,-3.3c0.6,1.5 1.2,3 1.9,4.4zm-3.2,-2.9c-0.1,-0.4 -0.2,-0.8 -0.3,-1.2c0.2,-0.1 0.4,-0.3 0.3,-0.6c-1.2,-3.3 -2.4,-6.5 -3.4,-9.9c0.9,1.2 1.8,2.4 2.5,3.7c-0.1,0.1 -0.2,0.3 -0.1,0.5c0.4,1.3 0.9,2.6 1.4,3.9c-0.2,1.5 -0.1,3 0.2,4.5c-0.1,-0.1 -0.2,-0.2 -0.3,-0.3c0,0 0,0 -0.1,0c-0.1,-0.3 -0.2,-0.5 -0.2,-0.6zm2,4.3c0.3,-0.1 0.5,-0.3 0.4,-0.6c0,-0.1 0,-0.1 -0.1,-0.2c0.3,0.2 0.6,0.5 0.8,0.7c-0.3,0.1 -0.7,0.2 -1,0.3c0,-0.1 0,-0.2 -0.1,-0.2zm-6.2,1.5c-0.2,0.2 -0.3,0.4 -0.5,0.6c-0.6,-0.6 -1.2,-1.2 -1.8,-1.8c0.8,0.4 1.6,0.8 2.3,1.2zm1.8,-1.1c0.3,0.3 0.7,0.6 1,0.9c-0.1,0 -0.2,0.1 -0.3,0.1c-0.3,-0.3 -0.5,-0.7 -0.7,-1zm-17,5.3c0,0 0,0 0,0c0,0 0,0 0,0l0,0zm-65.3,-33.4c1.9,-3.6 3.9,-7.1 5.8,-10.7c1.3,-2.4 2.3,-4.8 2.1,-7.5c-0.3,-4.9 -4.8,-8.4 -7.4,-11.9c-0.3,-0.4 -0.6,-0.8 -0.9,-1.3c3.9,2.5 8.1,4.5 12.2,6.5c3.4,1.7 6.6,3.5 9.8,5.6c2.8,1.9 5.8,3.7 8.5,5.8c3,2.4 4.6,5.8 6.2,9.4c1.6,3.7 3,7.5 4.1,11.4c1,3.6 1.8,7.3 2.4,11c0.7,3.8 1.2,7.6 1.2,11.4c0,2 -0.2,4.1 -0.7,6l-1.2,0c0.1,-0.3 0.2,-0.6 0.3,-0.9c0.2,-0.5 -0.3,-1 -0.8,-0.6c0,0 0,0 -0.1,0c0,-0.1 -0.1,-0.3 -0.2,-0.4c-0.1,-0.2 -0.5,-0.3 -0.7,-0.2c-0.6,0.4 -1.2,2.1 -1.2,0.4c0,-0.5 -0.7,-0.7 -0.9,-0.3c-0.2,0.4 -0.4,0.8 -0.5,1.1c-0.1,-0.8 -0.1,-1.6 -0.1,-2.4c0,-0.6 -0.8,-0.7 -1,-0.1c-0.2,0.6 -0.3,1.2 -0.5,1.8l0,-0.4c0,-0.6 -1,-0.6 -1,0c0,0.5 -0.1,1 -0.2,1.5c-0.1,-0.2 -0.2,-0.4 -0.3,-0.7c-0.1,-0.3 -0.4,-0.5 -0.7,-0.3c-0.1,0 -0.1,0.1 -0.1,0.1c0,-0.1 -0.1,-0.2 -0.1,-0.3c0,0 0,0 0,0c0,0 0,0 0,0c0,0 0,-0.1 0,-0.1c-0.2,-0.5 -1,-0.1 -0.9,0.4c0.1,0.3 0.1,0.5 0.1,0.8c0,0 -0.1,0.1 -0.1,0.1l0,0c0,-0.4 -0.4,-0.6 -0.8,-0.4c-0.2,0.1 -0.3,0.2 -0.4,0.3c-0.3,-0.4 -0.6,-0.7 -0.9,-1.1c-0.1,-0.1 -0.1,-0.1 -0.2,-0.2c-0.1,-0.2 -0.1,-0.5 -0.2,-0.7c-0.2,-0.6 -1.1,-0.4 -1,0.3c0,0.1 0.1,0.3 0.1,0.4c-0.1,0 -0.3,-0.1 -0.4,0c0,0 0,0 -0.1,0.1c-0.1,-0.2 -0.2,-0.3 -0.3,-0.5c-0.3,-0.4 -1,0 -0.8,0.5c0.1,0.3 0.2,0.6 0.4,0.9c-0.2,0.3 -0.4,0.6 -0.6,0.8c-0.2,0 -0.4,-0.1 -0.6,-0.1c-0.1,-0.6 -0.2,-1.2 -0.2,-1.7c0,-0.5 -0.6,-0.6 -0.9,-0.3c-0.4,0.6 -0.9,1.1 -1.4,1.6c-0.2,0 -0.4,0 -0.6,-0.1l0,-0.8c0,-0.5 -0.5,-0.6 -0.9,-0.4c-0.3,0.3 -0.6,0.5 -0.9,0.7c-0.3,0 -0.6,0 -0.9,0c0.1,-0.3 0.1,-0.6 0.2,-0.9c0.1,-0.5 -0.7,-0.6 -0.9,-0.3c-0.3,0.5 -0.7,0.9 -1,1.3c-0.3,0 -0.6,0 -0.9,0c0.1,-0.5 0.2,-0.9 0.3,-1.4c0.2,-0.6 -0.6,-0.8 -0.9,-0.4c-0.5,0.7 -1,1.2 -1.6,1.7c-0.3,0 -0.6,0 -1,0c0,-0.1 0,-0.3 0,-0.4c0,-0.3 -0.2,-0.5 -0.5,-0.5c0,0 0,-0.1 0,-0.1c-0.1,-0.4 -0.6,-0.5 -0.8,-0.2c-0.2,0.2 -0.5,0.4 -0.7,0.5c-0.2,-0.4 -0.4,-0.7 -0.5,-0.9c-0.1,-0.1 -0.2,-0.2 -0.3,-0.2c0.1,-1.2 0.2,-2.3 0.4,-3.4c0.1,-0.6 -0.9,-0.9 -1,-0.3c-0.2,1.6 -0.5,3.4 -0.4,5.1c0,0.1 0,0.1 -0.1,0.2c-0.1,0.2 -0.1,0.3 -0.2,0.4c-0.2,0 -0.3,0 -0.5,0c-0.2,-0.8 -0.4,-1.7 -0.6,-2.5c0.8,-1.8 1.4,-3.6 1.8,-5.4c0.1,-0.6 -0.8,-0.9 -1,-0.3c-0.3,1.4 -0.7,2.8 -1.3,4.2c-0.6,-2.2 -1.3,-4.4 -1.8,-6.7c-0.1,-0.5 -1,-0.4 -1,0.1c0.1,1.1 0.3,2.3 0.5,3.4c0,0 0,0 0,0c-1.8,-3.5 -3.9,-6.8 -6.1,-10.2c-0.3,-0.5 -1.2,0 -0.9,0.5c2.5,3.9 5.1,7.8 7,12c0.1,1.2 0.2,2.5 0.4,3.7c-0.1,0.1 -0.2,0.2 -0.3,0.3c-1.6,-1.4 -3.5,-2.4 -5.7,-2.7l-0.5,-0.8c-0.3,-0.6 -1.2,0 -0.9,0.5l0.5,0.8c0,0.1 0.1,0.3 0.2,0.4l2,3.3c-0.1,0 -0.3,0 -0.4,0c-0.8,-0.8 -1.7,-1.5 -2.4,-2.5c-0.2,-0.3 -0.8,-0.3 -0.9,0.1c0,0.1 -0.1,0.3 -0.1,0.4c-0.2,-0.3 -0.6,-0.3 -0.8,-0.1c-0.2,0.2 -0.5,0.5 -0.7,0.7c-0.7,-0.4 -1.5,-0.8 -2.2,-1.3c-0.5,-0.3 -0.9,0.3 -0.7,0.7c0.2,0.4 0.4,0.9 0.5,1.3c-0.2,-0.1 -0.5,-0.1 -0.7,-0.1c-0.6,0.2 -0.8,0.6 -1,1c-0.9,-0.7 -2,-1.1 -3.1,-1.9c-0.5,-0.4 -1,0.5 -0.5,0.9c0.5,0.3 0.9,0.6 1.3,0.8c0,0 0,0 0,0l-0.6,0.3c-0.1,0 -0.2,0.1 -0.3,0.1l-3.1,0c0.3,-0.1 0.5,-0.2 0.8,-0.4c0,0 0.1,-0.1 0.1,-0.1c0,0 0,-0.1 0.1,-0.1c0.3,-2.3 -2.2,-3.2 -3.1,-4.8c-0.7,-1.3 0.8,-2.9 1.5,-3.9c1,-1.4 1.8,-2.8 2.6,-4.3c1.8,-3.5 3.2,-7.2 4.8,-10.8c1.6,-3.9 3.5,-7.6 5.5,-11.3zm12.8,35.8c0,0 0,-0.1 0,-0.1c0.2,0 0.4,0 0.7,0c0.1,0 0.2,0 0.2,0c0,0 0.1,0.1 0.1,0.2l-1,0l0,-0.1zm-16.2,-1.4c0.3,0.1 0.5,0.3 0.8,0.4c-0.1,0.2 -0.3,0.4 -0.4,0.5c-0.2,-0.3 -0.3,-0.6 -0.4,-0.9zm1.2,1.4c0.1,-0.2 0.3,-0.3 0.4,-0.5c0.2,0.1 0.4,0.3 0.6,0.5c-0.3,0 -0.6,0 -0.9,0l-0.1,0zm2.5,-1.1c0,-0.1 0,-0.3 0.1,-0.4c0.4,0.5 0.9,0.9 1.3,1.3c-0.2,0 -0.4,0 -0.6,0.1c-0.3,-0.4 -0.6,-0.7 -0.8,-1zm3.7,-0.2l-1.3,-2.1c1.6,0.4 3,1.2 4.2,2.2c-0.4,0.2 -0.7,0.3 -0.9,0.1c-0.4,-0.5 -0.7,-0.8 -1.3,-1c-0.2,-0.1 -0.6,0.1 -0.6,0.3c0,0.2 -0.1,0.4 -0.1,0.5zm-38.9,1.3c0.1,-0.5 0.2,-1 0.3,-1.5c0.1,0.3 0.2,0.7 0.3,1c0.1,0.4 0.7,0.5 0.9,0.1c0,-0.1 0.1,-0.2 0.1,-0.3c0.1,0.2 0.2,0.4 0.3,0.6l-1.9,0l0,0.1zm-221.9,-12.1c0,-0.1 0,-0.2 0,-0.4c0,-0.2 0,-0.3 0.1,-0.5c0.1,0.1 0.2,0.3 0.3,0.4c0.1,0.2 0.3,0.5 0.4,0.7c-0.2,0 -0.5,-0.1 -0.8,-0.2zm17.4,1.4c0.1,-0.8 0.3,-1.5 0.3,-2.3c0.1,0.3 0.2,0.5 0.3,0.8c0.1,0.4 0.3,0.8 0.4,1.1c-0.2,0 -0.3,0 -0.5,-0.1c-0.3,0.1 -0.5,0.3 -0.5,0.5c0,0 0,0 0,0zm0.9,1.3c0.2,0 0.5,0.1 0.7,0.1c0,0 0.1,0.1 0.1,0.1c-0.2,0 -0.5,0 -0.7,0c0,-0.1 -0.1,-0.1 -0.1,-0.2zm1.9,-4.1c0,-0.4 0.1,-0.7 0.1,-1.1c0.1,0.1 0.1,0.2 0.2,0.3c0.2,0.7 0.3,1.4 0.5,2.1c-0.2,-0.4 -0.4,-0.8 -0.7,-1.2c0,0 0,-0.1 -0.1,-0.1zm6.2,4l0,0c0,0.1 0,0.1 0,0c0,0.1 0,0.1 0,0c0,0.1 0,0.1 0,0zm-0.4,-1c-0.5,-1.5 -1.1,-3 -1.8,-4.5c-0.1,-1.6 -0.2,-3.3 -0.4,-4.9c0.8,3.2 1.6,6.3 2.2,9.4c0.1,0 0.1,0 0,0zm-1.1,1c0.1,0 0.3,0 0.4,0c0,0.1 0,0.1 0,0.2c-0.1,0 -0.3,0 -0.5,0c0.1,-0.1 0.1,-0.1 0.1,-0.2zm161.3,-2.5c-0.5,-1.9 -1,-3.7 -1.7,-5.5c1.2,1.6 2.4,3.2 3.6,4.8c0,0.1 0.1,0.2 0.1,0.2c-0.5,0.6 -0.9,1.1 -1.5,1.6c0,-0.4 -0.2,-0.8 -0.5,-1.1zm1.2,1.8c0.4,-0.4 0.8,-0.8 1.1,-1.2c0.1,0.3 0.2,0.6 0.4,0.9c0,0.1 0,0.3 0,0.4c0,0 0,0.1 0,0.1c-0.5,0 -1,0 -1.5,0c0,0 0,-0.1 0,-0.2zm6.9,-1.2c0,0 0,-0.1 0.1,-0.1c0.2,-0.4 -0.3,-0.7 -0.6,-0.6c-0.1,-0.2 -0.3,-0.5 -0.4,-0.7c-0.1,-0.2 -0.2,-0.4 -0.4,-0.6c0.1,-1.3 0.2,-2.5 0.5,-3.8c0.6,2.3 1,4.6 1.3,6.9c-0.2,-0.3 -0.4,-0.7 -0.6,-1c0.1,0.1 0.1,0 0.1,-0.1c0,0.1 0,0.1 0,0l0,0zm18.4,7.2c0,0.1 0.1,0.1 0.1,0.2c0,0 0,0 -0.1,0c0,-0.1 0,-0.1 0,-0.2zm-3.2,-6.4c-0.2,0 -0.5,0 -0.6,0.3c-0.3,0.8 -0.6,1.5 -0.9,2.3c-0.2,-0.3 -0.4,-0.5 -0.6,-0.8c1.2,-2.8 2.2,-5.8 3.7,-8.5c-0.4,2.3 -1,4.5 -1.6,6.7zm2.4,-5.1c0,0.2 0.1,0.4 0.1,0.7c-1,2.9 -1.8,6 -2.2,9c0,-0.1 -0.1,-0.1 -0.1,-0.2c0.4,-3.3 1.4,-6.4 2.2,-9.5zm-1.2,10.4c0.2,-0.4 0.4,-0.8 0.6,-1.3c-0.1,0.5 -0.3,1 -0.4,1.5c-0.1,0 -0.1,-0.1 -0.2,-0.1c0,0 0,0 0,-0.1zm-18.8,-5c-0.1,0 -0.1,0 0,0c-0.1,-0.3 -0.4,-0.3 -0.6,-0.3c-0.3,0 -0.5,0 -0.7,0c-0.2,-0.4 -0.5,-0.8 -0.7,-1.1c-0.8,-1.8 -1.4,-3.6 -1.4,-5.6c1.4,0.8 2.6,2.3 3.6,3.9c-0.2,1 -0.2,2.1 -0.2,3.1zm-8.5,0.7c-0.1,0 -0.1,0 -0.2,0c0.1,-0.1 0.1,-0.2 0.2,-0.3c0,0 0,0.1 0,0.3zm-1.5,0.1c0,0 -0.1,0 -0.1,0c0,-0.1 0.1,-0.1 0.1,-0.2l0,0.2zm-17.8,6.6c0,-0.4 0,-0.8 0.1,-1.2c0.2,0.2 0.4,0.4 0.7,0.7c-0.3,0.1 -0.5,0.3 -0.8,0.5zm3.7,-2.3c0,0 0,-0.1 0,-0.1c0.1,-0.5 0.7,-0.5 1.3,-0.5c-0.4,0.2 -0.9,0.4 -1.3,0.6zm3.1,-1.4c0.3,-0.3 0.6,-0.7 0.8,-1.1c0.1,0.3 0.1,0.5 0.2,0.8c-0.3,0 -0.6,0.1 -1,0.3zm2.1,-0.8c0.2,-0.6 0.5,-1.2 0.8,-1.7c0.2,0.4 0.4,0.9 0.5,1.3c-0.4,0.1 -0.9,0.3 -1.3,0.4zm53,6.4l0.2,0c0,0 0,0 0,0.1c-0.1,0 -0.1,-0.1 -0.2,-0.1zm-67.8,-3.4c-0.2,-2.9 -0.8,-5.7 -0.9,-8.6c-0.4,-8.6 1,-17.1 3,-25.4c1.6,-6.7 3.6,-13.8 3.3,-20.8c-0.1,-1.6 -0.3,-3.2 -0.8,-4.7c0.9,0.2 1.7,0.6 2.6,0.8c1.9,0.4 3.9,0.6 5.8,0.9c3.8,0.5 7.7,1.1 11.5,1.7c4,0.6 7.9,0.9 11.9,1.8c3.1,0.7 6.1,1.1 9.3,0.8c5.6,-0.5 11.1,-1.9 16.4,-4.1c4.7,-1.9 9.5,-4.6 13,-8.5c0.9,1.4 1.9,2.8 3,4.1c2.3,2.7 4.7,5.2 7,8c1.9,2.4 3.9,4.8 5.3,7.7c1.6,3.5 0.8,6.9 -0.1,10.5c-2,7.8 -5.6,14.8 -9.4,21.7c-2,3.6 -4.2,7 -6.7,10.2c-1.9,2.5 -4.4,4.4 -5.9,7.2c0,0 0,0 0,0c-0.2,-0.3 -0.7,-0.4 -0.9,0c-0.1,0.1 -0.1,0.2 -0.2,0.3c-0.2,0 -0.3,0.2 -0.4,0.4c0,0 0,0 0,0l0,-0.9c0,-0.5 -0.5,-0.6 -0.9,-0.4c0,0 0,0.1 -0.1,0.1c-0.2,-0.5 -0.4,-1 -0.6,-1.5c-0.1,-0.2 -0.4,-0.3 -0.6,-0.2c-0.1,-0.4 -0.2,-0.8 -0.3,-1.2c-0.2,-0.5 -1,-0.4 -1,0.1c0,1.2 -0.2,2.5 -0.4,3.7c-0.2,-0.9 -0.4,-1.9 -0.7,-2.8c-0.1,-0.6 -1,-0.4 -1,0.1l0,3.6c-0.2,-0.4 -0.4,-0.9 -0.6,-1.3c-0.2,-0.5 -1,-0.2 -0.9,0.3c0,0.3 0.1,0.7 0.1,1c-0.1,-0.1 -0.1,-0.2 -0.2,-0.3c-0.2,-0.2 -0.5,-0.3 -0.7,-0.1c-0.1,-0.1 -0.1,-0.1 -0.2,-0.2c-0.7,-1.4 -1.2,-2.9 -1.5,-4.5c-0.1,-0.6 -1.1,-0.4 -1,0.3c0.1,0.8 0.2,1.5 0.2,2.3c-0.1,-0.1 -0.2,-0.2 -0.4,-0.3c-0.7,-1.4 -1.2,-2.9 -1.8,-4.4c0.3,-1.5 0.5,-2.9 0.6,-4.4c0.6,-2.3 1,-4.6 1.3,-6.9c0.1,-0.5 -0.7,-0.7 -0.9,-0.3c-0.3,0.7 -0.6,1.4 -0.8,2c-0.1,-0.3 -0.2,-0.6 -0.3,-0.9c0,-0.1 0,-0.2 0.1,-0.3c0.1,-0.3 -0.2,-0.6 -0.4,-0.6c0,-0.1 -0.1,-0.2 -0.1,-0.3c-0.2,-0.4 -0.7,-0.3 -0.9,0c-1.9,2.9 -2.9,6.2 -4.3,9.4c0,0 0,0 -0.1,-0.1c0.4,-2.1 1,-4.1 1.7,-6.1c1.1,-2.9 2.1,-5.9 3.1,-8.8c0.2,-0.6 -0.8,-0.9 -1,-0.3c-1,2.9 -2.1,5.8 -3,8.7c-0.5,1.3 -1,2.5 -1.5,3.7c0.2,-0.7 0.3,-1.4 0.5,-2.1c0.4,-1.2 0.7,-2.4 1,-3.6c0.2,-0.6 -0.7,-0.9 -1,-0.3c-0.1,0.4 -0.3,1.1 -0.5,2c-0.3,1.1 -0.7,2.3 -1.1,3.4c-0.2,-0.3 -0.7,-0.3 -0.8,0c-0.5,0.9 -1,1.9 -1.4,2.9c-0.1,-0.1 -0.2,-0.2 -0.3,-0.4c-0.3,-0.5 -0.9,-0.2 -0.9,0.3c0,0 0,0 0,0c-0.2,0 -0.3,0.1 -0.4,0.2c-0.2,0.4 -0.4,0.7 -0.6,1c0.2,-2 0.4,-3.9 0.7,-5.9c0.3,0.2 0.8,0.1 0.8,-0.4l0,-5c0,-0.5 -0.9,-0.7 -1,-0.1c-0.6,3.5 -1.1,7 -1.4,10.5c0,-0.5 0,-1 0,-1.4c0.7,-3.6 0.9,-7.4 1,-11c0,-0.6 -0.8,-0.7 -1,-0.1c-1.2,3.4 -1.2,7.4 -1,11c-0.1,0.5 -0.2,1 -0.3,1.5c-0.3,-0.1 -0.5,-0.3 -0.7,-0.4c0.4,-3 0.5,-6 1,-8.9c0.1,-0.6 -0.8,-0.9 -1,-0.3c-0.5,2.6 -0.6,5.4 -0.9,8.2c-0.2,0 -0.4,0 -0.5,0.1c-0.1,0.1 -0.2,0.2 -0.3,0.2c-0.4,-2.9 -0.9,-5.7 -1.9,-8.5c-0.2,-0.4 -0.8,-0.5 -1,0c-0.4,1.5 -0.6,3 -0.8,4.5c-1.1,-1.6 -2.4,-3.2 -4.1,-3.8c-0.3,-0.1 -0.6,0.2 -0.6,0.5c0,0.5 0,1 0,1.5c-0.7,-1.6 -1.4,-3.1 -2.1,-4.7c-0.3,-0.6 -1.1,-0.1 -0.9,0.5c0.7,1.4 1.3,2.8 1.9,4.3c-1.5,-2 -3,-4 -4.4,-6.2c-0.2,-0.4 -0.4,-0.7 -0.7,-1.1c-0.3,-0.5 -1.2,-0.1 -0.9,0.5c2.4,3.7 3.8,7.8 4.8,12c-0.1,0.5 -0.3,1 -0.4,1.6c-0.2,0 -0.3,0 -0.5,0l0,-2.4c0,-0.5 -0.7,-0.7 -0.9,-0.3l-0.6,1.1l0,-0.8c0,-0.6 -0.8,-0.7 -1,-0.1c-0.3,1.1 -0.8,2.1 -1.4,3c-0.4,0.1 -0.8,0.1 -1.2,0.2c-0.1,-0.3 -0.3,-0.5 -0.5,-0.8c-0.2,-0.3 -0.6,-0.3 -0.9,0c-0.3,0.4 -0.5,0.8 -0.6,1.2c-0.1,0 -0.1,0 -0.2,0c-0.1,-0.5 -0.2,-1 -0.3,-1.5c0,-0.6 -0.8,-0.7 -1,-0.1c-0.2,0.7 -0.5,1.3 -0.7,2c-0.3,-0.7 -0.6,-1.4 -0.9,-2.1c-0.1,-0.3 -0.6,-0.3 -0.8,-0.1c-0.4,0.5 -0.8,1 -1.1,1.6c0,-0.1 -0.1,-0.3 -0.1,-0.4c-0.1,-0.4 -0.7,-0.5 -0.9,-0.1c-0.4,0.7 -1,2.2 -1.8,2.5c-0.7,0.3 -1.7,0.2 -2.4,0.3c-0.2,0 -0.4,0.3 -0.4,0.5c0,1.3 -1,0.8 -1.5,0.3c-0.5,-0.5 -1.2,0.2 -0.7,0.7c0.1,0.1 0.1,0.2 0.2,0.3c-0.2,-0.2 -0.4,-0.4 -0.7,-0.7c-0.3,-0.3 -0.7,-0.1 -0.8,0.2c-0.3,0.9 -0.2,1.8 -0.3,2.7c-0.1,-0.1 -0.3,-0.2 -0.4,-0.2c-0.2,-0.1 -0.4,0.1 -0.6,0.2c-0.5,0.7 -0.7,1.9 -1.7,1.9c-0.4,0 -0.5,0.3 -0.5,0.6l-1.8,0c0,-0.2 0.1,-0.4 0.1,-0.6c0.6,-1.2 0.5,-2.5 0.4,-3.8zm-19.9,3.6c0,0.1 0.1,0.2 0.1,0.3c0.2,0.6 0.9,0.4 1,-0.1c0,0 0,0 0,-0.1c0.1,0.2 0.1,0.5 0.2,0.7l-1.7,0c0.1,-0.2 0.3,-0.5 0.4,-0.8zm-2.8,0.8l-0.6,0c0,-0.1 0,-0.2 0.1,-0.3c0.1,0.1 0.3,0.2 0.5,0.3zm-5.8,-1.1c0.1,0.3 0.3,0.6 0.4,0.9c-0.1,0.1 -0.1,0.1 -0.2,0.2l-0.1,0c0,-0.3 -0.1,-0.6 -0.1,-0.9c-0.1,0 -0.1,-0.1 0,-0.2zm-4.9,-3.8c0.2,0.4 0.5,0.7 0.7,1.1c-0.1,0.1 -0.1,0.2 -0.1,0.3c0,0.5 0,0.9 -0.1,1.4c-0.2,-0.2 -0.4,-0.3 -0.6,-0.5c-0.3,-0.7 -0.5,-1.4 -0.7,-2.1c0.2,0.1 0.4,0 0.8,-0.2zm-7.8,-4.4c0,0.3 0.1,0.6 0.1,0.9c0,0.2 -0.1,0.4 -0.1,0.6c0,0.1 0,0.1 0,0.2c-0.2,-0.1 -0.5,-0.3 -0.7,-0.4c0,0 0,-0.1 0,-0.1c0.1,-0.4 0.4,-0.8 0.7,-1.2zm-5.1,-1.1c0,0.1 0,0.1 0,0.2c-0.4,-0.2 -0.7,-0.3 -1.1,-0.5c0.1,-1.1 0.2,-2.1 0.3,-3.2c0.3,1.2 0.6,2.4 0.8,3.5zm-1.7,-10c0.1,0.9 0.2,1.9 0.3,2.8c-0.2,2.2 -0.4,4.3 -0.6,6.5c0,0 -0.1,0 -0.1,0c-0.1,-0.4 -0.2,-0.8 -0.3,-1.1c0.3,-2.8 0.4,-5.5 0.7,-8.2zm-2.1,8.5c-0.2,-0.1 -0.5,-0.2 -0.7,-0.3l0,-1.9c0.2,0.8 0.5,1.5 0.7,2.2zm-3.4,-10.1c0.5,1.2 1,2.4 1.4,3.6c0,1.9 0.1,3.9 0.3,5.8c-0.2,-0.1 -0.3,-0.1 -0.5,-0.2c-0.4,-1.3 -0.7,-2.6 -1,-3.9c-0.3,-1.7 -0.4,-3.5 -0.2,-5.3zm-1.4,3.7c0.2,0.7 0.3,1.3 0.5,2c0,0.3 0.1,0.7 0.1,1c-0.4,-1 -0.9,-1.9 -1.4,-2.9c0.3,0.1 0.6,0.1 0.8,-0.1zm-3.3,-2.6c1.3,2.4 2.7,4.8 3.6,7.4c-0.4,-0.1 -0.8,-0.3 -1.2,-0.4c-0.2,-0.5 -0.3,-1 -0.5,-1.5c-0.3,-0.8 -0.7,-3.1 -1.5,-3.9c-0.1,-0.5 -0.2,-1.1 -0.4,-1.6zm-3.4,3.5c0.2,0.3 0.4,0.5 0.6,0.8c0,0.4 0,0.8 0,1.2c-0.5,-0.1 -1.1,-0.3 -1.7,-0.4c0.4,-0.5 0.8,-1 1.1,-1.6zm-4.6,0.2c0,0 0,0.1 0.1,0.1c0.1,0.1 0.1,0.2 0.2,0.3c0,0.1 0.1,0.3 0.1,0.4c-0.2,0 -0.4,-0.1 -0.7,-0.1c0.1,-0.2 0.1,-0.3 0.1,-0.5c0.1,-0.1 0.2,-0.2 0.2,-0.2zm-3.1,-0.5c0.3,-0.2 0.5,-0.4 0.8,-0.7c0.2,0.6 0.4,1.1 0.8,1.6c0,0.1 0.1,0.1 0.2,0.1c-0.6,-0.1 -1.2,-0.2 -1.8,-0.3c0,0 0,-0.1 0,-0.1l0,-0.6zm-14.9,-1.9c0.2,0.3 0.4,0.6 0.7,0.8c0.1,0.3 0.2,0.7 0.3,1c-0.6,-0.2 -1.1,-0.5 -1.4,-0.9c0.2,-0.2 0.3,-0.5 0.4,-0.9zm-0.4,2.2c-0.1,0 -0.1,0 0,0c-0.1,0 -0.1,0 -0.1,-0.1c0,0.1 0,0.1 0.1,0.1zm-1.7,0.2c-0.2,0 -0.3,0 -0.5,0l0,-0.7c0.1,0.2 0.3,0.4 0.5,0.7zm-1.9,0.1c-0.1,0 -0.3,0 -0.4,0c0.1,-0.2 0.1,-0.5 0.2,-0.7c0.1,0.3 0.1,0.5 0.2,0.7zm-1.6,-1.7l0,2c-0.3,0 -0.5,0.1 -0.8,0.1c-0.1,-0.2 -0.2,-0.4 -0.3,-0.6c0.4,-0.5 0.7,-1 1.1,-1.5zm-2.3,1.4c-0.1,0.2 -0.3,0.3 -0.4,0.5c-0.1,-0.5 -0.2,-0.9 -0.2,-1.4c0.2,0.3 0.4,0.6 0.6,0.9zm-1.5,-0.1c0.1,0.4 0.1,0.8 0.2,1.2c-0.3,0.1 -0.6,0.1 -0.9,0.2c0.2,-0.5 0.5,-1 0.7,-1.4zm-2.4,1.4c0,0.1 0,0.1 0,0.2c0,0 -0.1,0 -0.1,0c0.1,0 0.1,-0.1 0.1,-0.2zm-5.3,1.5c0,0 0,0 0,0c0,0 0,0 0,0c0,0 0,0 0,0zm-6.1,0.4c0.2,0.1 0.3,0.1 0.5,0.2c0.1,0.2 0.2,0.5 0.3,0.7c-0.4,0.1 -0.8,0.2 -1.2,0.3c0.2,-0.4 0.3,-0.8 0.4,-1.2zm-0.9,-0.4c-0.1,0.5 -0.3,1 -0.5,1.5c-0.2,-0.6 -0.4,-1.3 -0.6,-1.9c0.4,0 0.8,0.2 1.1,0.4zm-3.5,-1.5c0.3,0.1 0.6,0.2 0.8,0.3c-0.2,1.3 -0.6,2.5 -1.1,3.6c0.1,-1.3 0.2,-2.6 0.3,-3.9zm-1.7,2.8c0.2,-0.4 0.4,-0.8 0.6,-1.2c-0.1,0.9 -0.1,1.8 -0.2,2.7c0,0 0,0 -0.1,0c-0.1,-0.5 -0.2,-1 -0.3,-1.5c0,0 0,0 0,0zm-1.1,-0.6c0,0.2 0.1,0.3 0.1,0.5c-0.3,0.6 -0.5,1.3 -0.7,1.9c-0.2,0 -0.4,0.1 -0.6,0.1c0.4,-0.8 0.8,-1.6 1.2,-2.5zm-1.7,-5.5c-0.5,2.4 -1,4.9 -1.3,7.3c-0.1,0.2 -0.2,0.3 -0.4,0.4c-0.1,-0.6 -0.3,-1.2 -0.6,-1.7c0.7,-2 1.4,-4 2.3,-6zm-2.7,7.7c0.1,0.3 0.1,0.6 0.2,0.9c-0.2,0 -0.3,0 -0.4,0.1c0,-0.4 0.1,-0.7 0.2,-1zm-11.8,2.3c0,0 0,0 0,0c0.1,0 0.1,0 0.2,0c-0.1,0 -0.1,0 -0.2,0zm1,-1.6c0,0.2 0,0.4 0,0.5l0,0c-0.6,-2.3 -0.8,-4.7 -1,-7.1c0.6,2 1.1,4 1.7,6.1c0,0 0,0 0,0c-0.1,0 -0.1,-0.1 -0.2,-0.1c-0.2,0 -0.4,0 -0.5,0.2c0,0.1 0,0.3 0,0.4zm5,-17.7c0,4.1 -0.1,8.3 -0.1,12.4c0,1.8 0,3.5 0.1,5.3c-0.3,-1.1 -0.7,-2.2 -1.1,-3.2c0.1,-0.1 0.2,-0.3 0.1,-0.5c-0.2,-0.6 -0.4,-1.1 -0.6,-1.7c0.2,-4.2 0.3,-8.4 1.6,-12.3zm-1.8,15.9c0.3,0.7 0.5,1.5 0.7,2.2c-0.3,0 -0.6,0 -0.9,0.1c0.1,-0.8 0.1,-1.5 0.2,-2.3zm-1.3,-3.5c0.1,0.4 0.3,0.8 0.4,1.2c-0.1,1.5 -0.2,2.9 -0.3,4.4c-1,-3.5 -1.9,-7.1 -3.1,-10.6c0,-0.4 0,-0.7 0,-1.1c1.1,2 2.1,4 3,6.1zm-6.1,-11.8c-0.2,0.1 -0.4,0.4 -0.3,0.7c0.8,1.8 1.5,3.7 2.2,5.5c0,3.9 0.3,7.7 1.2,11.4c-0.1,0 -0.1,0 -0.2,0c-1.6,-6.6 -3.3,-13.2 -4.2,-19.9c0.5,0.8 0.9,1.6 1.3,2.3zm-2.5,-4.6c0.5,5.6 1.1,11.1 1.5,16.7c-0.2,0.1 -0.3,0.4 -0.2,0.7c0.1,0.3 0.2,0.5 0.3,0.8c0,0.9 0.1,1.8 0.1,2.6c-0.6,-0.9 -1.3,-1.8 -1.9,-2.7c0,-0.1 -0.1,-0.3 -0.1,-0.4c-0.7,-2.8 -1.6,-5.5 -2.5,-8.2c-0.1,-0.2 -0.2,-0.3 -0.3,-0.3c0.8,-3.1 1.9,-6.2 3.1,-9.2zm-3.5,10.6c0.5,1.8 1.1,3.7 1.7,5.5c-0.2,0 -0.4,0.2 -0.4,0.5c0,1.3 -0.2,2.6 -0.3,3.9c-0.1,-0.2 -0.2,-0.5 -0.3,-0.7c-0.3,-0.9 -0.7,-1.9 -0.9,-2.8c0,-0.1 -0.1,-0.1 -0.1,-0.2c-0.2,-0.6 -0.4,-1.2 -0.5,-1.8c0.1,-1.5 0.4,-2.9 0.8,-4.4zm-1.3,6.7c0,0 0,0.1 0,0c0,1.2 -0.1,2.4 -0.3,3.5c0,0 0,0 0,0c0,-1.2 0.1,-2.3 0.3,-3.5zm-3.6,4c0,0.1 -0.1,0.1 -0.1,0.2c-0.3,0 -0.6,-0.1 -0.8,-0.1c-0.1,-0.2 -0.1,-0.3 -0.2,-0.5c-0.1,-0.6 -0.2,-1.1 -0.3,-1.7c0.4,0.7 0.9,1.4 1.4,2.1zm-1.6,1.3c0,0 0,0 0,0c0.1,0 0.1,0 0,0c0.1,0.2 0.2,0.3 0.2,0.5c-0.2,0 -0.3,0 -0.5,-0.1c0,-0.2 -0.1,-0.4 -0.1,-0.6c0.2,0.1 0.3,0.1 0.4,0.2zm-1.9,-0.2c0,0 0,-0.1 0.1,-0.2c0.1,0 0.1,0 0.2,0c0,0.2 0,0.4 -0.1,0.6c-0.3,0 -0.6,-0.1 -0.9,-0.1c-0.2,-0.2 -0.4,-0.4 -0.6,-0.5c0.1,0 0.3,0 0.4,0c0.1,0.4 0.7,0.6 0.9,0.2zm-0.4,-2c-0.2,-0.5 -0.5,-1.1 -0.8,-1.6c0.1,-0.4 0.1,-0.7 0.2,-1.1c0.3,0.5 0.6,1 0.9,1.5c-0.1,0.5 -0.2,0.9 -0.3,1.2zm0,-11.1c0,1.9 0,3.7 0.1,5.6c-0.3,-0.3 -0.7,-0.7 -1,-1c0.3,-1.6 0.6,-3.1 0.9,-4.6zm-1,5.8c0.4,0.4 0.9,0.9 1.3,1.3c0,0 0,0 0,0c-0.2,0 -0.3,0 -0.5,0c-0.1,-0.2 -0.3,-0.4 -0.4,-0.7c-0.1,-0.2 -0.3,-0.3 -0.5,-0.2c0,-0.1 0.1,-0.2 0.1,-0.4zm-1.2,-1.1c-0.1,0.6 -0.1,1.2 -0.2,1.8c0,-0.1 -0.1,-0.3 -0.1,-0.4c0,-0.6 0,-1.1 0,-1.7c0.1,0.1 0.2,0.2 0.3,0.3zm-1.7,6.1c0,0 0,0 0,0c0.1,0.2 0.1,0.4 0.1,0.5c-0.3,-0.2 -0.8,0.2 -0.7,0.7c0,0 -0.1,0 -0.1,0.1c0,-0.2 0,-0.4 -0.1,-0.6c0.3,-0.2 0.6,-0.5 0.8,-0.7zm-3.6,0c0,0 0,0 0,0c-0.2,-0.1 -0.4,-0.2 -0.5,-0.4c-0.4,-0.6 -0.7,-1.2 -1,-1.8c0,-0.3 0.1,-0.6 0.1,-0.8c0,-0.3 -0.2,-0.4 -0.4,-0.5c-0.2,-2.8 -0.9,-5.5 -1.8,-8.1c1.4,3.7 2.6,7.6 3.6,11.6zm-5.3,-0.7c0,0 0,0 0,0c0,0 0,-0.1 0,0c0,-0.1 0,0 0,0zm-2.4,-1.1c-0.1,0 -0.1,-0.1 -0.2,-0.1c0.1,-0.1 0.1,-0.2 0.2,-0.3c0,0.2 0,0.3 0,0.4zm-2.1,-1c-0.2,-0.1 -0.4,-0.2 -0.6,-0.3c0.2,-0.4 0.4,-0.8 0.7,-1.2c-0.1,0.4 -0.1,0.9 -0.1,1.5zm-2.6,-1.8c0.3,-0.3 0.5,-0.7 0.8,-1c0,0.6 -0.1,1.2 -0.2,1.7c-0.2,-0.1 -0.4,-0.2 -0.5,-0.3c0,-0.2 0,-0.3 -0.1,-0.4zm-3.2,-3.4c-0.1,0.4 -0.2,0.8 -0.3,1.2c-0.1,-0.1 -0.2,-0.2 -0.4,-0.3c0.3,-0.3 0.5,-0.6 0.7,-0.9zm-4.9,-5.2c0.1,-1.1 0.2,-2.1 0.3,-3.2c0,1.9 0,3.8 0,5.7c-0.2,-0.2 -0.3,-0.3 -0.5,-0.5c0.1,-0.7 0.2,-1.4 0.2,-2zm-5.8,-6.5c0,0.1 -0.1,0.3 -0.1,0.4c-0.1,0.2 -0.1,0.5 -0.2,0.8c-0.1,-0.2 -0.2,-0.4 -0.4,-0.5l0,-4.2c0.2,1.1 0.4,2.3 0.7,3.5zm-6.8,-14.8c1,3.4 2,6.8 2.9,10.2c-1,-1.8 -2,-3.7 -2.9,-5.5c0.1,-1.5 0.1,-3.1 0,-4.7zm-5.3,-5.5c-0.2,-0.4 -0.5,-0.9 -0.7,-1.3c0,-2.1 0.2,-4.1 0.6,-6.2c-0.1,2.5 -0.1,5 0.1,7.5zm-5.6,-9.2c0,0.4 0,0.8 0,1.3c-0.3,-0.3 -0.6,-0.6 -0.8,-0.8c0.1,-0.6 0.2,-1.2 0.4,-1.8c0.1,0.3 0.2,0.8 0.4,1.3zm-2.4,-6.9c0.1,0.2 0.1,0.4 0.2,0.6c-0.2,1.7 -0.3,3.5 -0.3,5.2c-0.5,-0.4 -1,-0.7 -1.6,-1.1c0,-0.5 0.1,-1 0.2,-1.6c0.5,-0.9 1,-2 1.5,-3.1zm-3.1,-1c1,-4.4 2.4,-8.7 5.2,-12.2c-1.8,4.9 -3.8,10.5 -4.6,16c-0.2,0.4 -0.4,0.7 -0.5,1.1c0,-0.3 0,-0.5 -0.1,-0.8l0,-4.1zm-1.6,1c0,0.4 0.1,0.8 0.1,1.1c0,0 0,0 0,0.1c-0.2,0.7 -0.3,1.5 -0.5,2.2c0,0 0,0 -0.1,0c0,-0.4 -0.1,-0.8 -0.1,-1.3c0.2,-0.8 0.4,-1.5 0.6,-2.1zm-0.6,-5.3c0.2,1 0.3,1.9 0.5,2.9c-0.3,0.6 -0.5,1.2 -0.8,1.8c-0.1,-0.7 -0.2,-1.3 -0.3,-2c0.2,-0.9 0.4,-1.8 0.6,-2.7zm-2.5,-0.3c0,-0.8 0.1,-1.6 0.1,-2.4c0.3,1.8 0.6,3.5 0.8,5.3c-0.3,1.5 -0.5,3 -0.7,4.5c0,-0.9 0,-1.8 0,-2.7c0,-0.2 -0.1,-0.4 -0.3,-0.4c0.1,-1.5 0.1,-2.9 0.1,-4.3zm1.4,6.3c0.1,0.4 0.1,0.9 0.1,1.3c-0.1,0.3 -0.1,0.7 -0.1,1c-0.1,0 -0.2,0 -0.3,-0.1c0.1,-0.7 0.2,-1.5 0.3,-2.2z" id="svg_20"/>
  <path fill="#BDF9F4" d="m665,49.8c-10.5,-1.2 -21.4,2.2 -31.6,-1c5.8,-0.6 12,1.1 17.5,-1.4c0.3,-0.1 0.3,-0.6 0.1,-0.8c-9.2,-8 -22.7,3.3 -32.6,-2.3c2.1,-0.9 4.5,-0.4 6.8,-0.9c0.5,-0.1 0.4,-0.8 0,-1c-10.1,-3.9 -20.1,-0.2 -30.5,-0.4c-9.2,-0.2 -18.8,-3.9 -27.8,-0.8c-1.9,-0.1 -3.8,-0.2 -5.7,-0.3c-4.4,-0.1 -9.4,-0.1 -13.4,2.1c-0.3,0.2 -0.3,0.6 -0.1,0.8c0.3,0.3 0.6,0.5 1,0.7c-6.7,0.1 -13.4,0.7 -19.8,2.8c-0.4,0.1 -0.5,0.7 -0.1,0.9c0.2,0.1 0.4,0.2 0.5,0.3c-0.2,0.3 -0.1,0.7 0.3,0.8c0.7,0.2 1.5,0.3 2.2,0.4c2.7,0.9 5.7,1 8.5,0.6c7.4,0 14.8,-0.8 22,0.3c-4.5,-0.1 -9.1,-1 -13.3,1.2c-0.3,0.1 -0.3,0.6 -0.1,0.8c3.5,3.5 10.5,2 14.9,1.6c2.8,-0.2 5.6,-0.5 8.3,-0.9c3.9,-0.6 8.1,-1.1 11.8,0.5c-7.3,2.1 -15.5,-1.7 -22.3,2.7c-0.3,0.2 -0.4,0.7 0,0.9c10.1,4.4 22,-1.7 32,2.4c-4.9,-0.1 -10.1,-0.5 -14.7,1.4c-0.4,0.2 -0.3,0.7 0,0.9c9.1,5.3 20.2,2 30.1,2.5c4.7,0.2 9.4,0.7 14.1,0.5c2.8,-0.1 6.8,-0.3 8.5,-2.9c0.1,-0.2 0.1,-0.6 -0.2,-0.7c-3,-1.6 -6.2,-0.9 -9.4,-1.3c6.2,-0.5 12.6,-1.2 18.8,-0.6c4.6,0.5 10.6,1.7 14.6,-1.3c0.3,-0.2 0.3,-0.5 0.1,-0.8c-1.6,-1.9 -4.2,-2.5 -6.8,-2.7c5.7,-0.2 11.3,-1.2 16.3,-4.2c0.7,-0.1 0.5,-0.7 0,-0.8z" id="svg_35"/>
  <path fill="#BDF9F4" d="m157.9,74.8c-10.5,-1.2 -21.4,2.2 -31.6,-1c5.8,-0.6 12,1.1 17.5,-1.4c0.3,-0.1 0.3,-0.6 0.1,-0.8c-9.2,-8 -22.7,3.3 -32.6,-2.3c2.1,-0.9 4.5,-0.4 6.8,-0.9c0.5,-0.1 0.4,-0.8 0,-1c-10.1,-3.9 -20.1,-0.2 -30.5,-0.4c-9.2,-0.2 -18.8,-3.9 -27.8,-0.8c-1.9,-0.1 -3.8,-0.2 -5.7,-0.3c-4.4,-0.1 -9.4,-0.1 -13.4,2.1c-0.3,0.2 -0.3,0.6 -0.1,0.8c0.3,0.3 0.6,0.5 1,0.7c-6.7,0.1 -13.4,0.7 -19.8,2.8c-0.4,0.1 -0.5,0.7 -0.1,0.9c0.2,0.1 0.4,0.2 0.5,0.3c-0.2,0.5 -0.2,0.9 0.2,1c0.7,0.2 1.5,0.3 2.2,0.4c2.7,0.9 5.7,1 8.5,0.6c7.4,0 14.8,-0.8 22,0.3c-4.5,-0.1 -9.1,-1 -13.3,1.2c-0.3,0.1 -0.3,0.6 -0.1,0.8c3.5,3.5 10.5,2 14.9,1.6c2.8,-0.2 5.6,-0.5 8.3,-0.9c3.9,-0.6 8.1,-1.1 11.8,0.5c-7.3,2.1 -15.5,-1.7 -22.3,2.7c-0.3,0.2 -0.4,0.7 0,0.9c10.1,4.4 22,-1.7 32,2.4c-4.9,-0.1 -10.1,-0.5 -14.7,1.4c-0.4,0.2 -0.3,0.7 0,0.9c9.1,5.3 20.2,2 30.1,2.5c4.7,0.2 9.4,0.7 14.1,0.5c2.8,-0.1 6.8,-0.3 8.5,-2.9c0.1,-0.2 0.1,-0.6 -0.2,-0.7c-3,-1.6 -6.2,-0.9 -9.4,-1.3c6.2,-0.5 12.6,-1.2 18.8,-0.6c4.6,0.5 10.6,1.7 14.6,-1.3c0.3,-0.2 0.3,-0.5 0.1,-0.8c-1.6,-1.9 -4.2,-2.5 -6.8,-2.7c5.7,-0.2 11.3,-1.2 16.3,-4.2c0.8,-0.3 0.5,-0.9 0.1,-1z" id="svg_36"/>
  <path fill="#BDF9F4" d="m266.9,113.4c-5.8,-0.7 -11.9,1.2 -17.7,-0.5c3.3,-0.3 6.7,0.6 9.8,-0.8c0.2,-0.1 0.2,-0.3 0.1,-0.4c-5.2,-4.5 -12.7,1.8 -18.3,-1.3c1.2,-0.5 2.5,-0.2 3.8,-0.5c0.3,-0.1 0.2,-0.4 0,-0.5c-5.6,-2.2 -11.3,-0.1 -17,-0.2c-5.1,-0.1 -10.5,-2.2 -15.5,-0.4c-1.1,-0.1 -2.1,-0.1 -3.2,-0.2c-2.5,-0.1 -5.3,0 -7.5,1.2c-0.2,0.1 -0.2,0.3 -0.1,0.4c0.2,0.2 0.4,0.3 0.5,0.4c-3.7,0 -7.5,0.4 -11,1.5c-0.2,0.1 -0.3,0.4 -0.1,0.5c0.1,0.1 0.2,0.1 0.3,0.2c-0.1,0.1 -0.1,0.4 0.1,0.4c0.4,0.1 0.8,0.2 1.2,0.2c1.5,0.5 3.2,0.6 4.8,0.3c4.1,0 8.3,-0.4 12.3,0.2c-2.5,0 -5.1,-0.5 -7.4,0.7c-0.2,0.1 -0.2,0.3 -0.1,0.4c2,2 5.9,1.1 8.3,0.9c1.6,-0.1 3.1,-0.3 4.7,-0.5c2.2,-0.3 4.5,-0.6 6.6,0.3c-4.1,1.2 -8.7,-1 -12.5,1.5c-0.2,0.1 -0.2,0.4 0,0.5c5.7,2.5 12.3,-1 17.9,1.3c-2.8,-0.1 -5.7,-0.3 -8.2,0.8c-0.2,0.1 -0.2,0.4 0,0.5c5.1,3 11.3,1.1 16.8,1.4c2.6,0.1 5.2,0.4 7.9,0.3c1.5,-0.1 3.8,-0.1 4.8,-1.6c0.1,-0.1 0,-0.3 -0.1,-0.4c-1.7,-0.9 -3.5,-0.5 -5.3,-0.7c3.5,-0.3 7,-0.7 10.5,-0.3c2.6,0.3 5.9,0.9 8.2,-0.7c0.2,-0.1 0.2,-0.3 0.1,-0.4c-0.9,-1 -2.4,-1.4 -3.8,-1.5c3.2,-0.1 6.3,-0.7 9.1,-2.4c0.4,-0.2 0.2,-0.6 0,-0.6z" id="svg_37"/>
  <path fill="#BDF9F4" d="m518.5,100.4c-5.8,-0.7 -11.9,1.2 -17.7,-0.5c3.3,-0.3 6.7,0.6 9.8,-0.8c0.2,-0.1 0.2,-0.3 0.1,-0.4c-5.2,-4.5 -12.7,1.8 -18.3,-1.3c1.2,-0.5 2.5,-0.2 3.8,-0.5c0.3,-0.1 0.2,-0.4 0,-0.5c-5.6,-2.2 -11.3,-0.1 -17,-0.2c-5.1,-0.1 -10.5,-2.2 -15.5,-0.4c-1.1,-0.1 -2.1,-0.1 -3.2,-0.2c-2.5,-0.1 -5.3,0 -7.5,1.2c-0.2,0.1 -0.2,0.3 -0.1,0.4c0.2,0.2 0.4,0.3 0.5,0.4c-3.7,0 -7.5,0.4 -11,1.5c-0.2,0.1 -0.3,0.4 -0.1,0.5c0.1,0.1 0.2,0.1 0.3,0.2c-0.1,0.1 -0.1,0.4 0.1,0.4c0.4,0.1 0.8,0.2 1.2,0.2c1.5,0.5 3.2,0.6 4.8,0.3c4.1,0 8.3,-0.4 12.3,0.2c-2.5,0 -5.1,-0.5 -7.4,0.7c-0.2,0.1 -0.2,0.3 -0.1,0.4c2,2 5.9,1.1 8.3,0.9c1.6,-0.1 3.1,-0.3 4.7,-0.5c2.2,-0.3 4.5,-0.6 6.6,0.3c-4.1,1.2 -8.7,-1 -12.5,1.5c-0.2,0.1 -0.2,0.4 0,0.5c5.7,2.5 12.3,-1 17.9,1.3c-2.8,-0.1 -5.7,-0.3 -8.2,0.8c-0.2,0.1 -0.2,0.4 0,0.5c5.1,3 11.3,1.1 16.8,1.4c2.6,0.1 5.2,0.4 7.9,0.3c1.5,-0.1 3.8,-0.1 4.8,-1.6c0.1,-0.1 0,-0.3 -0.1,-0.4c-1.7,-0.9 -3.5,-0.5 -5.3,-0.7c3.5,-0.3 7,-0.7 10.5,-0.3c2.6,0.3 5.9,0.9 8.2,-0.7c0.2,-0.1 0.2,-0.3 0.1,-0.4c-0.9,-1 -2.4,-1.4 -3.8,-1.5c3.2,-0.1 6.3,-0.7 9.1,-2.4c0.4,-0.2 0.3,-0.5 0,-0.6z" id="svg_38"/>
  <path fill="#9BF9F4" d="m586.3,78.8l-24.7,0c-0.6,0 -0.6,1 0,1l24.7,0c0.7,0 0.7,-1 0,-1z" id="svg_39"/>
  <path fill="#9BF9F4" d="m653,82.8l-82.7,0c-0.6,0 -0.6,1 0,1l82.7,0c0.6,0 0.6,-1 0,-1z" id="svg_40"/>
  <path fill="#9BF9F4" d="m623,93.5l-64.7,0c-0.6,0 -0.6,1 0,1l64.7,0c0.6,0 0.6,-1 0,-1z" id="svg_41"/>
  <path fill="#9BF9F4" d="m636.3,102.2l-58,0c-0.6,0 -0.6,1 0,1l58,0c0.7,0 0.7,-1 0,-1z" id="svg_42"/>
  <path fill="#9BF9F4" d="m566.3,56.2l-58,0c-0.6,0 -0.6,1 0,1l58,0c0.7,0 0.7,-1 0,-1z" id="svg_43"/>
  <path fill="#9BF9F4" d="m435.7,94.8l-40,0c-0.6,0 -0.6,1 0,1l40,0c0.6,0 0.6,-1 0,-1z" id="svg_44"/>
  <path fill="#9BF9F4" d="m475.7,102.8l-36.7,0c-0.6,0 -0.6,1 0,1l36.7,0c0.6,0 0.6,-1 0,-1z" id="svg_45"/>
  <path fill="#9BF9F4" d="m545,79.5l-92.7,0c-0.6,0 -0.6,1 0,1l92.7,0c0.6,0 0.6,-1 0,-1z" id="svg_46"/>
  <path fill="#9BF9F4" d="m71,109.5l-36.7,0c-0.6,0 -0.6,1 0,1l36.7,0c0.6,0 0.6,-1 0,-1z" id="svg_47"/>
  <path fill="#9BF9F4" d="m141.7,104.2l-40.7,0c-0.6,0 -0.6,1 0,1l40.7,0c0.6,0 0.6,-1 0,-1z" id="svg_48"/>
  <path fill="#9BF9F4" d="m121.7,34.8l-86.7,0c-0.6,0 -0.6,1 0,1l86.7,0c0.6,0 0.6,-1 0,-1z" id="svg_49"/>
  <path fill="#9BF9F4" d="m159.7,54.8l-76,0c-0.6,0 -0.6,1 0,1l76,0c0.6,0 0.6,-1 0,-1z" id="svg_50"/>
  <path fill="#9BF9F4" d="m131,47.5l-42.7,0c-0.4,0 -0.5,0.4 -0.5,0.7l-12.1,0c-0.6,0 -0.6,1 0,1l30,0c0.4,0 0.5,-0.4 0.5,-0.7l24.8,0c0.6,0 0.6,-1 0,-1z" id="svg_51"/>
  <path fill="#9BF9F4" d="m237.7,86.8l-58,0c-0.6,0 -0.6,1 0,1l58,0c0.6,0 0.6,-1 0,-1z" id="svg_52"/>
  <path fill="#9BF9F4" d="m223.7,94.8l-77.3,0c-0.6,0 -0.6,1 0,1l77.3,0c0.6,0 0.6,-1 0,-1z" id="svg_53"/>
  <path fill="#9BF9F4" d="m171.7,114.2l-58.7,0c-0.6,0 -0.6,1 0,1l58.7,0c0.6,0 0.6,-1 0,-1z" id="svg_54"/>
  <path fill="#9BF9F4" d="m179,120.2l-62,0c-0.6,0 -0.6,1 0,1l62,0c0.6,0 0.6,-1 0,-1z" id="svg_55"/>
  <path fill="#9BF9F4" d="m193.7,140.8l-38,0c-0.6,0 -0.6,1 0,1l38,0c0.6,0 0.6,-1 0,-1z" id="svg_56"/>
  <path fill="#9BF9F4" d="m231.7,137.5c-0.6,0 -0.6,1 0,1s0.6,-1 0,-1z" id="svg_57"/>
  <path fill="#9BF9F4" d="m297.7,80.2l-38,0c-0.6,0 -0.6,1 0,1l38,0c0.6,0 0.6,-1 0,-1z" id="svg_58"/>
  <path fill="#9BF9F4" d="m308.3,85.5l-16.7,0c-0.6,0 -0.6,1 0,1l16.7,0c0.7,0 0.7,-1 0,-1z" id="svg_59"/>
  <path fill="#9BF9F4" d="m471,73.5l-51.3,0c-0.6,0 -0.6,1 0,1l51.3,0c0.6,0 0.6,-1 0,-1z" id="svg_60"/>
  <path fill="#9BF9F4" d="m618.3,125.5l-38,0c-0.6,0 -0.6,1 0,1l38,0c0.7,0 0.7,-1 0,-1z" id="svg_61"/>
  <path fill="#9BF9F4" d="m666.3,136.2l-38,0c-0.6,0 -0.6,1 0,1l38,0c0.7,0 0.7,-1 0,-1z" id="svg_62"/>
  <path fill="#9BF9F4" d="m675.7,122.2l-38,0c-0.6,0 -0.6,1 0,1l38,0c0.6,0 0.6,-1 0,-1z" id="svg_63"/>
  <path fill="#9BF9F4" d="m613,19.5l-74,0c-0.6,0 -0.6,1 0,1l74,0c0.6,0 0.6,-1 0,-1z" id="svg_64"/>
  <path fill="#9BF9F4" d="m661.7,28.8l-66.7,0c-0.6,0 -0.6,1 0,1l66.7,0c0.6,0 0.6,-1 0,-1z" id="svg_65"/>
  <path fill="#9BF9F4" d="m184.3,14.2l-34,0c-0.6,0 -0.6,1 0,1l34,0c0.7,0 0.7,-1 0,-1z" id="svg_66"/>
  <path fill="#9BF9F4" d="m184.3,34.8l-30,0c-0.6,0 -0.6,1 0,1l30,0c0.7,0 0.7,-1 0,-1z" id="svg_67"/>
  <path fill="#9BF9F4" d="m481,14.8l-152,0c-0.6,0 -0.6,1 0,1l152,0c0.6,0 0.6,-1 0,-1z" id="svg_68"/>
  <path fill="#9BF9F4" d="m23.5,52c0,0 0,0 0,0c-0.1,0.1 -0.2,0.2 -0.2,0.3c-0.6,0.6 -0.6,1.5 0,2.1c0.6,0.6 1.5,0.6 2.1,0c0.3,-0.3 0.6,-0.6 0.8,-1c0.2,-0.4 0.3,-0.9 0.3,-1.4c0,-1.9 -3,-1.9 -3,0z" id="svg_69"/>
  <path fill="#9BF9F4" d="m39.7,15.2c-1.9,0 -1.9,3 0,3s1.9,-3 0,-3z" id="svg_70"/>
  <path fill="#9BF9F4" d="m177,54.5c-1.9,0 -1.9,3 0,3s1.9,-3 0,-3z" id="svg_71"/>
  <path fill="#9BF9F4" d="m221.7,22.5c-1.9,0 -1.9,3 0,3s1.9,-3 0,-3z" id="svg_72"/>
  <path fill="#9BF9F4" d="m23.7,92.5c-1.9,0 -1.9,3 0,3s1.9,-3 0,-3z" id="svg_73"/>
  <path fill="#9BF9F4" d="m79.5,128l0,0.7c0,1.9 3,1.9 3,0l0,-0.7c0,-1.9 -3,-1.9 -3,0z" id="svg_74"/>
  <path fill="#9BF9F4" d="m135.7,142.5c-1.9,0 -1.9,3 0,3s1.9,-3 0,-3z" id="svg_75"/>
  <path fill="#9BF9F4" d="m246.1,147.6l-0.7,-0.7c-0.6,-0.6 -1.5,-0.6 -2.1,0c-0.6,0.6 -0.6,1.5 0,2.1l0.7,0.7c0.6,0.6 1.5,0.6 2.1,0c0.5,-0.6 0.5,-1.5 0,-2.1z" id="svg_76"/>
  <path fill="#9BF9F4" d="m211.7,59.8l-2,0c-1.9,0 -1.9,3 0,3l2,0c1.9,0 1.9,-3 0,-3z" id="svg_77"/>
  <path fill="#9BF9F4" d="m313.7,109.2c-1.9,0 -1.9,3 0,3s1.9,-3 0,-3z" id="svg_78"/>
  <path fill="#9BF9F4" d="m293.7,17.8l-1.3,0c-1.9,0 -1.9,3 0,3l1.3,0c1.9,0 1.9,-3 0,-3z" id="svg_79"/>
  <path fill="#9BF9F4" d="m482.3,44c-0.2,-0.5 -0.7,-0.9 -1.3,-0.9c-0.8,0 -1.5,0.7 -1.5,1.5c0,1.2 1,2.1 2.2,2.2c0.8,0.1 1.5,-0.7 1.5,-1.5c0,-0.6 -0.4,-1 -0.9,-1.3z" id="svg_80"/>
  <path fill="#9BF9F4" d="m506.4,24.5c0,0 0,0 0,0c0.2,0 -0.1,-0.1 0,0c-0.1,-0.1 -0.2,-0.1 -0.2,-0.1c0,0 -0.1,-0.1 -0.1,-0.1c-0.6,-0.6 -1.5,-0.6 -2.1,0c-0.6,0.6 -0.6,1.6 0,2.1c0.7,0.6 1.5,1 2.4,1.1c0.8,0.1 1.5,-0.7 1.5,-1.5c-0.1,-0.8 -0.7,-1.4 -1.5,-1.5z" id="svg_81"/>
  <path fill="#9BF9F4" d="m642.7,15.6c-0.2,-0.2 -0.4,-0.4 -0.7,-0.7c-0.6,-0.6 -1.5,-0.6 -2.1,0c-0.6,0.6 -0.6,1.5 0,2.1c0.2,0.2 0.4,0.4 0.7,0.7c0.6,0.6 1.5,0.6 2.1,0c0.6,-0.6 0.6,-1.5 0,-2.1z" id="svg_82"/>
  <path fill="#9BF9F4" d="m683,53.8c-1.9,0 -1.9,3 0,3s1.9,-3 0,-3z" id="svg_83"/>
  <path fill="#9BF9F4" d="m677,94.5l-0.7,0c-1.9,0 -1.9,3 0,3l0.7,0c1.9,0 1.9,-3 0,-3z" id="svg_84"/>
  <path fill="#9BF9F4" d="m545.7,94.5c-1.9,0 -1.9,3 0,3s1.9,-3 0,-3z" id="svg_85"/>
  <path fill="#9BF9F4" d="m508.1,124.3c-0.2,-0.2 -0.4,-0.4 -0.7,-0.7c-0.6,-0.6 -1.5,-0.6 -2.1,0c-0.6,0.6 -0.6,1.5 0,2.1c0.2,0.2 0.4,0.4 0.7,0.7c0.6,0.6 1.5,0.6 2.1,0c0.5,-0.6 0.5,-1.5 0,-2.1z" id="svg_86"/>
  <path fill="#9BF9F4" d="m578.3,170.5l-0.7,0c-1.9,0 -1.9,3 0,3l0.7,0c2,0 2,-3 0,-3z" id="svg_87"/>
  <path fill="#9BF9F4" d="m645,162.5c-1.9,0 -1.9,3 0,3s1.9,-3 0,-3z" id="svg_88"/>
  <path fill="#9BF9F4" d="m582.7,140.3c-0.6,-0.6 -1.5,-0.6 -2.1,0c0,0 -0.1,0.1 -0.1,0.1c-0.1,0 -0.1,0.1 -0.2,0.1c0,0 0,0 0.1,0c0,0 -0.1,0 -0.1,0c0,0 0,0 0,0c0,0 0,0 0,0c-0.8,0.1 -1.4,0.7 -1.4,1.5c0,0.8 0.7,1.6 1.5,1.5c0.9,-0.1 1.7,-0.5 2.4,-1.1c0.5,-0.6 0.5,-1.6 -0.1,-2.1z" id="svg_89"/>
  <path fill="#9BF9F4" d="m580.3,140.5c0.1,-0.1 -0.2,0 0,0l0,0z" id="svg_90"/>
  <path fill="#9BF9F4" d="m580.3,140.5l0,0c0,0 0,0 0,0c0,0 0,0 0,0c0,0 0,0 0,0z" id="svg_91"/>
  <path fill="#9BF9F4" d="m246.5,166.8c0,0 0,-0.1 0,-0.1c0,-1.9 -3,-1.9 -3,0c0,0.6 0,1.2 0.3,1.7c0.4,0.7 1.1,1.1 1.9,1.1c0.8,0.1 1.5,-0.7 1.5,-1.5c0,-0.5 -0.3,-1 -0.7,-1.2z" id="svg_92"/>
  <path fill="#9BF9F4" d="m323.7,81.2c-1.9,0 -1.9,3 0,3s1.9,-3 0,-3z" id="svg_93"/>
  <path fill="#9BF9F4" d="m389,75.8c-1.9,0 -1.9,3 0,3s1.9,-3 0,-3z" id="svg_94"/>
  <path fill="#9BF9F4" d="m386.2,100.6c-0.2,-0.4 -0.5,-0.7 -0.8,-1c-0.6,-0.6 -1.5,-0.6 -2.1,0c-0.6,0.6 -0.6,1.5 0,2.1c0.1,0.1 0.2,0.2 0.2,0.2c0,0 0,0 0,0c0,1.9 3,1.9 3,0c0,-0.4 -0.1,-0.8 -0.3,-1.3z" id="svg_95"/>
  <path fill="#9BF9F4" d="m175,153.2l-1.3,0c-1.9,0 -1.9,3 0,3l1.3,0c1.9,0 1.9,-3 0,-3z" id="svg_96"/>
 </g>

</svg>